<svg xmlns="http://www.w3.org/2000/svg" xmlns:xlink="http://www.w3.org/1999/xlink" viewBox="0 0 139.77 129.7"><defs><style>.cls-1{mask:url(#mask);filter:url(#luminosity-noclip-2);}.cls-2{mix-blend-mode:multiply;fill:url(#linear-gradient);}.cls-3{isolation:isolate;}.cls-4{fill:#304449;}.cls-5{fill:#54676d;}.cls-6{fill:#374a4f;}.cls-7{fill:#7c8e96;}.cls-8{fill:#60757c;}.cls-9{fill:#394b4f;}.cls-10{fill:#899ea5;}.cls-11{fill:#9aaf45;}.cls-12{fill:#cedadd;}.cls-13{fill:#96acb2;}.cls-14{fill:#889ca3;}.cls-15{fill:#2f3f44;}.cls-16{fill:#3c4f54;}.cls-17{fill:#4f646b;}.cls-18{mask:url(#mask-2);}.cls-19{opacity:0.6;mix-blend-mode:overlay;fill:url(#linear-gradient-2);}.cls-20{filter:url(#luminosity-noclip);}</style><filter id="luminosity-noclip" x="0" y="-8288.87" width="139.77" height="32766" filterUnits="userSpaceOnUse" color-interpolation-filters="sRGB"><feFlood flood-color="#fff" result="bg"/><feBlend in="SourceGraphic" in2="bg"/></filter><mask id="mask" x="0" y="-8288.87" width="139.77" height="32766" maskUnits="userSpaceOnUse"><g class="cls-20"/></mask><linearGradient id="linear-gradient" x1="69.89" y1="38.1" x2="69.89" y2="130.77" gradientUnits="userSpaceOnUse"><stop offset="0.02" stop-color="#999"/><stop offset="1" stop-color="#fff"/></linearGradient><filter id="luminosity-noclip-2" x="0" y="0" width="139.77" height="129.7" filterUnits="userSpaceOnUse" color-interpolation-filters="sRGB"><feFlood flood-color="#fff" result="bg"/><feBlend in="SourceGraphic" in2="bg"/></filter><mask id="mask-2" x="0" y="0" width="139.77" height="129.7" maskUnits="userSpaceOnUse"><g class="cls-1"><path class="cls-2" d="M130.61,58.73c.81-1.47,1-3.79.31-7.47-1.5-7.91-6.58-19.73-10.14-25.57,3.38-4.57,7.56-15.31,4-24.6-2.11-5.46-8.34,10.8-8.18,20.8l-1-.21c0-1.79,1.31-5.41.64-6.08s-2.63,3.16-3.64,2.87,0-5.87,0-5.87-2.9,4.71-4.35,4.57-.34-4.82-.77-4.82-1.39,7-2.55,6.69-2.45-6.94-2.45-6.94A23.55,23.55,0,0,0,100.78,16c-3-9-8.57-18-9.49-13.48C89.36,12.22,95,22.68,99,27c0,.67,0,1.15,0,1.36-.13,5.13-3.5,2-3.5,2,1.62,7.25-2,5-3.41,6.17-.33.28,2.32,2.32,1.88,4.92S90,43.31,90,43.31c2,1.74,1.45,7.08,1.45,7.08-.73-1.3-4.91-2.6-4.91-2.6,1,2,.14,8.38-.15,7.8a52.76,52.76,0,0,0-4-4c1.22,1.47,1.93,6.79,2,13.14-.2.15-.39.31-.59.45l-.33.24c-.44.31-.88.61-1.34.89l-.22.13q-.63.38-1.29.72l-.3.16c-.49.25-1,.48-1.49.69l-.34.14c-.4.17-.8.31-1.21.45l-.68.23c-.47.15-1,.29-1.46.42l-.17,0-.44.1c-.41.09-.84.18-1.26.25l-.62.1c-.54.08-1.08.15-1.64.2l-.27,0h-.19c-.55,0-1.12.07-1.7.08h-.55c-.68,0-1.36,0-2.07-.07-4.43-.3-16.88-6.12-24.07-8.28a3,3,0,0,0-.51-.09h-.53l-.25,0-.31.07-.28.07-.06,0c-6.77-2.51-12.41-1.66-16.25.86-7.6,5-8.21,17.33-8.62,25.48a48.38,48.38,0,0,1-.47,5.66c-.55,2.82-1.86,4.65-3.78,5.29a5.76,5.76,0,0,1-4.75-.72,2,2,0,0,0,.85-1.29c.13-5-5.94-7.19-5.78-13.94,0,0-4,9.18,1.52,15.75A2,2,0,0,0,5.19,99a7.69,7.69,0,0,0,4.36,1.45,5.9,5.9,0,0,0,1.92-.31C13.12,99.6,15.24,98.09,16,94a47.24,47.24,0,0,0,.49-5.81c.4-7.93,1-19.92,8.1-24.59,3.33-2.19,7.88-2.52,13.52-1l-.13.07-.13.06-.32.18,0,0-.1.06-.16.09-.45.28-.2.12,0,0h0l-.39.28-.22.15-.34.26-.05,0,0,0-.24.19-.39.32-.26.23-.36.33-.28.26-.34.35h0a3.83,3.83,0,0,0-.28.29c-.11.11-.21.23-.32.35s-.2.22-.29.34l-.31.36c-.09.13-.19.25-.29.38s-.19.25-.28.37-.2.27-.29.41l-.27.39c-.1.15-.19.3-.28.45s-.17.26-.25.4l-.27.48c-.08.13-.15.27-.23.41l-.26.51c-.07.15-.14.29-.2.43s-.17.36-.25.55l-.18.44c-.08.19-.15.38-.22.58s-.12.3-.17.46-.13.4-.2.6-.1.32-.14.48-.12.42-.17.64l-.13.49c0,.22-.09.45-.14.67s-.07.34-.1.51-.07.46-.11.7-.05.35-.07.53-.05.48-.08.72,0,.36,0,.55,0,.5,0,.75l0,.56c0,.26,0,.52,0,.79s0,.38,0,.58,0,.54,0,.82,0,.39,0,.59.06.57.09.86l.06.59c0,.3.09.61.14.92s.06.39.1.58q.09.52.21,1c0,.17.06.33.1.5.12.52.25,1,.4,1.59.07.23.14.49.23.77a2.76,2.76,0,0,0,.08.27c.06.19.12.39.19.59s.07.24.12.36.15.46.23.7c1.67,5,4.57,12.56,4.21,13.63-.44,1.3-4.77,6.22-4.77,6.65,0,.24,1.93,5.56,3.64,10.22h0c.68,1.85,1.33,3.6,1.8,4.89.11.28.2.53.29.77a.88.88,0,0,0,0,.15s0,.09.05.14l.22.58c0,.11.07.2.1.27l0,.12a.1.1,0,0,1,0,0h5.06a.7.7,0,0,1,0-.11v0h0c0-.1-.08-.24-.14-.42h0l-.09-.28,0-.06a2.81,2.81,0,0,1-.1-.31l0,0c-.42-1.31-1.1-3.45-1.7-5.7h0c-.88-3.27-1.61-6.76-1.19-8.2.55-2,5.11-6.6,8.18-12.27h0L48,103.87c.78,2,1.3,3.49,1.17,3.92-.38,1.19-4.51,5.71-4.49,6.11,0,.21,1.94,4.6,3.77,8.7h0L49.57,125l2.07,4.62,0,0h5.06l0,0v0l0-.08,0-.07,0-.09s0-.07,0-.11l-.06-.13a.69.69,0,0,0-.05-.13l-.06-.16c0-.05-.05-.1-.07-.16a1.22,1.22,0,0,0-.07-.17l-.07-.19-.09-.22c0-.06,0-.13-.08-.2l-.09-.22c0-.13-.1-.27-.16-.41s-.07-.19-.11-.29l-.09-.23c0-.1-.07-.19-.11-.29l-.09-.26c0-.1-.08-.19-.11-.29s-.07-.18-.1-.27l-.12-.31-.1-.28-.12-.32a2.31,2.31,0,0,0-.1-.28l-.12-.35-.09-.27c-.05-.13-.09-.25-.13-.38l-.09-.25c-.06-.17-.11-.34-.17-.51-.93-2.83-1.68-5.73-1.35-7,.37-1.4,3.1-4.3,5.63-8a47.48,47.48,0,0,0,25.95.83c.83,3,2.53,9.17,3.84,14h-.11c1,3.67,1.88,6.52,1.88,6.52h4.91a63.25,63.25,0,0,1-1.83-24c1-.54,2-1.12,3-1.77a36.33,36.33,0,0,0-.92,5.81c.24,1.74,4.12,17.34,4.7,19.64h0l0,.09,0,.1a.66.66,0,0,0,0,.09h5.92v0a.16.16,0,0,1,0-.06v0a52.9,52.9,0,0,1-1.88-6.39h0c-1.57-6.78-3-17.94.95-29a42.15,42.15,0,0,0,2.69-6h0c3.53-9.86,4-21,3.92-27.22,1.06.07,2.11.13,3.08.17.11,3.14,1.13,6.93,6,7.63,4.56.66,6.91-2,7.87-5,2.8,1.41,7.8,3.83,8.38,3.37.82-.64-5.45-4.42-5.45-4.42s5.36,1.82,6,1.48-4.75-2.92-4.75-2.92,6.64-.21,7.18-.74C140.13,59.48,135,59,130.61,58.73Zm-19-4.61.45.55-.46-.2ZM111.5,57V56.9l.32.18Z"/></g></mask><linearGradient id="linear-gradient-2" x1="69.89" y1="38.1" x2="69.89" y2="130.77" gradientUnits="userSpaceOnUse"><stop offset="0.02" stop-color="#ffd995"/><stop offset="1" stop-color="#5c0028"/></linearGradient></defs><g class="cls-3"><g id="Calque_2" data-name="Calque 2"><g id="Calque_1-2" data-name="Calque 1"><path class="cls-4" d="M84.36,68.16c.14-7.8-.58-14.88-2-16.61a52.76,52.76,0,0,1,4,4c.29.58,1.16-5.78.15-7.8,0,0,4.18,1.3,4.91,2.6,0,0,.57-5.34-1.45-7.08,0,0,3.47.73,3.9-1.87S91.68,36.8,92,36.52c1.41-1.17,5,1.08,3.41-6.17,0,0,3.37,3.13,3.5-2,0-1.15,0-9.75,3.5-16.25,0,0,1.3,6.66,2.45,6.94s2.11-6.69,2.55-6.69-.67,4.67.77,4.82,4.35-4.57,4.35-4.57-1,5.58,0,5.87,2.91-3.59,3.64-2.87-.9,4.89-.61,6.48S84.36,68.16,84.36,68.16Z"/><path class="cls-5" d="M9.55,100.46a7.7,7.7,0,0,1-4.84-1.82l.8-.87a6,6,0,0,0,5.56,1.29c1.92-.64,3.23-2.47,3.78-5.29a48.38,48.38,0,0,0,.47-5.66c.41-8.15,1-20.48,8.62-25.48C27.88,60,33.69,59.2,40.68,62l-1.1,1c-6.31-1.94-11.34-1.72-14.95.65-7.1,4.67-7.7,16.66-8.1,24.59A47.24,47.24,0,0,1,16,94c-.8,4.11-2.92,5.62-4.57,6.17A5.9,5.9,0,0,1,9.55,100.46Z"/><path class="cls-5" d="M99.91,129.12h5.92s-9-22.24,1.71-41.59l-7.48-2.18s-5.17,22-4.92,23.84S99.91,129.12,99.91,129.12Z"/><path class="cls-6" d="M98.3,122.6c.88,3.61,1.61,6.52,1.61,6.52h5.92a48.53,48.53,0,0,1-1.93-6.52Z"/><path class="cls-5" d="M51.66,129.7h5.06s-4.71-11.16-4-13.94,10.88-11.56,10-20.59-3.21-28.95-8.81-28-16.06,9.6-10.51,25.63c1.33,3.85,6.12,13.81,5.75,15s-4.51,5.71-4.49,6.11S51.66,129.7,51.66,129.7Z"/><path class="cls-6" d="M48.49,122.6c1.63,3.67,3.17,7.1,3.17,7.1h5.06s-1.49-3.52-2.66-7.1Z"/><path class="cls-7" d="M33.85,93.44c7.31,8.48,37,26.39,62.4,9.83,18.09-11.79,15-47.77,15-47.77s2.88-14.26,5.58-16.57-14.64-19.26-16.37-7.51S91.63,71.68,66.2,69.94c-4.43-.3-16.88-6.12-24.07-8.28C36.35,59.93,22.45,80.25,33.85,93.44Z"/><path class="cls-8" d="M113.19,32.32a.28.28,0,0,1-.08.11c-10.42,8.93,1.51,49.92-20.61,64.34-25.14,16.38-54.42-1-62.14-9.54a17.43,17.43,0,0,0,3.49,6.21c7.31,8.48,37,26.39,62.4,9.83,18.09-11.79,15-47.77,15-47.77s2.88-14.26,5.58-16.57C117.89,38.05,116,35.05,113.19,32.32Z"/><path class="cls-5" d="M102.21,29.69C100,38.52,101.38,58,111,69.52l1-27.67Z"/><path class="cls-7" d="M35.48,129.7h5.06s-4.19-12.13-3.32-15.17,11.41-12.57,11-22.39-1.87-31.49-7.51-30.48S24.17,72.11,29,89.54c1.16,4.19,5.49,15,5.06,16.32s-4.77,6.22-4.77,6.65S35.48,129.7,35.48,129.7Z"/><path class="cls-9" d="M2.91,98.86c1,1.25,4.22-.51,4.26-1.81.13-5-5.94-7.19-5.78-13.94C1.39,83.11-2.58,92.29,2.91,98.86Z"/><path class="cls-7" d="M118.17,27.94c2.75-.16,11.26-14.74,6.57-26.85C122.08-5.79,112.86,21.86,118.17,27.94Z"/><path class="cls-7" d="M114.65,57.23c-.2,2.79-1,9.89,5.87,10.88,7.81,1.13,9.15-7.51,8.09-11S114.65,57.23,114.65,57.23Z"/><path class="cls-10" d="M115.66,58.29c-.16,2.2-.79,7.8,4.89,8.58,6.49.89,7.61-5.92,6.73-8.65S115.66,58.29,115.66,58.29Z"/><path class="cls-7" d="M114.91,54.92c-.16,2.2-1.41,7.14,4.07,8.81,7.93,2.42,11.07-2,10.19-4.75S114.91,54.92,114.91,54.92Z"/><path class="cls-11" d="M118.07,60.58c-4.11,0-16.36-.89-15.74-1.41s8.06-.66,8.06-.66-6-2.64-5.25-3,6.68,1.54,6.68,1.54-6.92-3.85-6-4.48,11.37,4.45,11.37,4.45Z"/><path class="cls-11" d="M125.65,58.58c3.67-.08,14.64.74,14.1,1.26s-7.18.74-7.18.74,5.41,2.58,4.75,2.92-6-1.48-6-1.48,6.27,3.78,5.45,4.42S126.5,62.1,126.5,62.1Z"/><path class="cls-12" d="M119.27,58.88c-.09,2.11-.88,3.57.52,4s1.64-.11,1.64-.11a10.28,10.28,0,0,0,.32-3Z"/><path class="cls-12" d="M122.18,59.43c-.12,1.62-.87,3.65,1,3.9s2.11-.36,2.11-.36c.4-.73.13-3.22.13-3.22Z"/><path class="cls-12" d="M125.9,58.81c.13,2.18-.7,4.08.75,3.74s1.6-1,1.6-1a17,17,0,0,0,.39-3.14Z"/><path class="cls-12" d="M118.81,58.42c-.36,2.15.09,4.08-1,3.67S116.63,61,116.63,61a21.46,21.46,0,0,1,.05-3.12Z"/><path class="cls-7" d="M121,61.28c6.45-.1,11.94.67,9.92-10s-10.59-28.51-13.1-29.08-19.45-5.09-17.23,12.61C101.07,38.64,113.73,61.39,121,61.28Z"/><path class="cls-13" d="M114.17,52.1a2.27,2.27,0,0,1,3.2-2c1.63.61,2.84,2.89,4.75,2.92,1.18,0,2.37-2.66,3.25-3.92,1.59-2.25,5.25,2.59,3.25-3.75-3.27-10.37-7.35-19-9.41-20.5-3.25-2.41-19-7.25-17.58,8.42C102,37.14,113.84,59.37,114.17,52.1Z"/><path class="cls-14" d="M105.88,36.1c.12-1.5,3.08-6.91,8.66-6.58s9.17,1.67,10.34,5,.41,11.67-4.17,12.17C114.74,47.34,105.54,40.27,105.88,36.1Z"/><path class="cls-13" d="M101.87,29c-2.6.29-13.12-13.78-10.58-26.48C92.74-4.68,105.92,22.17,101.87,29Z"/><path class="cls-15" d="M113.42,35.76l.55,0c-3.66-4.73-6.24.5-6.24.5l1.13-.09C109.75,35.07,111.37,33.92,113.42,35.76Z"/><path class="cls-15" d="M123.41,35l.54,0c-3.65-4.73-6.24.49-6.24.49l1.13-.08C119.74,34.28,121.36,33.13,123.41,35Z"/><path class="cls-16" d="M118.79,57.92c-1.59-3-5.15-5.79-2.36-6.37,2.11-.45,5.34,4.19,5.34,4.19Z"/><path class="cls-16" d="M128.09,57.35c.31-3.32,2.31-6.81-.21-7.11-1.65-.2-3,5.49-3,5.49Z"/><path class="cls-6" d="M32.91,122.73l2.57,7h5.06s-1.16-3.35-2.13-7Z"/><path class="cls-14" d="M95.5,49.4C90.74,60.41,82,71,66.2,69.94c-4.43-.3-16.88-6.12-24.07-8.28a3.22,3.22,0,0,0-1.88.09c-5.73,1.39-16,10.79-11.27,27.79.21.76.52,1.73.89,2.82C62.06,98.66,92.46,99.74,95.5,49.4Z"/><path class="cls-8" d="M49,82.17c.94,8.43.56,11.37-3.58,20.09l3,1.84C50.67,100.35,52.48,89.35,49,82.17Z"/><path class="cls-7" d="M89.94,129.12h4.91s-7.23-23,4.19-42.18l-10.11-1.3s-8.26,11-5.05,21.38C84.43,108.82,89.94,129.12,89.94,129.12Z"/><path class="cls-6" d="M88.06,122.6c1,3.67,1.88,6.52,1.88,6.52h4.91a45.66,45.66,0,0,1-1.77-6.52Z"/><path class="cls-8" d="M93.5,84.6c1.15,3.05,2.09,9.41-.13,18.17l2.72-3.69C98.23,92.55,96.3,88,93.5,84.6Z"/><path class="cls-17" d="M100.37,25.27c-1.13,1.09-10.08-9.57-7.85-19C93.54,1.94,102.24,22.86,100.37,25.27Z"/><path class="cls-17" d="M119.43,24c2-.11,8.06-10.55,4.71-19.21C122.23-.19,115.63,19.61,119.43,24Z"/><path class="cls-13" d="M66.2,69.94c-4.43-.3-16.88-6.12-24.07-8.28a3.22,3.22,0,0,0-1.88.09C35.84,62.82,28.78,68.64,27.89,79a61.24,61.24,0,0,0,17.23,2.35c16,0,29.43-5.55,32.56-12.93A27.36,27.36,0,0,1,66.2,69.94Z"/><path class="cls-13" d="M38.54,103.6c4,.87,14-16.12,7.88-26.62S29.9,69.32,28.17,78C27,83.6,32.17,102.23,38.54,103.6Z"/><path class="cls-14" d="M86,109c-2.1.78-8.94-15-5.75-25s10.16-8.51,11.06-.12C91.94,89.31,89.36,107.74,86,109Z"/><path class="cls-13" d="M113.29,49.17c-.61-3.49.71-11.85,4.13-11.94S128.1,47,128.1,47Z"/><g class="cls-18"><path class="cls-19" d="M130.61,58.73c.81-1.47,1-3.79.31-7.47-1.5-7.91-6.58-19.73-10.14-25.57,3.38-4.57,7.56-15.31,4-24.6-2.11-5.46-8.34,10.8-8.18,20.8l-1-.21c0-1.79,1.31-5.41.64-6.08s-2.63,3.16-3.64,2.87,0-5.87,0-5.87-2.9,4.71-4.35,4.57-.34-4.82-.77-4.82-1.39,7-2.55,6.69-2.45-6.94-2.45-6.94A23.55,23.55,0,0,0,100.78,16c-3-9-8.57-18-9.49-13.48C89.36,12.22,95,22.68,99,27c0,.67,0,1.15,0,1.36-.13,5.13-3.5,2-3.5,2,1.62,7.25-2,5-3.41,6.17-.33.28,2.32,2.32,1.88,4.92S90,43.31,90,43.31c2,1.74,1.45,7.08,1.45,7.08-.73-1.3-4.91-2.6-4.91-2.6,1,2,.14,8.38-.15,7.8a52.76,52.76,0,0,0-4-4c1.22,1.47,1.93,6.79,2,13.14-.2.15-.39.31-.59.45l-.33.24c-.44.31-.88.61-1.34.89l-.22.13q-.63.38-1.29.72l-.3.16c-.49.25-1,.48-1.49.69l-.34.14c-.4.17-.8.31-1.21.45l-.68.23c-.47.15-1,.29-1.46.42l-.17,0-.44.1c-.41.09-.84.18-1.26.25l-.62.1c-.54.08-1.08.15-1.64.2l-.27,0h-.19c-.55,0-1.12.07-1.7.08h-.55c-.68,0-1.36,0-2.07-.07-4.43-.3-16.88-6.12-24.07-8.28a3,3,0,0,0-.51-.09h-.53l-.25,0-.31.07-.28.07-.06,0c-6.77-2.51-12.41-1.66-16.25.86-7.6,5-8.21,17.33-8.62,25.48a48.38,48.38,0,0,1-.47,5.66c-.55,2.82-1.86,4.65-3.78,5.29a5.76,5.76,0,0,1-4.75-.72,2,2,0,0,0,.85-1.29c.13-5-5.94-7.19-5.78-13.94,0,0-4,9.18,1.52,15.75A2,2,0,0,0,5.19,99a7.69,7.69,0,0,0,4.36,1.45,5.9,5.9,0,0,0,1.92-.31C13.12,99.6,15.24,98.09,16,94a47.24,47.24,0,0,0,.49-5.81c.4-7.93,1-19.92,8.1-24.59,3.33-2.19,7.88-2.52,13.52-1l-.13.07-.13.06-.32.18,0,0-.1.06-.16.09-.45.28-.2.12,0,0h0l-.39.28-.22.15-.34.26-.05,0,0,0-.24.19-.39.32-.26.23-.36.33-.28.26-.34.35h0a3.83,3.83,0,0,0-.28.29c-.11.11-.21.23-.32.35s-.2.22-.29.34l-.31.36c-.09.13-.19.25-.29.38s-.19.25-.28.37-.2.27-.29.41l-.27.39c-.1.15-.19.3-.28.45s-.17.26-.25.4l-.27.48c-.08.13-.15.27-.23.41l-.26.51c-.07.15-.14.29-.2.43s-.17.36-.25.55l-.18.44c-.08.19-.15.38-.22.58s-.12.3-.17.46-.13.4-.2.6-.1.32-.14.48-.12.42-.17.64l-.13.49c0,.22-.09.45-.14.67s-.07.34-.1.51-.07.46-.11.7-.05.35-.07.53-.05.48-.08.72,0,.36,0,.55,0,.5,0,.75l0,.56c0,.26,0,.52,0,.79s0,.38,0,.58,0,.54,0,.82,0,.39,0,.59.06.57.09.86l.06.59c0,.3.09.61.14.92s.06.39.1.58q.09.52.21,1c0,.17.06.33.1.5.12.52.25,1,.4,1.59.07.23.14.49.23.77a2.76,2.76,0,0,0,.08.27c.06.19.12.39.19.59s.07.24.12.36.15.46.23.7c1.67,5,4.57,12.56,4.21,13.63-.44,1.3-4.77,6.22-4.77,6.65,0,.24,1.93,5.56,3.64,10.22h0c.68,1.85,1.33,3.6,1.8,4.89.11.28.2.53.29.77a.88.88,0,0,0,0,.15s0,.09.05.14l.22.58c0,.11.07.2.1.27l0,.12a.1.1,0,0,1,0,0h5.06a.7.7,0,0,1,0-.11v0h0c0-.1-.08-.24-.14-.42h0l-.09-.28,0-.06a2.81,2.81,0,0,1-.1-.31l0,0c-.42-1.31-1.1-3.45-1.7-5.7h0c-.88-3.27-1.61-6.76-1.19-8.2.55-2,5.11-6.6,8.18-12.27h0L48,103.87c.78,2,1.3,3.49,1.17,3.92-.38,1.19-4.51,5.71-4.49,6.11,0,.21,1.94,4.6,3.77,8.7h0L49.57,125l2.07,4.62,0,0h5.06l0,0v0l0-.08,0-.07,0-.09s0-.07,0-.11l-.06-.13a.69.69,0,0,0-.05-.13l-.06-.16c0-.05-.05-.1-.07-.16a1.22,1.22,0,0,0-.07-.17l-.07-.19-.09-.22c0-.06,0-.13-.08-.2l-.09-.22c0-.13-.1-.27-.16-.41s-.07-.19-.11-.29l-.09-.23c0-.1-.07-.19-.11-.29l-.09-.26c0-.1-.08-.19-.11-.29s-.07-.18-.1-.27l-.12-.31-.1-.28-.12-.32a2.31,2.31,0,0,0-.1-.28l-.12-.35-.09-.27c-.05-.13-.09-.25-.13-.38l-.09-.25c-.06-.17-.11-.34-.17-.51-.93-2.83-1.68-5.73-1.35-7,.37-1.4,3.1-4.3,5.63-8a47.48,47.48,0,0,0,25.95.83c.83,3,2.53,9.17,3.84,14h-.11c1,3.67,1.88,6.52,1.88,6.52h4.91a63.25,63.25,0,0,1-1.83-24c1-.54,2-1.12,3-1.77a36.33,36.33,0,0,0-.92,5.81c.24,1.74,4.12,17.34,4.7,19.64h0l0,.09,0,.1a.66.66,0,0,0,0,.09h5.92v0a.16.16,0,0,1,0-.06v0a52.9,52.9,0,0,1-1.88-6.39h0c-1.57-6.78-3-17.94.95-29a42.15,42.15,0,0,0,2.69-6h0c3.53-9.86,4-21,3.92-27.22,1.06.07,2.11.13,3.08.17.11,3.14,1.13,6.93,6,7.63,4.56.66,6.91-2,7.87-5,2.8,1.41,7.8,3.83,8.38,3.37.82-.64-5.45-4.42-5.45-4.42s5.36,1.82,6,1.48-4.75-2.92-4.75-2.92,6.64-.21,7.18-.74C140.13,59.48,135,59,130.61,58.73Zm-19-4.61.45.55-.46-.2ZM111.5,57V56.9l.32.18Z"/></g></g></g></g></svg>