<svg xmlns="http://www.w3.org/2000/svg" xmlns:xlink="http://www.w3.org/1999/xlink" viewBox="0 0 164.75 152.37"><defs><style>.cls-1{mask:url(#mask);filter:url(#luminosity-noclip-2);}.cls-2{mix-blend-mode:multiply;fill:url(#linear-gradient);}.cls-3{isolation:isolate;}.cls-4{fill:#536163;}.cls-5{fill:#778284;}.cls-6{fill:#57686b;}.cls-7{fill:#697577;}.cls-8{fill:#98adaf;}.cls-9{fill:#859193;}.cls-10{fill:#f47a69;}.cls-11{fill:#dd5d50;}.cls-12{fill:#87999b;}.cls-13{fill:#657375;}.cls-14{fill:#728384;}.cls-15{fill:#e06853;}.cls-16{fill:#c44837;}.cls-17{fill:#9eb4b7;}.cls-18{fill:#bad6d8;}.cls-19{fill:#d67461;}.cls-20{fill:#543e32;}.cls-21{mask:url(#mask-2);}.cls-22{opacity:0.6;mix-blend-mode:overlay;fill:url(#linear-gradient-2);}.cls-23{filter:url(#luminosity-noclip);}</style><filter id="luminosity-noclip" x="0.01" y="-7641.09" width="164.74" height="32766" filterUnits="userSpaceOnUse" color-interpolation-filters="sRGB"><feFlood flood-color="#fff" result="bg"/><feBlend in="SourceGraphic" in2="bg"/></filter><mask id="mask" x="0.01" y="-7641.09" width="164.74" height="32766" maskUnits="userSpaceOnUse"><g class="cls-23"/></mask><linearGradient id="linear-gradient" x1="82.38" y1="38.99" x2="82.38" y2="157.53" gradientUnits="userSpaceOnUse"><stop offset="0" stop-color="#999"/><stop offset="1" stop-color="#fff"/></linearGradient><filter id="luminosity-noclip-2" x="0.01" y="0" width="164.74" height="152.37" filterUnits="userSpaceOnUse" color-interpolation-filters="sRGB"><feFlood flood-color="#fff" result="bg"/><feBlend in="SourceGraphic" in2="bg"/></filter><mask id="mask-2" x="0.01" y="0" width="164.74" height="152.37" maskUnits="userSpaceOnUse"><g class="cls-1"><path class="cls-2" d="M151.56,30.53a62.3,62.3,0,0,0-13.7-22.2s-3.12,7.24-2.45,14.05c-.39-.12-.77-.22-1.16-.32l-.12,0-1.36-.32-.11,0q-.67-.15-1.35-.27l-.11,0c-.45-.08-.89-.16-1.34-.22l-.09,0L128.43,21h-.08L127,20.84h-.07c-.44,0-.89-.06-1.33-.08h0l-1.34,0h0A40.24,40.24,0,0,0,106,24.94c.41-7-5.28-14.61-5.28-14.61C97.4,15.14,91.86,25,91.49,36.49v0c-.12.14-.23.29-.35.44l-.18.24-.32.43-.17.25-.29.42-.18.26-.25.39-.18.27c-.07.13-.15.25-.23.38s-.1.18-.16.27-.14.24-.2.36l-.16.28-.18.34c0,.1-.09.19-.14.29l-.15.32c0,.09-.09.19-.13.28s-.09.21-.14.31l-.11.27c0,.1-.08.2-.11.3s-.07.18-.1.27l-.09.27c0,.1-.06.19-.08.28a2.33,2.33,0,0,0-.07.25,2.68,2.68,0,0,0-.07.27,2,2,0,0,1,0,.24,2.17,2.17,0,0,0,0,.25c0,.08,0,.15,0,.22s0,.17,0,.26a1.23,1.23,0,0,1,0,.19v.26c0,.05,0,.11,0,.16a2,2,0,0,0,0,.26c0,.05,0,.09,0,.14a2,2,0,0,0,.08.35,1.51,1.51,0,0,0,.1.28l0,.06a.85.85,0,0,0,.09.14s0,0,.05.05a.31.31,0,0,0,.11.09l0,0A.52.52,0,0,0,88,47h.23l.14,0,.06,0,.13-.06,0,0,.18-.1h0l.18-.12,0,0a.63.63,0,0,0,.12-.1l.06-.05.1-.09.06-.05.08-.08a1.14,1.14,0,0,1,.11-.11s0,0,0,0a.87.87,0,0,0-.12.14l-.06.07a1.47,1.47,0,0,0-.1.13,5.4,5.4,0,0,0-.41.54l0,0-.19.27a.35.35,0,0,1,0,.08c-.06.09-.12.18-.17.27l0,.09c-.06.1-.12.2-.17.3a.16.16,0,0,0,0,.07,4.85,4.85,0,0,0-.34.78,0,0,0,0,0,0,0c0,.11-.07.23-.1.34s0,.07,0,.1a2.51,2.51,0,0,0,0,.27v.12a1.77,1.77,0,0,0,0,.23.49.49,0,0,1,0,.12l.06.23,0,.1a1.11,1.11,0,0,0,.17.3.83.83,0,0,0,.27.26l.09,0a.86.86,0,0,0,.21.07l.12,0,.21,0,.12,0,.27-.1s0,0,.07,0a3.26,3.26,0,0,0,.34-.22l.08-.05.27-.23.09-.08a3.07,3.07,0,0,0,.26-.25l.07-.07.29-.31h0l-.37.51h0c-.13.18-.25.37-.38.56h0l-.33.51-.08.15-.22.38a1.09,1.09,0,0,0-.08.15,4.26,4.26,0,0,0-.23.49l0,0a3.43,3.43,0,0,0-.13.38l0,.12a2.46,2.46,0,0,0,0,.26v.09a.46.46,0,0,0,.1.26.67.67,0,0,0,.19.14,2.32,2.32,0,0,0,2.35-.53l.09,0c-.17.28-.4.57-.61.86a2.26,2.26,0,0,0-.64,1.27.55.55,0,0,0,0,.18v0a.78.78,0,0,0,.3.47l0,0a1.59,1.59,0,0,0,.32.19c2.16,1,4.53-1,4.53-1a.92.92,0,0,0,.11.11h0c.2.21.71.74,1.5,1.49h0c.32.3.68.63,1.09,1l-.41.59h0c-.14.2-.29.4-.45.61l0,0c-.16.21-.32.43-.5.65h0c-.17.22-.34.43-.53.65l-.05.06c-.18.22-.38.44-.58.67l0,.06-.59.64-.07.07c-.21.22-.43.45-.66.67l-.1.09-.66.63-.08.07c-.24.23-.49.45-.75.67l-.14.12c-.24.2-.49.41-.75.61l-.07.06-.85.64-.17.12-.86.6,0,0c-.31.21-.62.41-1,.6l-.21.13c-.65.39-1.34.76-2.05,1.11l-.25.12-1.1.5h0c-.37.16-.74.3-1.12.45l-.27.1-1.21.41-.12,0c-.38.12-.77.23-1.16.33l-.29.08c-.43.1-.86.21-1.31.3l-.2,0-1.21.22-.31,0c-.46.07-.93.13-1.42.18l-.25,0c-.43,0-.86.07-1.3.09l-.31,0c-.51,0-1,0-1.53,0h-.32l-1.4,0-.3,0c-.54,0-1.09-.08-1.65-.13l-.37,0c-.5,0-1-.12-1.52-.19l-.28,0c-.58-.09-1.18-.19-1.77-.31l-.42-.09c-.55-.11-1.1-.24-1.67-.38l-.24-.06c-.62-.15-1.26-.33-1.9-.52L60.87,69c-.62-.18-1.24-.38-1.87-.59l-.14,0c-.67-.23-1.36-.48-2-.75l-.51-.19c-.7-.28-1.4-.57-2.12-.88-.47-.2-.92-.37-1.37-.52l-.27-.1a12.36,12.36,0,0,0-1.25-.35l-.3-.07c-.37-.08-.73-.15-1.09-.2l-.3,0L49,65.2l-.12-.29-.09-.24a20.57,20.57,0,0,1-.7-2.19.75.75,0,0,1,0-.16q-.12-.48-.21-1c0-.06,0-.11,0-.17A16.91,16.91,0,0,1,47.51,59v-.07c0-.34,0-.69,0-1a.49.49,0,0,0,0-.12,13.08,13.08,0,0,1,.29-2.24v0c.08-.35.17-.71.28-1.07l0-.09A13.38,13.38,0,0,1,49,52.11c1.55-3,4.37-6,8.82-8.85C68,36.79,69.07,23,67.13,18.9c-2.74-5.77-8.47-14.09-15.5-17.28h0A16.65,16.65,0,0,0,49.42.8l-.11,0L48.38.55,48.13.5c-.35-.06-.7-.11-1.06-.15C29.72-1.3,21.15,3.13,12.79,7.9c-.58.33-1.15.67-1.69,1L10.94,9c-.52.32-1,.65-1.51,1l-.2.13c-.47.32-.93.65-1.37,1l-.19.14c-.44.33-.87.66-1.28,1l-.14.12c-.42.35-.81.69-1.19,1L5,13.46a20.37,20.37,0,0,0-3,3.41l0,0c-.26.38-.49.76-.7,1.14l0,.05c-.21.39-.39.77-.55,1.15v0A8.79,8.79,0,0,0,.86,26.5h0a11.54,11.54,0,0,0,.93,1.66c9,13.43,22.08-8.1,35.58-17.25,7-4.73,15.19-4.83,20.7,2.16,2.65,3.36,11,16.17-1.51,26.3-14.82,12-14.21,20.12-12.05,26.41a11.48,11.48,0,0,0-1.39.61l-.08,0a12.64,12.64,0,0,0-1.21.74,17,17,0,0,0-1.64,1h0l0,0,0,0a21.58,21.58,0,0,0-2.88,2.37s0,0,0,0l-.1.09,0,0c-15,15-11.35,54.71-9.57,76.68,0,.69.11,1.36.16,2a1.64,1.64,0,0,0,0,.22c.06.8.12,1.57.17,2.31H39.94c-.47-4.35-1.55-5.95-2.83-6.11,0-.23.08-.47.13-.71l.15-.77c.13-.62.28-1.26.43-1.91l.27-1c.13-.5.27-1,.42-1.51s.23-.78.35-1.18.27-.85.41-1.27c.24-.75.5-1.51.77-2.27.1-.29.2-.57.31-.86.2-.56.41-1.12.63-1.69l.1-.25c.48-1.23,1-2.48,1.54-3.75l.12-.27q1.34-3.11,2.94-6.34,2-4.05,4.34-8.26c.53.3,1.07.58,1.6.86,3.3,13.55,9.28,28.71,12.59,37.74h7.23a.07.07,0,0,1,0-.05h3.76c-.7-6.61-2.85-6.87-4.89-5.36-1-6.91-.67-16,.53-25.13A79.39,79.39,0,0,0,92,123.92l8.87,23.5a10.9,10.9,0,0,0-1.51,4.9h3.5l0,.05h15.46l0-.05h6.07c-.63-4.77-2.19-6.23-4-6.11L134,107a29.18,29.18,0,0,0,7.45-14.44c0-.18.07-.36.09-.54.06-.36.1-.71.14-1.07s0-.44.07-.67.05-.69.06-1l0-.72c0-.34,0-.68,0-1s0-.51,0-.77,0-.67-.07-1-.06-.54-.1-.81-.08-.66-.13-1-.12-.59-.18-.89-.11-.62-.19-.93c-.14-.59-.3-1.17-.48-1.76-.08-.26-.18-.52-.27-.78s-.24-.73-.38-1.1-.22-.55-.34-.83-.29-.7-.45-1.06l-.4-.84-.55-1.07c-.14-.28-.3-.56-.46-.84s-.41-.72-.64-1.08-.33-.55-.51-.82-.5-.76-.76-1.14l-.49-.72.37-.17c10-4.53,21.31-18.11,21.31-18.11s0,0,0-.08c1.94,2,4.74-.68,2.61-4.72,0,0,3.77,7.12,5,5C165.61,50,161.6,38.62,151.56,30.53ZM110.74,142.47l-2.16-21c1.45-.4,2.86-.83,4.25-1.31Z"/></g></mask><linearGradient id="linear-gradient-2" x1="82.38" y1="38.99" x2="82.38" y2="157.53" gradientUnits="userSpaceOnUse"><stop offset="0" stop-color="#ffcb97"/><stop offset="1" stop-color="#0f002b"/></linearGradient></defs><g class="cls-3"><g id="Calque_2" data-name="Calque 2"><g id="Calque_1-2" data-name="Calque 1"><polygon class="cls-4" points="118.38 152.37 109.82 152.37 115.25 94.15 136.15 100.6 118.38 152.37"/><path class="cls-4" d="M64.21,152.37c-6.61-18.05-23.87-60.52-9.15-65.79,4.12-1.48,20.12,11.89,17.24,26.33s-3.59,30.6-.86,39.46Z"/><path class="cls-5" d="M31.33,99.76c53.45,52.44,139.3,9.7,100.91-33.64C128,61.31,99.9,54.91,99.9,54.91S88,81.22,54.19,66.55C37.54,59.34,30.9,81.86,31.33,99.76Z"/><path class="cls-6" d="M132.24,66.12a1.14,1.14,0,0,0-.11-.11c33.51,43.65-49.81,75.3-100.81,31.83,0,.64,0,1.28,0,1.92C84.78,152.2,170.63,109.46,132.24,66.12Z"/><path class="cls-5" d="M27.88,151.94c-1.72-23.72-8.62-79.54,18.33-86.46,7.55-2,22.21,18.75,10.13,37.73S36.51,140.3,36.51,151.94Z"/><path class="cls-7" d="M26.21,129c.47,8.82,1.23,16.89,1.67,22.9h8.63c0-7.69,3.4-18.21,9.18-29.93C39.19,127.91,32.12,130.68,26.21,129Z"/><polygon class="cls-5" points="102.92 152.37 111.76 152.37 107.05 106.52 87.36 109.99 102.92 152.37"/><path class="cls-5" d="M46.21,70.22C43.62,63.32,38,54.4,56.56,39.38c12.51-10.13,4.16-22.94,1.51-26.3-5.51-7-13.72-6.89-20.7-2.16C23.87,20.07,10.82,41.6,1.79,28.17-2.94,21.13,2,14,12.79,7.9,21.15,3.13,29.72-1.3,47.07.35c9.06.86,16.75,11.58,20.06,18.55C69.07,23,68,36.79,57.85,43.26c-13.2,8.44-12.07,17.9-6,27.39Z"/><path class="cls-8" d="M24.17,9.54A78,78,0,0,1,51.63,1.62,14.25,14.25,0,0,0,47.07.35C29.72-1.3,21.15,3.13,12.79,7.9,2.88,13.55-2.11,20,.86,26.51A77.59,77.59,0,0,1,24.17,9.54Z"/><path class="cls-8" d="M49,52.11c-1.07.57-2.15,1.14-3.26,1.68-.51.25-1,.48-1.52.71-2.28,6.59.39,11.53,2,15.72l5.61.43C47.81,64.36,46,58.08,49,52.11Z"/><path class="cls-9" d="M136.18,98.24c6.71-7.07,4.7-22.37-3.94-32.12C128,61.31,99.9,54.91,99.9,54.91S88,81.22,54.19,66.55c-5-2.16-9.09-1.63-12.36.63-9.32,5-13.52,17.15-15.14,31.18C50.11,108,100,121.17,136.18,98.24Z"/><path class="cls-8" d="M97.78,58.43C93.07,65.05,80,77.75,54.19,66.55c-5-2.16-9.09-1.63-12.36.63-9.06,4.84-13.27,16.46-15,30C56.93,99.8,96.27,94,97.78,58.43Z"/><path class="cls-6" d="M141.19,93.68c1.93-8.48-.49-18-8.95-27.56-2-2.22-9-4.78-16-6.89L98.39,57.54l-.07.11C100.34,65.5,115.42,86.14,141.19,93.68Z"/><path class="cls-5" d="M153.3,37.39C151,23.84,142.51,13.21,137.86,8.33c0,0-4.37,10.13-1.65,17.69Z"/><path class="cls-10" d="M149.42,32.86c-1.73-10.08-7.58-16.54-10.54-20.26,0,0-2.42,7.38-.57,13Z"/><path class="cls-11" d="M139.9,15.69a67.89,67.89,0,0,1,6.46,7.85,57.09,57.09,0,0,0-7.48-10.94s-2.42,7.38-.57,13l1.1.72A27.7,27.7,0,0,1,139.9,15.69Z"/><path class="cls-12" d="M91.49,39.11C91,26.5,97.15,15.5,100.71,10.33c0,0,6.31,8.41,5.18,15.68Z"/><path class="cls-10" d="M94.35,35.48c-.3-8.85,3.56-16.57,5.79-20.2,0,0,4,5.9,3.26,11Z"/><path class="cls-11" d="M101,17.84a23.77,23.77,0,0,1,1.76,2.84,24.48,24.48,0,0,0-2.58-5.4c-2.23,3.63-6.09,11.35-5.79,20.2l1.89-1.91A39.86,39.86,0,0,1,101,17.84Z"/><path class="cls-5" d="M87.4,46.28c.54,1.84,2.37-.43,2.37-.43s-3,3.24-1.83,4.85,3.66-2.15,3.66-2.15-3.45,4.2-2.69,5.07,3.6-1,3.6-1S88.8,55.23,91,56.2s4.53-1,4.53-1S109.71,71,129.87,71.3c10.79.17,27.07-19.73,27.07-19.73,1.94,2.15,4.85-.54,2.69-4.64,0,0,3.77,7.12,5,5s-4.42-17.25-18.43-25C111.41,7.64,85.22,38.9,87.4,46.28Z"/><path class="cls-12" d="M143.3,25.41C110,9.35,85.28,39.1,87.4,46.28c.43,1.48,1.7.3,2.18-.21-.64.73-2.65,3.26-1.64,4.63.72,1,1.94,0,2.77-1-1,1.31-2.3,3.33-1.8,3.91s2.24.2,2.73-.6c-.57,1.07-2.3,2.46-.69,3.18,2.16,1,4.53-1,4.53-1s.57.63,1.62,1.62C127.24,50.74,149.09,47.93,143.3,25.41Z"/><path class="cls-8" d="M111.44,49c-5.77-2.06-7-14.27,2.6-16.26s28.47-3,33.27,4c2.27,3.28,3.67,8.82.87,11.3S125.34,54,111.44,49Z"/><path class="cls-13" d="M132.79,47.43c-28.35,1.13-38.15,8.37-37.16,7.78,0,0,14.08,15.85,34.24,16.09C140.66,71.42,157,51.73,157,51.73,156.72,49,150.66,49.05,132.79,47.43Z"/><path class="cls-14" d="M115.29,65.66c.24,1,5.29,4,13.07,4.54,4.16.27,10.77-3.21,10.7-4.11C138.61,60.45,114.53,62.57,115.29,65.66Z"/><path class="cls-15" d="M127.1,56.46c.28,3,1.1,5.35,4.11,5.11,2.62-.21,5.1-1.4,3.64-7.15C132.65,50,130.39,51,127.1,56.46Z"/><path class="cls-16" d="M132.21,56.61a5.42,5.42,0,0,1,3.06,1,11.77,11.77,0,0,0-.42-3.15c-2.2-4.42-4.46-3.41-7.75,2a11.86,11.86,0,0,0,.5,2.67A5.56,5.56,0,0,1,132.21,56.61Z"/><path class="cls-17" d="M111.91,53.76c1.78,4.89,13.16,11.35,19.94-1.55,0,0,1.49,9.06,13.61,4.09,12.53-5.15-3-14.86-12.53-9.19C132.93,47.11,106.71,39.45,111.91,53.76Z"/><path class="cls-18" d="M131.8,49.17c0-5.93-20.86-7.7-20.49,1.3C111.59,57.19,131.8,55.75,131.8,49.17Z"/><path class="cls-18" d="M131.67,49.61c0,5.25,23.22,8.21,17.88-1.06C146.58,43.39,131.67,43.78,131.67,49.61Z"/><path class="cls-19" d="M128.36,47.37c1,2.56,4.82,4.47,8.84-.87C135.72,43,127.43,45,128.36,47.37Z"/><path class="cls-20" d="M116.09,41a2.34,2.34,0,1,0-2.54,2.43A2.5,2.5,0,0,0,116.09,41Z"/><path class="cls-20" d="M142.58,41.17a2.34,2.34,0,1,0-2.53,2.44A2.48,2.48,0,0,0,142.58,41.17Z"/><path class="cls-7" d="M39.94,152H30.75S38.47,138.17,39.94,152Z"/><path class="cls-4" d="M75.19,152.32H66S73.73,138.54,75.19,152.32Z"/><path class="cls-4" d="M124.47,152.32H113.05S122.65,138.54,124.47,152.32Z"/><path class="cls-5" d="M135.71,29c-4-1.74-13.48-3.23-18.34.29A82,82,0,0,1,135.71,29Z"/><path class="cls-5" d="M128.62,24.84c-2.94-1.29-9.51-1.73-12.39,2.3A38.88,38.88,0,0,1,128.62,24.84Z"/><path class="cls-9" d="M99.6,102.55c1.49,3,6.29,38.4,6,47.83l-3.47.17L85.53,106.68Z"/><path class="cls-8" d="M99.4,152.32h10.92S101.13,138.54,99.4,152.32Z"/><g class="cls-21"><path class="cls-22" d="M151.56,30.53a62.3,62.3,0,0,0-13.7-22.2s-3.12,7.24-2.45,14.05c-.39-.12-.77-.22-1.16-.32l-.12,0-1.36-.32-.11,0q-.67-.15-1.35-.27l-.11,0c-.45-.08-.89-.16-1.34-.22l-.09,0L128.43,21h-.08L127,20.84h-.07c-.44,0-.89-.06-1.33-.08h0l-1.34,0h0A40.24,40.24,0,0,0,106,24.94c.41-7-5.28-14.61-5.28-14.61C97.4,15.14,91.86,25,91.49,36.49v0c-.12.14-.23.29-.35.44l-.18.24-.32.43-.17.25-.29.42-.18.26-.25.39-.18.27c-.07.13-.15.25-.23.38s-.1.18-.16.27-.14.24-.2.36l-.16.28-.18.34c0,.1-.09.19-.14.29l-.15.32c0,.09-.09.19-.13.28s-.09.21-.14.31l-.11.27c0,.1-.08.2-.11.3s-.07.18-.1.27l-.09.27c0,.1-.06.19-.08.28a2.33,2.33,0,0,0-.07.25,2.68,2.68,0,0,0-.07.27,2,2,0,0,1,0,.24,2.17,2.17,0,0,0,0,.25c0,.08,0,.15,0,.22s0,.17,0,.26a1.23,1.23,0,0,1,0,.19v.26c0,.05,0,.11,0,.16a2,2,0,0,0,0,.26c0,.05,0,.09,0,.14a2,2,0,0,0,.08.35,1.51,1.51,0,0,0,.1.28l0,.06a.85.85,0,0,0,.09.14s0,0,.05.05a.31.31,0,0,0,.11.09l0,0A.52.52,0,0,0,88,47h.23l.14,0,.06,0,.13-.06,0,0,.18-.1h0l.18-.12,0,0a.63.63,0,0,0,.12-.1l.06-.05.1-.09.06-.05.08-.08a1.14,1.14,0,0,1,.11-.11s0,0,0,0a.87.87,0,0,0-.12.14l-.06.07a1.47,1.47,0,0,0-.1.13,5.4,5.4,0,0,0-.41.54l0,0-.19.27a.35.35,0,0,1,0,.08c-.06.09-.12.18-.17.27l0,.09c-.06.1-.12.2-.17.3a.16.16,0,0,0,0,.07,4.85,4.85,0,0,0-.34.78,0,0,0,0,0,0,0c0,.11-.07.23-.1.34s0,.07,0,.1a2.51,2.51,0,0,0,0,.27v.12a1.77,1.77,0,0,0,0,.23.49.49,0,0,1,0,.12l.06.23,0,.1a1.11,1.11,0,0,0,.17.3.83.83,0,0,0,.27.26l.09,0a.86.86,0,0,0,.21.07l.12,0,.21,0,.12,0,.27-.1s0,0,.07,0a3.26,3.26,0,0,0,.34-.22l.08-.05.27-.23.09-.08a3.07,3.07,0,0,0,.26-.25l.07-.07.29-.31h0l-.37.51h0c-.13.18-.25.37-.38.56h0l-.33.51-.08.15-.22.38a1.09,1.09,0,0,0-.08.15,4.26,4.26,0,0,0-.23.49l0,0a3.43,3.43,0,0,0-.13.38l0,.12a2.46,2.46,0,0,0,0,.26v.09a.46.46,0,0,0,.1.26.67.67,0,0,0,.19.14,2.32,2.32,0,0,0,2.35-.53l.09,0c-.17.28-.4.57-.61.86a2.26,2.26,0,0,0-.64,1.27.55.55,0,0,0,0,.18v0a.78.78,0,0,0,.3.47l0,0a1.59,1.59,0,0,0,.32.19c2.16,1,4.53-1,4.53-1a.92.92,0,0,0,.11.11h0c.2.21.71.74,1.5,1.49h0c.32.3.68.63,1.09,1l-.41.59h0c-.14.2-.29.4-.45.61l0,0c-.16.21-.32.43-.5.65h0c-.17.22-.34.43-.53.65l-.05.06c-.18.22-.38.44-.58.67l0,.06-.59.64-.07.07c-.21.22-.43.45-.66.67l-.1.09-.66.63-.08.07c-.24.23-.49.45-.75.67l-.14.12c-.24.2-.49.41-.75.61l-.07.06-.85.64-.17.12-.86.6,0,0c-.31.21-.62.41-1,.6l-.21.13c-.65.39-1.34.76-2.05,1.11l-.25.12-1.1.5h0c-.37.16-.74.3-1.12.45l-.27.1-1.21.41-.12,0c-.38.12-.77.23-1.16.33l-.29.08c-.43.1-.86.21-1.31.3l-.2,0-1.21.22-.31,0c-.46.07-.93.13-1.42.18l-.25,0c-.43,0-.86.07-1.3.09l-.31,0c-.51,0-1,0-1.53,0h-.32l-1.4,0-.3,0c-.54,0-1.09-.08-1.65-.13l-.37,0c-.5,0-1-.12-1.52-.19l-.28,0c-.58-.09-1.18-.19-1.77-.31l-.42-.09c-.55-.11-1.1-.24-1.67-.38l-.24-.06c-.62-.15-1.26-.33-1.9-.52L60.87,69c-.62-.18-1.24-.38-1.87-.59l-.14,0c-.67-.23-1.36-.48-2-.75l-.51-.19c-.7-.28-1.4-.57-2.12-.88-.47-.2-.92-.37-1.37-.52l-.27-.1a12.36,12.36,0,0,0-1.25-.35l-.3-.07c-.37-.08-.73-.15-1.09-.2l-.3,0L49,65.2l-.12-.29-.09-.24a20.57,20.57,0,0,1-.7-2.19.75.75,0,0,1,0-.16q-.12-.48-.21-1c0-.06,0-.11,0-.17A16.91,16.91,0,0,1,47.51,59v-.07c0-.34,0-.69,0-1a.49.49,0,0,0,0-.12,13.08,13.08,0,0,1,.29-2.24v0c.08-.35.17-.71.28-1.07l0-.09A13.38,13.38,0,0,1,49,52.11c1.55-3,4.37-6,8.82-8.85C68,36.79,69.07,23,67.13,18.9c-2.74-5.77-8.47-14.09-15.5-17.28h0A16.65,16.65,0,0,0,49.42.8l-.11,0L48.38.55,48.13.5c-.35-.06-.7-.11-1.06-.15C29.72-1.3,21.15,3.13,12.79,7.9c-.58.33-1.15.67-1.69,1L10.94,9c-.52.32-1,.65-1.51,1l-.2.13c-.47.32-.93.65-1.37,1l-.19.14c-.44.33-.87.66-1.28,1l-.14.12c-.42.35-.81.69-1.19,1L5,13.46a20.37,20.37,0,0,0-3,3.41l0,0c-.26.38-.49.76-.7,1.14l0,.05c-.21.39-.39.77-.55,1.15v0A8.79,8.79,0,0,0,.86,26.5h0a11.54,11.54,0,0,0,.93,1.66c9,13.43,22.08-8.1,35.58-17.25,7-4.73,15.19-4.83,20.7,2.16,2.65,3.36,11,16.17-1.51,26.3-14.82,12-14.21,20.12-12.05,26.41a11.48,11.48,0,0,0-1.39.61l-.08,0a12.64,12.64,0,0,0-1.21.74,17,17,0,0,0-1.64,1h0l0,0,0,0a21.58,21.58,0,0,0-2.88,2.37s0,0,0,0l-.1.09,0,0c-15,15-11.35,54.71-9.57,76.68,0,.69.11,1.36.16,2a1.64,1.64,0,0,0,0,.22c.06.8.12,1.57.17,2.31H39.94c-.47-4.35-1.55-5.95-2.83-6.11,0-.23.08-.47.13-.71l.15-.77c.13-.62.28-1.26.43-1.91l.27-1c.13-.5.27-1,.42-1.51s.23-.78.35-1.18.27-.85.41-1.27c.24-.75.5-1.51.77-2.27.1-.29.2-.57.31-.86.2-.56.41-1.12.63-1.69l.1-.25c.48-1.23,1-2.48,1.54-3.75l.12-.27q1.34-3.11,2.94-6.34,2-4.05,4.34-8.26c.53.3,1.07.58,1.6.86,3.3,13.55,9.28,28.71,12.59,37.74h7.23a.07.07,0,0,1,0-.05h3.76c-.7-6.61-2.85-6.87-4.89-5.36-1-6.91-.67-16,.53-25.13A79.39,79.39,0,0,0,92,123.92l8.87,23.5a10.9,10.9,0,0,0-1.51,4.9h3.5l0,.05h15.46l0-.05h6.07c-.63-4.77-2.19-6.23-4-6.11L134,107a29.18,29.18,0,0,0,7.45-14.44c0-.18.07-.36.09-.54.06-.36.1-.71.14-1.07s0-.44.07-.67.05-.69.06-1l0-.72c0-.34,0-.68,0-1s0-.51,0-.77,0-.67-.07-1-.06-.54-.1-.81-.08-.66-.13-1-.12-.59-.18-.89-.11-.62-.19-.93c-.14-.59-.3-1.17-.48-1.76-.08-.26-.18-.52-.27-.78s-.24-.73-.38-1.1-.22-.55-.34-.83-.29-.7-.45-1.06l-.4-.84-.55-1.07c-.14-.28-.3-.56-.46-.84s-.41-.72-.64-1.08-.33-.55-.51-.82-.5-.76-.76-1.14l-.49-.72.37-.17c10-4.53,21.31-18.11,21.31-18.11s0,0,0-.08c1.94,2,4.74-.68,2.61-4.72,0,0,3.77,7.12,5,5C165.61,50,161.6,38.62,151.56,30.53ZM110.74,142.47l-2.16-21c1.45-.4,2.86-.83,4.25-1.31Z"/></g></g></g></g></svg>