<svg xmlns="http://www.w3.org/2000/svg" xmlns:xlink="http://www.w3.org/1999/xlink" viewBox="0 0 138.98 144.7"><defs><style>.cls-1{mask:url(#mask);filter:url(#luminosity-noclip-2);}.cls-2{mix-blend-mode:multiply;fill:url(#linear-gradient);}.cls-3{isolation:isolate;}.cls-4{fill:#89431b;}.cls-5{fill:#af6837;}.cls-6{fill:#965326;}.cls-7{fill:#703b18;}.cls-8{fill:#a35826;}.cls-9{fill:#bf703a;}.cls-10{fill:#cc8656;}.cls-11{fill:#cc885a;}.cls-12{fill:#875a3c;}.cls-13{fill:#eaa271;}.cls-14{fill:#db9565;}.cls-15{fill:#7c4a2e;}.cls-16{fill:#b56740;}.cls-17{fill:#eac93d;}.cls-18{fill:#93532f;}.cls-19{fill:#66452e;}.cls-20{fill:#e8a070;}.cls-21{fill:#60331d;}.cls-22{mask:url(#mask-2);}.cls-23{opacity:0.6;mix-blend-mode:overlay;fill:url(#linear-gradient-2);}.cls-24{filter:url(#luminosity-noclip);}</style><filter id="luminosity-noclip" x="0" y="-8294.56" width="138.98" height="32766" filterUnits="userSpaceOnUse" color-interpolation-filters="sRGB"><feFlood flood-color="#fff" result="bg"/><feBlend in="SourceGraphic" in2="bg"/></filter><mask id="mask" x="0" y="-8294.56" width="138.98" height="32766" maskUnits="userSpaceOnUse"><g class="cls-24"/></mask><linearGradient id="linear-gradient" x1="69.49" y1="19.55" x2="69.49" y2="133.05" gradientUnits="userSpaceOnUse"><stop offset="0.02" stop-color="#999"/><stop offset="1" stop-color="#fff"/></linearGradient><filter id="luminosity-noclip-2" x="0" y="0" width="138.98" height="144.7" filterUnits="userSpaceOnUse" color-interpolation-filters="sRGB"><feFlood flood-color="#fff" result="bg"/><feBlend in="SourceGraphic" in2="bg"/></filter><mask id="mask-2" x="0" y="0" width="138.98" height="144.7" maskUnits="userSpaceOnUse"><g class="cls-1"><path class="cls-2" d="M139,45.59c-1.46-1.34-7.24-.36-8.77-.07a.88.88,0,0,0,0-.15c.89-.46,3-1.58,4.77-2.67,1.58-1,2.86-1.91,2.68-2.31-.35-.84-3.73,1.55-7.14,3.84.38-1.88.2-3.9-1.16-4.83a2.78,2.78,0,0,0-2.2-.4c-.13-.15-.27-.29-.4-.45l-.12-.16c-.21-.28-.41-.56-.61-.86l-.12-.19c-.21-.34-.41-.69-.6-1.06l-.15-.29c-.17-.34-.34-.7-.51-1.07,0-.06,0-.13-.08-.19-.16-.37-.32-.76-.47-1.15-.05-.13-.1-.27-.16-.41L123.57,32c-.06-.17-.12-.35-.17-.52l-.27-.81-.42-1.39s0,0,0,0c-.48-1.9-1-3.79-1.57-5.52a45.83,45.83,0,0,0-2.71-7.55,9.62,9.62,0,0,0-.83-1.49.41.41,0,0,0-.07-.11l-.13-.2A9.93,9.93,0,0,0,116,12.67l-.41-.39c-.17-.17-.35-.33-.53-.49,1.3-3.89,1.13-5.64-3.7-11.79,0,0-.19.79-.4,2a23.08,23.08,0,0,0-.67,6.61,14,14,0,0,0-7.27-1.37,7.43,7.43,0,0,1,0-3.72,21.44,21.44,0,0,0-7.74,3.78,41.86,41.86,0,0,0-5.18-3.67,28.45,28.45,0,0,0,1.58,6.75c-.31.32-.63.62-1,.95a25.47,25.47,0,0,1-6.67,3.3,7.88,7.88,0,0,0,3.12,1.18c-.64.94-1.26,1.94-1.85,3-2.3,3-5.56,6.69-8,7.2a7.84,7.84,0,0,0,4.77.38c-.07.21-.15.41-.21.62q-.25.81-.48,1.65c-1.54,4.06-4.11,10.15-6.51,12.51A13.42,13.42,0,0,0,79.51,38c-.24,1.45-.47,2.9-.7,4.33l-.12.49h0l-.33,1.29s0,0,0,.06c-.1.4-.22.8-.33,1.19,0,.08-.05.16-.07.24-.1.34-.2.68-.31,1l-.12.36c-.09.29-.19.58-.29.86s-.11.3-.17.45-.17.48-.26.7l-.22.51c-.09.19-.17.38-.25.56s-.19.38-.29.56a3.39,3.39,0,0,1-.2.38,6.25,6.25,0,0,1-.51.81,11.42,11.42,0,0,0,2.14-1.69c-1,4.82-2.32,8.31-4.67,8.73C64.48,56,54.59,52.48,46.46,52l.36,0a18.07,18.07,0,0,0-17.38,6.37,17.68,17.68,0,0,0-10.87,6.09c-5.61,6.55-1.4,23.35-4.9,33.74-.06.19-.13.38-.2.56l-.2.51c-1.8,4.22-5.06,7.17-11.07,7.58h0c-.7,0-1.43.06-2.2,0a3.61,3.61,0,0,0,.3.25h0a13,13,0,0,0,5.23,2.45h0c.41.1.83.18,1.26.26h0c.42.07.84.13,1.27.17h.1c.41,0,.83.07,1.26.08h.17c.4,0,.81,0,1.22,0h.24c.39,0,.78,0,1.17-.07l.32,0c.37,0,.74-.08,1.11-.14l.4-.07c.35-.06.69-.12,1-.2l.48-.12,1-.25.54-.18c.3-.09.59-.18.88-.29l.61-.24.8-.33.65-.32c.24-.12.49-.24.72-.37s.46-.26.69-.4.44-.25.65-.39.47-.32.7-.49l.59-.41.7-.58.52-.44h0c.18-.16.35-.34.53-.51s.31-.3.45-.46.11-.11.16-.16.28-.32.41-.47.3-.34.44-.52l.23-.28.28-.38c.15-.2.29-.4.43-.61l.27-.39.17-.28c.16-.26.31-.53.46-.81s.17-.28.25-.43.13-.28.2-.42c.18-.35.35-.71.51-1.09l.06-.13.21-.56c.12-.31.23-.62.34-.94l.09-.28c.05-.15.09-.32.14-.48q.15-.5.27-1a.43.43,0,0,0,0,0c.08.13.14.26.22.4s.27.52.39.79a2,2,0,0,1,.08.22,7,7,0,0,1,.26.77s0,.07,0,.11c.08.3.14.61.2.92,0,.09,0,.17,0,.25,0,.27.08.54.11.82a1.23,1.23,0,0,1,0,.19c0,.33.05.67.06,1v.26c0,.28,0,.56,0,.85a2.09,2.09,0,0,1,0,.25c0,.35,0,.7-.05,1.06l0,.24c0,.29-.05.58-.08.88,0,.09,0,.18,0,.28,0,.35-.09.71-.14,1.06l0,.17c-.05.31-.11.62-.16.93l-.05.26q-.21,1.08-.45,2.1a1.46,1.46,0,0,0-.05.2c-.17.69-.34,1.35-.52,2a.24.24,0,0,0,0,.08q-.12.42-.24.81c-1.44,2.71-3,3.44-1.86,6.31,6.84,16.79,1.09,21,4.69,21.58l.32,0a19.91,19.91,0,0,0-.11,5.5h11s-2.3-4.72-5.08-7.22a2.65,2.65,0,0,0,.3-2.53c-2.77-6.47-6.54-13.94-1.08-24.39a79.48,79.48,0,0,0,8.84-5.77A40.94,40.94,0,0,1,45.39,113c-1.44,2.57-3,3.27-1.86,6,6.84,16,1.09,20,4.69,20.5l.32,0a18,18,0,0,0-.11,5.22h11a26.94,26.94,0,0,0-5.09-6.86,2.4,2.4,0,0,0,.3-2.4c-2.77-6.14-6.54-13.25-1.08-23.17a81,81,0,0,0,10.57-6.75,44,44,0,0,0,17.39,1.81,27.67,27.67,0,0,0,4.11,6.1,4.56,4.56,0,0,0-.78,4.07c1.47,3.93,2.25,12.66.65,15.85-1.11,2.24-.52,4.18.83,5a22,22,0,0,0-.26,6.33h9.19a29.26,29.26,0,0,0-4.17-7.15,2.06,2.06,0,0,0,.7-2.42c-3-5.62-2.34-14.35-1.22-15.94s1.22-3.47.19-6v0A33.35,33.35,0,0,0,94,109.23a22.73,22.73,0,0,0,2.16,3.87,3.8,3.8,0,0,0,.12,1.61c1.35,3.94,1,13.67-.27,17.14-1,2.69-.07,4.25,1.68,4.62-1.33,2.25-.77,7.5-.77,7.5h8.9s-2.5-6.2-5.19-8a2.72,2.72,0,0,0,1-3.55c-3.77-5.42-.86-14.41.31-16s1.29-3.22.55-5.48c3.4-5.37,7.35-14.84,9.64-21,7.67-12.5,3.51-27.27.73-34.29a46.9,46.9,0,0,0,3.71-3.75,7.91,7.91,0,0,0,6.26,1.89c3.83-.51,6.6-2.64,5.4-5.24a6,6,0,0,0,1.07-1.09.16.16,0,0,0,0-.07C133.79,46.33,139,45.59,139,45.59ZM111,51.5l-.31-.67c2.06-.6,3.87-1.34,3.87-1.34s-1.6,1.13-3.33,2.46Zm-.92-2-.58-1.28,0,0-4.1-9.28c2.37,1.41,4.75,2.61,6.76,3.62-.44,2.15,0,5.24.34,5.43.47.32.94.59,1.4.85C112.68,49.09,111.32,49.29,110.06,49.47Zm2.18,4.7-.43-1c1.14-.9,2.36-1.88,3.51-2.77.09.14.19.29.3.43A46.42,46.42,0,0,0,112.24,54.17Z"/></g></mask><linearGradient id="linear-gradient-2" x1="69.49" y1="19.55" x2="69.49" y2="133.05" gradientUnits="userSpaceOnUse"><stop offset="0.02" stop-color="#ffd995"/><stop offset="1" stop-color="#5c0028"/></linearGradient></defs><g class="cls-3"><g id="Calque_2" data-name="Calque 2"><g id="Calque_1-2" data-name="Calque 1"><path class="cls-4" d="M96.88,144h8.9s-3.45-8.6-6.63-8.51S96.88,144,96.88,144Z"/><path class="cls-5" d="M103.07,3.55c-3.25.69-7.95,3.17-12.29,7.81a25.47,25.47,0,0,1-6.67,3.3,7.88,7.88,0,0,0,3.12,1.18c-.64.94-1.26,1.94-1.85,3-2.3,3-5.56,6.69-8,7.2a7.84,7.84,0,0,0,4.77.38c-.07.21-.15.41-.21.62q-.25.81-.48,1.65c-1.54,4.06-4.11,10.15-6.51,12.51A13.42,13.42,0,0,0,79.51,38c-.24,1.45-.47,2.9-.7,4.33-.87,3.61-2.06,7.5-3.49,9.47a11.42,11.42,0,0,0,2.14-1.69c-1.11,5.3-2.58,9-5.39,8.77,1.41,4.64,10.06,6,15.55.78s-5.07-33.49,17.73-46.85C105.35,12.81,101.89,7.29,103.07,3.55Z"/><path class="cls-6" d="M78.69,42.82c-.86,3.47-2,7.1-3.37,9a11.42,11.42,0,0,0,2.14-1.69c-1.11,5.3-2.58,9-5.39,8.77,1.41,4.64,10.06,6,15.55.78,3.11-2.94,1.08-13.29,2.86-24.13A41.37,41.37,0,0,1,78.69,42.82Z"/><path class="cls-6" d="M105.07,13c.1-.06.18-.12.28-.17l-.18-.31C105.13,12.66,105.1,12.82,105.07,13Z"/><path class="cls-5" d="M0,106.8c8.25,7.51,36.7,3.34,30.39-27.2C28,67.78,35.08,58.4,41.46,59.52c0,0-10.4-5.8-21.76,4.88C10.32,73.22,24,107.55,0,106.8Z"/><path class="cls-6" d="M1.29,106.79h0Z"/><path class="cls-6" d="M21.07,64.05c7.23-7.61,13-4.77,17.13-4.22a6.39,6.39,0,0,1,3.26-.31s-13.89-5.64-22.89,4.86c-8.2,9.58,4.59,41-16.38,42.39C26.32,105.21,13,72.55,21.07,64.05Z"/><path class="cls-6" d="M34,58c-7.42-.54-15.25,8.42-12.67,18.42,6.12,23.69-10.8,34.16-21,30.67,8.61,7.15,36.32,2.74,30.09-27.45C28,67.78,35.08,58.4,41.46,59.52A16,16,0,0,0,34,58Z"/><path class="cls-7" d="M34,58c-24.92,12.71.66,32.2-9.35,46.71,5.17-4.7,8.3-12.73,5.75-25.07C28,67.78,35.08,58.4,41.46,59.52A16,16,0,0,0,34,58Z"/><path class="cls-4" d="M48.43,144.7h11s-4.29-8.37-8.23-8.28S48.43,144.7,48.43,144.7Z"/><path class="cls-8" d="M44.18,116.36c10.7-3.2,38.47-19.42,35.09-36.89S50,44.45,40.62,72c-1.88,5.52,2.05,19.71,5.44,25.3C49.62,103.18,44.18,116.36,44.18,116.36Z"/><path class="cls-8" d="M54.69,135.44c-3.37-7.49-8.25-16.4,3.94-30.13l-11.91,4.1c-1.32,5.88-4.77,5.86-3.19,9.54,6.84,16,1.09,20,4.69,20.5C53.75,140.25,55.54,137.31,54.69,135.44Z"/><path class="cls-8" d="M89.2,91.91c.37,6.21,4.65,20.26,8.54,22.88s14.7-24.84,16.09-30C115.19,79.74,89.2,91.91,89.2,91.91Z"/><path class="cls-8" d="M98.87,136.54c-2.47.18-4.14-1.42-2.9-4.69,1.31-3.47,1.62-13.2.27-17.14-.52-1.51.08-4.23,2.9-5.84,1.81-1,2.19-1,3.14,1.51s.81,4.42-.37,6-4.08,10.59-.31,16C102.5,133.71,101.51,136.35,98.87,136.54Z"/><path class="cls-9" d="M30.49,68c1.5,22.91,35.27,52.18,68.67,33.77C129.27,85.13,111,51.5,111,51.5L94.37,14.78C74.53,43.06,89.73,64.17,77.49,60.37,59.75,54.86,28.8,42.22,30.49,68Z"/><path class="cls-10" d="M30.49,68C32,90.88,61,116.38,94.57,98.21c24-13,13.17-45.33,13.17-45.33L94.37,14.78C74.53,43.06,89.73,64.17,77.49,60.37,59.75,54.86,28.8,42.22,30.49,68Z"/><path class="cls-8" d="M109.53,48.21c-11.12-5.62-16.17-13-16-26.41l8.08,8.41Z"/><path class="cls-11" d="M78.19,92c.42,6.61,5.07,20.4,9.15,22.8S104.79,91,106.9,85.56,78.19,92,78.19,92Z"/><path class="cls-12" d="M86.12,144.7h9.19s-3.56-8.82-6.85-8.72S86.12,144.7,86.12,144.7Z"/><path class="cls-12" d="M33.14,144.7h11S39.9,135.88,36,136,33.14,144.7,33.14,144.7Z"/><path class="cls-11" d="M28.89,114.87C39.59,111.49,67.36,94.42,64,76s-29.3-36.87-38.65-7.89C23.45,74,27.38,88.9,30.77,94.8,34.33,101,28.89,114.87,28.89,114.87Z"/><path class="cls-11" d="M39.4,135c-3.38-7.88-8.25-17.26,3.94-31.71l-11.91,4.31c-1.32,6.2-4.77,6.16-3.19,10,6.84,16.79,1.09,21,4.69,21.58C38.46,140,40.24,136.92,39.4,135Z"/><path class="cls-11" d="M88.18,138.79c-2.47.18-4.17-2.36-2.63-5.44s.82-11.92-.65-15.85c-.56-1.5-.05-4.21,2.72-5.82,1.78-1,2.16-1,3.19,1.5s.94,4.41-.19,6-1.78,10.32,1.22,15.94C92.59,136.54,90.81,138.6,88.18,138.79Z"/><path class="cls-11" d="M114.63,13.15c1.76-4.93,2.12-6.33-3.23-13.15,0,0-2,8.21-.25,12.94Z"/><path class="cls-13" d="M113.24,12.8C115,7.87,115.08,6.93,111.32.88c0,0-2.16,6.33-.17,12.06Z"/><path class="cls-14" d="M97.47,15.06c-4.79-2.11-6-2.82-7.32-11.4,0,0,7.32,4.22,9.57,8.72Z"/><path class="cls-11" d="M115.34,44.19c-3.71-2.1-11.69-5.37-16.77-10.31C93,28.41,90.57,21,94.94,13.79,103.24,0,116,12.67,116,12.67,122,18.58,122,35.6,128.57,40.25,128.57,40.25,123.08,48.55,115.34,44.19Z"/><path class="cls-10" d="M119,17.41C115.16,8.46,97.82-.7,93.7,18.92c.09,10,20.65,22.45,24.41,24.56,7.74,4.36,10.46-3.23,10.46-3.23C123.29,36.54,122.22,24.94,119,17.41Z"/><path class="cls-14" d="M119,17.67c-2-8.62-21.67-18.83-25.79.79.09,10,21.2,22.89,25,25C129.45,49.92,122.17,25.21,119,17.67Z"/><path class="cls-11" d="M102.45,20.55c-.13,3.62,8.37,14.62,13.87,13.37S120,19.55,118.57,16.8C118.57,16.8,104.57,17.92,102.45,20.55Z"/><path class="cls-14" d="M116.41,43.88s-8-13.83-1.84-15.33,11.67,12.83,11.67,12.83Z"/><path class="cls-15" d="M114.64,48.55c.28,2.81,3.94,5.77,8.16,5.2s7.17-3.09,4.92-6Z"/><path class="cls-16" d="M116.76,49c.17,2.14,2.82,4.43,5.92,4s5.3-2.27,3.69-4.55Z"/><path class="cls-17" d="M128.71,45.45c3.94-2.53,8.58-6.05,9-5.06s-7.88,5.2-7.88,5.2,7.46-1.55,9.15,0c0,0-5.91.85-10.55,2Z"/><path class="cls-17" d="M116.7,49.39c-3.78,2.77-9.19,7.64-9.67,6.69s7.51-6.59,7.51-6.59-7.6,3.13-9.38,1.68,6.13-1.42,10.7-2.83Z"/><path class="cls-17" d="M117.35,49.4c-3.31,2.63-7.92,7.41-6.74,7.51,1.69.14,7.69-7.07,7.69-7.07Z"/><path class="cls-18" d="M112.53,48c-.48-.3-1.39-7.83,1.54-7.45,9.85,1.26,12.67-3,15.34-1.13,2.26,1.54,1.27,6.05-.14,8S121.39,53.75,112.53,48Z"/><path class="cls-19" d="M108.81,22.65a2,2,0,0,1,2.09,1,2,2,0,0,0,0-.35,1.92,1.92,0,0,0-2.27-1.62,2.16,2.16,0,0,0-2,2.19,1.79,1.79,0,0,0,.18.62A2.22,2.22,0,0,1,108.81,22.65Z"/><path class="cls-19" d="M117.07,20.93a2.53,2.53,0,0,1,2.18,1.36,2.36,2.36,0,0,0,0-.37,2.52,2.52,0,0,0-2.41-2.05,1.72,1.72,0,0,0-1.77,2.05,2,2,0,0,0,.23.68A1.71,1.71,0,0,1,117.07,20.93Z"/><path class="cls-14" d="M104.07,91.38c17.17-30.67-12.5-51.17-19.88-53-2.9,15.35,1.77,24.66-6.7,22C65.55,56.66,48,49.17,38.07,52.88c-6.28,1.6-18.5,11.67-11.17,31.82C44.25,95.92,93.93,109.51,104.07,91.38Z"/><path class="cls-9" d="M63.41,82.71c-2.12,4.1-7.17,13.74-10.59,17.35l5.25,2.65C63.07,96.05,64.57,86.21,63.41,82.71Z"/><path class="cls-14" d="M28.89,114.87C39.59,111.49,67.36,94.42,64,76s-29.3-36.87-38.65-7.89C23.45,74,27.38,88.9,30.77,94.8,34.33,101,28.89,114.87,28.89,114.87Z"/><path class="cls-14" d="M78.24,93.38c-1.52,6.18,5,19.05,9.1,21.45S104.79,91,106.9,85.56,81.07,81.88,78.24,93.38Z"/><path class="cls-9" d="M99.32,90.3c1.88,4.25,1.75,8.87-.87,12C103.7,98.3,104.57,94.8,99.32,90.3Z"/><path class="cls-20" d="M77.49,60.37C65.55,56.66,48,49.17,38.07,52.88c-6.09,1.55-17.74,11-11.8,30a57.53,57.53,0,0,0,19.18,3.21c24,0,43.37-13.94,43.37-31.13a24.3,24.3,0,0,0-5-14.48C81.71,54.53,85.56,62.87,77.49,60.37Z"/><path class="cls-9" d="M96.56,13.81c-3.07-1.68-4.15-2.76-5.07-7.38,0,0,5.07,2.74,6.64,5.65Z"/><path class="cls-20" d="M102.45,21.67c2.34-2.29,14.43-5,16.68-3.81-1.64-3.9-3.67-7.35-10.22-6.48C103,12.21,101.34,17.76,102.45,21.67Z"/><path class="cls-16" d="M113.7,42.11c.93-1.31,8.37.37,9.31,1.94s1.5,4.31-.94,5.25S109.83,47.53,113.7,42.11Z"/><path class="cls-16" d="M118.7,48.73c-1.85-.88,6.8-9,8.62-9s3.13,2.16,2.63,4.72S123.51,51.05,118.7,48.73Z"/><path class="cls-21" d="M116.88,46.86c-1.62-1.75-2.68-3.44-1.68-3.88s4.18,2.63,4.18,2.63Z"/><path class="cls-21" d="M125.26,44.64c.21-2.38,1.66-4,2.65-3.59s-.62,4.39-.62,4.39Z"/><path class="cls-5" d="M16.24,106c5.41-2.05,9.59-8,7.08-13.86C22.38,97.75,20.82,101.21,16.24,106Z"/><path class="cls-10" d="M29.81,112.23c1.9-4.54,4.41-12,2.58-16.5-2.62-6.47-4.65-22.28-2.06-28C34.76,57.89,41.25,52,46.82,51.92c-16.37-3-31.45,16.13-16,42.88C33.37,99.31,31.18,107.9,29.81,112.23Z"/><path class="cls-14" d="M86.82,119.13c1.71,1.21,5.75-2.17,3.25-7.42l-2.91-.16S83.41,116.71,86.82,119.13Z"/><path class="cls-14" d="M29.27,117.26c1.17,1.74,6.15,0,5.67-5.78l-2.67-1.19S26.94,113.8,29.27,117.26Z"/><path class="cls-20" d="M80.4,92c3.64-6,9.83-1.36,10.34,2.36.83,6-1.83,12.86-4.75,13C83.77,107.44,76.53,98.36,80.4,92Z"/><g class="cls-22"><path class="cls-23" d="M139,45.59c-1.46-1.34-7.24-.36-8.77-.07a.88.88,0,0,0,0-.15c.89-.46,3-1.58,4.77-2.67,1.58-1,2.86-1.91,2.68-2.31-.35-.84-3.73,1.55-7.14,3.84.38-1.88.2-3.9-1.16-4.83a2.78,2.78,0,0,0-2.2-.4c-.13-.15-.27-.29-.4-.45l-.12-.16c-.21-.28-.41-.56-.61-.86l-.12-.19c-.21-.34-.41-.69-.6-1.06l-.15-.29c-.17-.34-.34-.7-.51-1.07,0-.06,0-.13-.08-.19-.16-.37-.32-.76-.47-1.15-.05-.13-.1-.27-.16-.41L123.57,32c-.06-.17-.12-.35-.17-.52l-.27-.81-.42-1.39s0,0,0,0c-.48-1.9-1-3.79-1.57-5.52a45.83,45.83,0,0,0-2.71-7.55,9.62,9.62,0,0,0-.83-1.49.41.41,0,0,0-.07-.11l-.13-.2A9.93,9.93,0,0,0,116,12.67l-.41-.39c-.17-.17-.35-.33-.53-.49,1.3-3.89,1.13-5.64-3.7-11.79,0,0-.19.79-.4,2a23.08,23.08,0,0,0-.67,6.61,14,14,0,0,0-7.27-1.37,7.43,7.43,0,0,1,0-3.72,21.44,21.44,0,0,0-7.74,3.78,41.86,41.86,0,0,0-5.18-3.67,28.45,28.45,0,0,0,1.58,6.75c-.31.32-.63.62-1,.95a25.47,25.47,0,0,1-6.67,3.3,7.88,7.88,0,0,0,3.12,1.18c-.64.94-1.26,1.94-1.85,3-2.3,3-5.56,6.69-8,7.2a7.84,7.84,0,0,0,4.77.38c-.07.21-.15.41-.21.62q-.25.81-.48,1.65c-1.54,4.06-4.11,10.15-6.51,12.51A13.42,13.42,0,0,0,79.51,38c-.24,1.45-.47,2.9-.7,4.33l-.12.49h0l-.33,1.29s0,0,0,.06c-.1.4-.22.8-.33,1.19,0,.08-.05.16-.07.24-.1.34-.2.68-.31,1l-.12.36c-.09.29-.19.58-.29.86s-.11.3-.17.45-.17.48-.26.7l-.22.51c-.09.19-.17.38-.25.56s-.19.38-.29.56a3.39,3.39,0,0,1-.2.38,6.25,6.25,0,0,1-.51.81,11.42,11.42,0,0,0,2.14-1.69c-1,4.82-2.32,8.31-4.67,8.73C64.48,56,54.59,52.48,46.46,52l.36,0a18.07,18.07,0,0,0-17.38,6.37,17.68,17.68,0,0,0-10.87,6.09c-5.61,6.55-1.4,23.35-4.9,33.74-.06.19-.13.38-.2.56l-.2.51c-1.8,4.22-5.06,7.17-11.07,7.58h0c-.7,0-1.43.06-2.2,0a3.61,3.61,0,0,0,.3.25h0a13,13,0,0,0,5.23,2.45h0c.41.1.83.18,1.26.26h0c.42.07.84.13,1.27.17h.1c.41,0,.83.07,1.26.08h.17c.4,0,.81,0,1.22,0h.24c.39,0,.78,0,1.17-.07l.32,0c.37,0,.74-.08,1.11-.14l.4-.07c.35-.06.69-.12,1-.2l.48-.12,1-.25.54-.18c.3-.09.59-.18.88-.29l.61-.24.8-.33.65-.32c.24-.12.49-.24.72-.37s.46-.26.69-.4.44-.25.65-.39.47-.32.7-.49l.59-.41.7-.58.52-.44h0c.18-.16.35-.34.53-.51s.31-.3.45-.46.11-.11.16-.16.28-.32.41-.47.3-.34.44-.52l.23-.28.28-.38c.15-.2.29-.4.43-.61l.27-.39.17-.28c.16-.26.31-.53.46-.81s.17-.28.25-.43.13-.28.2-.42c.18-.35.35-.71.51-1.09l.06-.13.21-.56c.12-.31.23-.62.34-.94l.09-.28c.05-.15.09-.32.14-.48q.15-.5.27-1a.43.43,0,0,0,0,0c.08.13.14.26.22.4s.27.52.39.79a2,2,0,0,1,.08.22,7,7,0,0,1,.26.77s0,.07,0,.11c.08.3.14.61.2.92,0,.09,0,.17,0,.25,0,.27.08.54.11.82a1.23,1.23,0,0,1,0,.19c0,.33.05.67.06,1v.26c0,.28,0,.56,0,.85a2.09,2.09,0,0,1,0,.25c0,.35,0,.7-.05,1.06l0,.24c0,.29-.05.58-.08.88,0,.09,0,.18,0,.28,0,.35-.09.71-.14,1.06l0,.17c-.05.31-.11.62-.16.93l-.05.26q-.21,1.08-.45,2.1a1.46,1.46,0,0,0-.05.2c-.17.69-.34,1.35-.52,2a.24.24,0,0,0,0,.08q-.12.42-.24.81c-1.44,2.71-3,3.44-1.86,6.31,6.84,16.79,1.09,21,4.69,21.58l.32,0a19.91,19.91,0,0,0-.11,5.5h11s-2.3-4.72-5.08-7.22a2.65,2.65,0,0,0,.3-2.53c-2.77-6.47-6.54-13.94-1.08-24.39a79.48,79.48,0,0,0,8.84-5.77A40.94,40.94,0,0,1,45.39,113c-1.44,2.57-3,3.27-1.86,6,6.84,16,1.09,20,4.69,20.5l.32,0a18,18,0,0,0-.11,5.22h11a26.94,26.94,0,0,0-5.09-6.86,2.4,2.4,0,0,0,.3-2.4c-2.77-6.14-6.54-13.25-1.08-23.17a81,81,0,0,0,10.57-6.75,44,44,0,0,0,17.39,1.81,27.67,27.67,0,0,0,4.11,6.1,4.56,4.56,0,0,0-.78,4.07c1.47,3.93,2.25,12.66.65,15.85-1.11,2.24-.52,4.18.83,5a22,22,0,0,0-.26,6.33h9.19a29.26,29.26,0,0,0-4.17-7.15,2.06,2.06,0,0,0,.7-2.42c-3-5.62-2.34-14.35-1.22-15.94s1.22-3.47.19-6v0A33.35,33.35,0,0,0,94,109.23a22.73,22.73,0,0,0,2.16,3.87,3.8,3.8,0,0,0,.12,1.61c1.35,3.94,1,13.67-.27,17.14-1,2.69-.07,4.25,1.68,4.62-1.33,2.25-.77,7.5-.77,7.5h8.9s-2.5-6.2-5.19-8a2.72,2.72,0,0,0,1-3.55c-3.77-5.42-.86-14.41.31-16s1.29-3.22.55-5.48c3.4-5.37,7.35-14.84,9.64-21,7.67-12.5,3.51-27.27.73-34.29a46.9,46.9,0,0,0,3.71-3.75,7.91,7.91,0,0,0,6.26,1.89c3.83-.51,6.6-2.64,5.4-5.24a6,6,0,0,0,1.07-1.09.16.16,0,0,0,0-.07C133.79,46.33,139,45.59,139,45.59ZM111,51.5l-.31-.67c2.06-.6,3.87-1.34,3.87-1.34s-1.6,1.13-3.33,2.46Zm-.92-2-.58-1.28,0,0-4.1-9.28c2.37,1.41,4.75,2.61,6.76,3.62-.44,2.15,0,5.24.34,5.43.47.32.94.59,1.4.85C112.68,49.09,111.32,49.29,110.06,49.47Zm2.18,4.7-.43-1c1.14-.9,2.36-1.88,3.51-2.77.09.14.19.29.3.43A46.42,46.42,0,0,0,112.24,54.17Z"/></g></g></g></g></svg>