<svg xmlns="http://www.w3.org/2000/svg" xmlns:xlink="http://www.w3.org/1999/xlink" viewBox="0 0 131.03 152.23"><defs><style>.cls-1{mask:url(#mask);filter:url(#luminosity-noclip-2);}.cls-2{mix-blend-mode:multiply;fill:url(#linear-gradient);}.cls-3{isolation:isolate;}.cls-4{fill:#7c4c25;}.cls-5{fill:#603719;}.cls-6{fill:#8c3f2d;}.cls-7{fill:#6d2b1d;}.cls-8{fill:#a3602e;}.cls-9{fill:#b2713b;}.cls-10{fill:#efb27f;}.cls-11{fill:#d89766;}.cls-12{fill:#ffdc4a;}.cls-13{fill:#e8a334;}.cls-14{fill:#ff9864;}.cls-15{fill:#f78b5c;}.cls-16{fill:#ef7b48;}.cls-17{fill:#bf753d;}.cls-18{fill:#a04330;}.cls-19{fill:#d15b47;}.cls-20{fill:#bf755e;}.cls-21{fill:#995d30;}.cls-22{fill:#563c28;}.cls-23{fill:#773022;}.cls-24{fill:#c67d46;}.cls-25{fill:#ce542e;}.cls-26{mask:url(#mask-2);}.cls-27{opacity:0.6;mix-blend-mode:overlay;fill:url(#linear-gradient-2);}.cls-28{filter:url(#luminosity-noclip);}</style><filter id="luminosity-noclip" x="0" y="-7648.4" width="131.02" height="32766" filterUnits="userSpaceOnUse" color-interpolation-filters="sRGB"><feFlood flood-color="#fff" result="bg"/><feBlend in="SourceGraphic" in2="bg"/></filter><mask id="mask" x="0" y="-7648.4" width="131.02" height="32766" maskUnits="userSpaceOnUse"><g class="cls-28"/></mask><linearGradient id="linear-gradient" x1="65.51" y1="17" x2="65.51" y2="159.53" gradientUnits="userSpaceOnUse"><stop offset="0" stop-color="#999"/><stop offset="1" stop-color="#fff"/></linearGradient><filter id="luminosity-noclip-2" x="0" y="0" width="131.02" height="152.23" filterUnits="userSpaceOnUse" color-interpolation-filters="sRGB"><feFlood flood-color="#fff" result="bg"/><feBlend in="SourceGraphic" in2="bg"/></filter><mask id="mask-2" x="0" y="0" width="131.02" height="152.23" maskUnits="userSpaceOnUse"><g class="cls-1"><path class="cls-2" d="M128.32,54.9l.3-.56.1-.2.25-.49c.05-.09.09-.17.13-.26s.15-.3.22-.45.09-.18.13-.28l.19-.4c0-.11.09-.21.13-.3s.11-.25.16-.38a2.88,2.88,0,0,0,.13-.31c.05-.11.09-.22.14-.34l.12-.31c0-.1.07-.2.11-.31l.11-.3.09-.28.09-.29c0-.09.05-.17.07-.25s.05-.19.07-.28a1.74,1.74,0,0,0,0-.22c0-.09,0-.17.05-.25l0-.19a1.94,1.94,0,0,0,0-.24.71.71,0,0,0,0-.15,1.61,1.61,0,0,0,0-.22.34.34,0,0,0,0-.1,1,1,0,0,0-.06-.26c-.83-2.13-3.75-1.64-8.59-1.6-6.43-3.12-18.49-6.47-27.19-13.3C95.8,11.52,88.23,7.58,84,5.84c-2.44-1-4.39.21-6.89,1.38A16.71,16.71,0,0,1,78,1.29c.71-2-1.32-2.35-3.28,4.33s.17-2.16-1-2.1-.83,4.87-2.35,4,1.55-4-.08-4.3-1.65,4.65-2.76,3.9S72-5,66,7.52a3.93,3.93,0,0,0-2-1.38c-.46-.34-1.38-.34-3,.23-.29.11-.57.19-.85.27h0c-.27.07-.55.13-.82.18-8,1.4-15.46-6.67-18.3,4C37.83,23,35.37,34.12,33.83,43.07A103.31,103.31,0,0,0,32,57.84c-.14,3,0,5.22.48,6.34,1.83,4.4,16.59,8,22.29-2.54,1.6-3,2.33-7.82,2.68-13.33,1.6,3.49,3.4,6.88,5.16,10.06l1.09,2.22c0-.1,0-.21,0-.3,1.53,2.71,3,5.24,4.24,7.5.85,1.53,1.56,2.92,2.15,4.21-2.23-.55-3.91-.79-4.43-.44a5.44,5.44,0,0,0-1.75,3c-1.23.14-3,.43-3.24,1s1.22,1.74,2.74,2.28A5.27,5.27,0,0,0,64,81c.45.59,3.82,1,7.89,1.33,0,0,0,0,0,.06a11.2,11.2,0,0,1-1,2.63c-6,8.16-11.86,11.57-19.09,19.81-.45.4-.88.8-1.31,1.2a22,22,0,0,0-11.07,7.53c-6.89,7.33-8,17.45-7.4,26.19-29.59,4.38-18.89-38.63-9.28-49.32l-.78-1c-28.11,26-33.74,69.33,10.56,54.86.45,3,1,5.8,1.59,8H68.84s0,0,0-.08l11,0,0,.06h21.85c.14-6.17-6.57-6.44-6.57-6.44-5.49-11.38-4.44-28.61-3.65-36.86a14.24,14.24,0,0,0,1.64-2.63,1.64,1.64,0,0,0,.11-.41s0-.08,0-.13,0-.24,0-.36a.66.66,0,0,1,0-.14c0-.17,0-.34-.07-.53l0-.09c0-.17-.08-.33-.13-.51L93,104c0-.16-.11-.33-.18-.5s0-.1-.05-.14c-.09-.22-.19-.44-.3-.67a1,1,0,0,0-.07-.15c-.05-.11-.1-.22-.16-.33a53.42,53.42,0,0,0-3.37-8.08c-.31-.7-.59-1.35-.86-2L88,92l.89,0c.65,0,1.32-.09,2-.18h0l.93-.16.28,0c.21,0,.43-.09.63-.15a3.37,3.37,0,0,0,.34-.09l.55-.16.34-.12.51-.2.33-.15.48-.25.29-.17A5.78,5.78,0,0,0,96,90l.23-.17a5.67,5.67,0,0,0,.62-.58h0a5.78,5.78,0,0,0,.53-.67l.14-.25c.1-.17.2-.35.29-.54s.08-.22.13-.33.13-.37.18-.56a2.59,2.59,0,0,0,.09-.4,6.17,6.17,0,0,0,.11-.62c0-.15,0-.29,0-.44s0-.47,0-.72,0-.3,0-.46,0-.58-.09-.88,0-.29-.05-.44c-.08-.46-.17-.94-.31-1.45a29.21,29.21,0,0,0-1.26-3.72c3.94.57,4.85-.19,4.76-.54,1.42-1.27-2.24-4.63-7.13-9-.43-.56-1-1.27-1.65-2.1a49.35,49.35,0,0,0,15.62,6.22h0l.5.07.37.05.46,0,.36,0,.39,0c.22,0,.44,0,.63,0l.22,0,.39,0,.21,0a1.78,1.78,0,0,0,.33-.09l.14,0a2.12,2.12,0,0,0,.37-.19,36.1,36.1,0,0,0,7.52-7.45l.31-.16,0,0c.16-.08.32-.18.48-.28l0,0c.16-.1.32-.22.48-.34l0,0,.49-.4,0,0,.5-.45,0,0,.5-.5h0A36.26,36.26,0,0,0,128.25,55,.75.75,0,0,0,128.32,54.9ZM71.13,146.06a25.2,25.2,0,0,0,4.5-6.29c.57,1.74,1.13,3.4,1.64,4.91A34.41,34.41,0,0,0,71.13,146.06Zm17.45.79A9.09,9.09,0,0,0,85,145.79a75.12,75.12,0,0,1-4.7-17.35A45.7,45.7,0,0,0,81.93,120l.57-.67C83.57,127.38,86.7,139.8,88.58,146.85Z"/></g></mask><linearGradient id="linear-gradient-2" x1="65.51" y1="17" x2="65.51" y2="159.53" gradientUnits="userSpaceOnUse"><stop offset="0" stop-color="#ffcb97"/><stop offset="1" stop-color="#0f002b"/></linearGradient></defs><g class="cls-3"><g id="Calque_2" data-name="Calque 2"><g id="Calque_1-2" data-name="Calque 1"><path class="cls-4" d="M91.92,104.21c.28.39-4.16,26.29,3.22,41.58,0,0,6.71.27,6.57,6.44H90S80,116.68,82.53,112,87.76,98.44,91.92,104.21Z"/><path class="cls-4" d="M53.34,152.13c-5.55-17.35-6-42.54,16.24-46.09s9.49,32.79,1.55,40c0,0,18-6.11,13.15,6.11Z"/><path class="cls-4" d="M68.58,8.65C76.63,9.86,79.45,4,84,5.84s13,6.3,10.86,31.79S68.58,8.65,68.58,8.65Z"/><path class="cls-5" d="M82.69,18.32c.54-1.57,2.56-6.45,5.12-5.56s4.93,19,3.33,19.83S81.84,20.85,82.69,18.32Z"/><path class="cls-6" d="M79.72,69.69c8.4,4.11,19.85,8.58,21.46,7.68C105.69,74.87,81.1,60.56,77.57,48c-1.78-6.3-11.63-4.65-8,9.31S79.72,69.69,79.72,69.69Z"/><path class="cls-7" d="M95.31,69.5c-1.87,2.75-24.62-5.5-25.5-13.75s-2.37-11,2-11.12S95.31,69.5,95.31,69.5Z"/><path class="cls-8" d="M79.21,14.8A16.59,16.59,0,0,1,78,1.29c.71-2-1.32-2.35-3.28,4.33s.17-2.16-1-2.1-.83,4.87-2.35,4,1.55-4-.08-4.3-1.65,4.65-2.76,3.9S72.29-5.81,65.36,8.9Z"/><path class="cls-9" d="M34.38,151.49c.53-37,9.92-38.9,23.61-52.58S76.5,83.35,67.91,67.79s-27.65-44-5.63-57.41C76,2.06,82.3,21.82,94.2,31.84s31.3,12.88,32.55,17.71c1,3.89-5.54,16.45-14.13,22.53C109,74.66,81.77,65.37,75.78,47.4c-1.25-3.76-5,4.11-3.58,8.94,4,13.51,29.2,20.84,29.2,20.84.13.38-1,1.34-6.44.26-9.88-1.94-14.24-1.91-6.12,16.64,1.25,2.86,5.59,10.21,3,14.13-2.69,4.11-25.22,25.21-25.58,43.1Z"/><path class="cls-8" d="M81.1,79.5c-3.58-.72-8.33-11.5,5.84-7.33S88.94,81.09,81.1,79.5Z"/><path class="cls-4" d="M80.1,97.67s1.34,8.33.42,13.75l-3,.92S79.1,98.84,80.1,97.67Z"/><path class="cls-8" d="M67.81,13.75c-6,20.42-4.54,37.84-4.12,46.84l-11.25-23S50.35,3.28,67.81,13.75Z"/><path class="cls-8" d="M87.12,76.79c-4.55-.59-16.18,0-15.35,5.13.45,2.78,7,6.53,14.85,13,2.43,2,3.81,9.41,1.26,13.33-2.69,4.11-25.22,25.21-25.58,43.1l-27.92.15v0l31.92-.18c.36-17.89,22.89-39,25.58-43.1,2.55-3.92-1.79-11.27-3-14.13C83.45,81.78,83.56,77.63,87.12,76.79Z"/><path class="cls-8" d="M126.75,49.55c-1.25-4.83-20.62-7.66-32.55-17.71C83.62,22.93,78,6,66.57,8.61,75.11,10.5,81,24.08,90.2,31.84c11.93,10.05,31.3,12.88,32.55,17.71,1,3.89-5.54,16.45-14.13,22.53a1.94,1.94,0,0,1-.38.2c2.11.35,3.68.3,4.38-.2C121.21,66,127.76,53.44,126.75,49.55Z"/><path class="cls-4" d="M64.67,124.64c4-7.66,3.84-15.6-.26-17.72s-10.66,2.36-14.62,10-3.85,15.6.26,17.72S60.7,132.31,64.67,124.64Z"/><path class="cls-10" d="M66,151.1c-3.37-.57-16.48-.58-17.39-2.95-3.4-8.75,17.09-28.83,24.95-32.32,9.65-4.3,12.07-18.25,11.8-21.2s9.2,8.45,7.78,11.67C90,113.28,70.68,126.55,66,151.1Z"/><path class="cls-11" d="M66.35,120.75c-3,9.75-5.25,21.09-7.75,26l-5.66.17S54.44,128.92,66.35,120.75Z"/><path class="cls-11" d="M87.38,95.45c2.12,3.24,4.43,8.2,3.38,10-3.88,6.56-24.66,17.47-32.21,41.3-1.75-.52-6.27-1.2-10.21-2.1a6.85,6.85,0,0,0,.26,3.53c.91,2.37,14,2.38,17.39,2.95,4.69-24.55,24.05-37.82,27.14-44.8C94.1,104.11,90,98.1,87.38,95.45Z"/><path class="cls-11" d="M70.06,129.38l-2.21-9.92c4-3.46,7.93-4.9,12.63-9.67l0,7.21Z"/><path class="cls-12" d="M65.63,71.56c2.15-1.43,23.56,6.94,23.56,6.94l-1,4.5s-23-.44-24.21-2S63.49,73,65.63,71.56Z"/><path class="cls-13" d="M78.14,74.33a6,6,0,0,1,0,.61c0,3.29-2.58,6.13-6.29,7.43,7.11.62,16.4.91,16.4.91l1.07-5S83.87,76.2,78.14,74.33Z"/><path class="cls-14" d="M77.12,46.48c1.58,6.3,7.47,25.31,6.43,34.51s0,11.3,5.29,11,11.29-1.9,9.06-10.53S84.75,55.93,84.75,55.93Z"/><path class="cls-15" d="M97.9,81.45c-2.22-8.62-13.15-25.52-13.15-25.52l-7.63-9.45c.54,2.18,1.6,5.87,2.72,10.16,3.14,4.52,6.24,11.6,8.42,19.84A78.07,78.07,0,0,1,90.83,91.8C95.48,91.17,99.85,89,97.9,81.45Z"/><path class="cls-16" d="M96.2,76.67c-3.8-8.92-11.45-20.74-11.45-20.74l-7.63-9.45c.8,3.19,2.7,9.64,4.25,16.42Z"/><path class="cls-9" d="M94.2,31.59c11.93,10.05,31.3,12.88,32.55,17.71,1,3.89-5.54,16.45-14.13,22.53-3.65,2.58-31-6.65-36.84-24.68C71.53,34,73.19,13.9,94.2,31.59Z"/><path class="cls-17" d="M106.74,67.7c7.39-2.6,16.63-17.87,13.61-19C95.19,39,74.78,15.75,72.52,21.67,66.85,36.5,95.41,71.69,106.74,67.7Z"/><path class="cls-18" d="M118.61,65c-5.23-.14-18.32-16.53-12.2-19.58,3-1.48,7.91.13,14,.27s9.65-.81,10.59,1.6S123.71,65.12,118.61,65Z"/><path class="cls-19" d="M107.81,46.38c1.67-1.58,10.25-.13,6.13,7.12C112,56.9,103.19,50.75,107.81,46.38Z"/><path class="cls-6" d="M131,47.28c-.94-2.41-4.56-1.47-10.59-1.6l-1.42-.07a22.61,22.61,0,0,1,2.37,10.2,22.89,22.89,0,0,1-1.82,9.06C124.59,63.45,131.84,49.56,131,47.28Z"/><path class="cls-4" d="M66.75,16.17c2.54-1.29.5-14.67-7.43-8.59s-15.65,10.6-9.71,8.76C59.15,13.39,62.86,18.13,66.75,16.17Z"/><path class="cls-20" d="M64.43,15.88c2.19-.32,1.38-7.17-5.62-5.16S45.1,14,50.16,13.84C58.29,13.57,61.07,16.37,64.43,15.88Z"/><path class="cls-21" d="M32.47,64.18c1.83,4.4,16.59,8,22.29-2.54s.33-44.5,6.46-49.36c2-1.61,6.13-8.15-.13-5.91-8.61,3.09-17-7-20,4.43C33.86,37.89,30.57,59.62,32.47,64.18Z"/><path class="cls-4" d="M61.09,6.37a9.82,9.82,0,0,1-1.71.45A10.8,10.8,0,0,1,57.47,9c-6.13,4.86-.76,38.76-6.46,49.36C46.79,66.22,37.63,66.26,32.4,64a1.59,1.59,0,0,0,.07.2c1.83,4.4,16.59,8,22.29-2.54s.33-44.5,6.46-49.36C63.24,10.67,67.35,4.13,61.09,6.37Z"/><path class="cls-4" d="M22.69,90.38c-9.9,11-21,56.35,12.09,48.79l.53,4.07c-47.37,17.26-42.1-27.34-13.4-53.89Z"/><path class="cls-9" d="M22.38,90l-.47-.62c-28.7,26.55-34,71.15,13.4,53.89l-.22-1.63C-3.93,153.1-1,116,22.38,90Z"/><path class="cls-9" d="M80.54,95.36c.28.39-5.37,26.69,4.42,50.43,0,0,6.71.27,6.57,6.44H79.86s-11.53-32.6-10.59-37c.55-2.61-1.48-17-3.89-19.85C61.8,91.18,78.45,92.46,80.54,95.36Z"/><path class="cls-22" d="M71.81,23.61c3-.57,7.91,9.52,3,10.86C71.33,35.4,69,24.14,71.81,23.61Z"/><path class="cls-22" d="M80.72,20.86c2.07-1.09,7.94,5.21,4.6,7.31C83,29.62,78.77,21.89,80.72,20.86Z"/><path class="cls-9" d="M68.84,152.23C72,141.69,55,145.13,55,145.13c-8.72-3.48,31-43.59.05-40.1-22.31,2.51-25.54,29.48-20.8,47.2Z"/><path class="cls-23" d="M110.94,49.25c1.58-1.42,8.62,8.63,6.75,9.5S107.31,52.5,110.94,49.25Z"/><path class="cls-23" d="M127.54,48.56c2,.75-3.68,11.63-5.32,10.36S123,46.84,127.54,48.56Z"/><path class="cls-24" d="M34.06,152.23c-2.75-11.13-6.75-35.36,14-44.85,4.38-2,16.63.6,13.25,9.85s-19.12,35-19.12,35Z"/><path class="cls-24" d="M56.69,152c0-3.39,1.31-4.81,2.23-4.67,2.18.33,1.3,4.67,1.3,4.67Z"/><path class="cls-24" d="M60.77,152c0-3.83,1.49-5.44,2.53-5.28,2.47.37,1.47,5.28,1.47,5.28Z"/><path class="cls-24" d="M65.35,152c0-3.1,1.2-4.39,2.05-4.27,2,.3,1.19,4.27,1.19,4.27Z"/><path class="cls-24" d="M81.35,151.81c0-2.66,1-3.78,1.76-3.67,1.72.26,1,3.67,1,3.67Z"/><path class="cls-24" d="M84.56,151.81c0-3,1.17-4.27,2-4.15,1.94.29,1.15,4.15,1.15,4.15Z"/><path class="cls-24" d="M88.16,151.81c0-2.43,1-3.45,1.61-3.36,1.57.24.93,3.36.93,3.36Z"/><path class="cls-24" d="M51.44,105.13c6.75-.13,12.5.25,14.75,3.75s6.12-21.29,4.75-24C64.81,93.21,58.85,96.59,51.44,105.13Z"/><path class="cls-25" d="M64.52,78.16c-1.75-.29-4.28-1.72-3.88-2.59s4.46-1.08,4.46-1.08S66.28,77.45,64.52,78.16Z"/><path class="cls-25" d="M70.6,79c-1.81-.33-2.16-3.5.34-3.5C74.19,75.5,73.77,79.59,70.6,79Z"/><path class="cls-25" d="M78.35,80.75c-1.81-.33-2.16-3.5.34-3.5C81.94,77.25,81.52,81.34,78.35,80.75Z"/><path class="cls-24" d="M32.06,59.75c5.5-1.16,10.79-8.75,12.63-21.91s-6.75-14.46-6.75-14.46S31.23,51.59,32.06,59.75Z"/><path class="cls-24" d="M54.06,25.63c-3.87-3.5-6.62-7.38-6-11.38s7.13-4.5,8.75-4.5C54.31,14.48,53.88,20.3,54.06,25.63Z"/><g class="cls-26"><path class="cls-27" d="M128.32,54.9l.3-.56.1-.2.25-.49c.05-.09.09-.17.13-.26s.15-.3.22-.45.09-.18.13-.28l.19-.4c0-.11.09-.21.13-.3s.11-.25.16-.38a2.88,2.88,0,0,0,.13-.31c.05-.11.09-.22.14-.34l.12-.31c0-.1.07-.2.11-.31l.11-.3.09-.28.09-.29c0-.09.05-.17.07-.25s.05-.19.07-.28a1.74,1.74,0,0,0,0-.22c0-.09,0-.17.05-.25l0-.19a1.94,1.94,0,0,0,0-.24.71.71,0,0,0,0-.15,1.61,1.61,0,0,0,0-.22.34.34,0,0,0,0-.1,1,1,0,0,0-.06-.26c-.83-2.13-3.75-1.64-8.59-1.6-6.43-3.12-18.49-6.47-27.19-13.3C95.8,11.52,88.23,7.58,84,5.84c-2.44-1-4.39.21-6.89,1.38A16.71,16.71,0,0,1,78,1.29c.71-2-1.32-2.35-3.28,4.33s.17-2.16-1-2.1-.83,4.87-2.35,4,1.55-4-.08-4.3-1.65,4.65-2.76,3.9S72-5,66,7.52a3.93,3.93,0,0,0-2-1.38c-.46-.34-1.38-.34-3,.23-.29.11-.57.19-.85.27h0c-.27.07-.55.13-.82.18-8,1.4-15.46-6.67-18.3,4C37.83,23,35.37,34.12,33.83,43.07A103.31,103.31,0,0,0,32,57.84c-.14,3,0,5.22.48,6.34,1.83,4.4,16.59,8,22.29-2.54,1.6-3,2.33-7.82,2.68-13.33,1.6,3.49,3.4,6.88,5.16,10.06l1.09,2.22c0-.1,0-.21,0-.3,1.53,2.71,3,5.24,4.24,7.5.85,1.53,1.56,2.92,2.15,4.21-2.23-.55-3.91-.79-4.43-.44a5.44,5.44,0,0,0-1.75,3c-1.23.14-3,.43-3.24,1s1.22,1.74,2.74,2.28A5.27,5.27,0,0,0,64,81c.45.59,3.82,1,7.89,1.33,0,0,0,0,0,.06a11.2,11.2,0,0,1-1,2.63c-6,8.16-11.86,11.57-19.09,19.81-.45.4-.88.8-1.31,1.2a22,22,0,0,0-11.07,7.53c-6.89,7.33-8,17.45-7.4,26.19-29.59,4.38-18.89-38.63-9.28-49.32l-.78-1c-28.11,26-33.74,69.33,10.56,54.86.45,3,1,5.8,1.59,8H68.84s0,0,0-.08l11,0,0,.06h21.85c.14-6.17-6.57-6.44-6.57-6.44-5.49-11.38-4.44-28.61-3.65-36.86a14.24,14.24,0,0,0,1.64-2.63,1.64,1.64,0,0,0,.11-.41s0-.08,0-.13,0-.24,0-.36a.66.66,0,0,1,0-.14c0-.17,0-.34-.07-.53l0-.09c0-.17-.08-.33-.13-.51L93,104c0-.16-.11-.33-.18-.5s0-.1-.05-.14c-.09-.22-.19-.44-.3-.67a1,1,0,0,0-.07-.15c-.05-.11-.1-.22-.16-.33a53.42,53.42,0,0,0-3.37-8.08c-.31-.7-.59-1.35-.86-2L88,92l.89,0c.65,0,1.32-.09,2-.18h0l.93-.16.28,0c.21,0,.43-.09.63-.15a3.37,3.37,0,0,0,.34-.09l.55-.16.34-.12.51-.2.33-.15.48-.25.29-.17A5.78,5.78,0,0,0,96,90l.23-.17a5.67,5.67,0,0,0,.62-.58h0a5.78,5.78,0,0,0,.53-.67l.14-.25c.1-.17.2-.35.29-.54s.08-.22.13-.33.13-.37.18-.56a2.59,2.59,0,0,0,.09-.4,6.17,6.17,0,0,0,.11-.62c0-.15,0-.29,0-.44s0-.47,0-.72,0-.3,0-.46,0-.58-.09-.88,0-.29-.05-.44c-.08-.46-.17-.94-.31-1.45a29.21,29.21,0,0,0-1.26-3.72c3.94.57,4.85-.19,4.76-.54,1.42-1.27-2.24-4.63-7.13-9-.43-.56-1-1.27-1.65-2.1a49.35,49.35,0,0,0,15.62,6.22h0l.5.07.37.05.46,0,.36,0,.39,0c.22,0,.44,0,.63,0l.22,0,.39,0,.21,0a1.78,1.78,0,0,0,.33-.09l.14,0a2.12,2.12,0,0,0,.37-.19,36.1,36.1,0,0,0,7.52-7.45l.31-.16,0,0c.16-.08.32-.18.48-.28l0,0c.16-.1.32-.22.48-.34l0,0,.49-.4,0,0,.5-.45,0,0,.5-.5h0A36.26,36.26,0,0,0,128.25,55,.75.75,0,0,0,128.32,54.9ZM71.13,146.06a25.2,25.2,0,0,0,4.5-6.29c.57,1.74,1.13,3.4,1.64,4.91A34.41,34.41,0,0,0,71.13,146.06Zm17.45.79A9.09,9.09,0,0,0,85,145.79a75.12,75.12,0,0,1-4.7-17.35A45.7,45.7,0,0,0,81.93,120l.57-.67C83.57,127.38,86.7,139.8,88.58,146.85Z"/></g></g></g></g></svg>