<svg xmlns="http://www.w3.org/2000/svg" xmlns:xlink="http://www.w3.org/1999/xlink" viewBox="0 0 161.03 123.61"><defs><style>.cls-1{mask:url(#mask);filter:url(#luminosity-noclip-2);}.cls-2{mix-blend-mode:multiply;fill:url(#linear-gradient);}.cls-3{isolation:isolate;}.cls-4{fill:#d17066;}.cls-5{fill:#ba5954;}.cls-6{fill:#f79c92;}.cls-7{fill:#bc5c50;}.cls-8{fill:#e5897c;}.cls-9{fill:#d66e63;}.cls-10{fill:#db7b71;}.cls-11{fill:#ffa399;}.cls-12{fill:#ffb8b3;}.cls-13{fill:#bf594f;}.cls-14{fill:#f99f95;}.cls-15{fill:#684242;}.cls-16{fill:#c45553;}.cls-17{fill:#aa5950;}.cls-18{fill:#994a44;}.cls-19{fill:#ffafa9;}.cls-20{mask:url(#mask-2);}.cls-21{opacity:0.6;mix-blend-mode:overlay;fill:url(#linear-gradient-2);}.cls-22{filter:url(#luminosity-noclip);}</style><filter id="luminosity-noclip" x="0" y="-7946" width="161.03" height="32766" filterUnits="userSpaceOnUse" color-interpolation-filters="sRGB"><feFlood flood-color="#fff" result="bg"/><feBlend in="SourceGraphic" in2="bg"/></filter><mask id="mask" x="0" y="-7946" width="161.03" height="32766" maskUnits="userSpaceOnUse"><g class="cls-22"/></mask><linearGradient id="linear-gradient" x1="80.51" y1="22.47" x2="80.51" y2="134.02" gradientUnits="userSpaceOnUse"><stop offset="0" stop-color="#999"/><stop offset="1" stop-color="#fff"/></linearGradient><filter id="luminosity-noclip-2" x="0" y="0.01" width="161.03" height="123.6" filterUnits="userSpaceOnUse" color-interpolation-filters="sRGB"><feFlood flood-color="#fff" result="bg"/><feBlend in="SourceGraphic" in2="bg"/></filter><mask id="mask-2" x="0" y="0.01" width="161.03" height="123.6" maskUnits="userSpaceOnUse"><g class="cls-1"><path class="cls-2" d="M160.4,54.64c-2.1-3.66-4-3.28-5.69-2.48-14.42-10.23-7.09-21.29-15.44-29.49a30.94,30.94,0,0,1,1-6.9c2,3.4,4.48,6.38,7,7.55,1.48.68,2.93-8.63,2.65-13.08-.24-3.79-1.24-4.24-4.6-6.41-3.58-2.31-7.53-4.93-9.5-3.33C128.43,2,125.13,14.38,120.1,14c-5.7-.44-8.62-3.88-11.3-8.89-.17-2-.7-3.57-1.71-4.34-3-2.23-7.38,3.48-9.19,4.32-.77.35-8.25,1.55-6.82,3.48,3.82,5.16,4.58,14.14,6.58,18.33-.34.68-.69,1.38-1,2.13-3.7,6-8.84,8-14.88,8h-.85a59.59,59.59,0,0,1-11.85-1.9A115.15,115.15,0,0,0,56.48,32l-.61-.14-.48-.1-.8-.18-.15,0-1.87-.37-.14,0-1-.17-.18,0c-1-.18-2-.34-3.07-.47h0C37.1,29,25.88,30.46,16.27,41.57a8.42,8.42,0,0,1-5.85,1.15,4.54,4.54,0,0,1-3.46-3c3.41.35,6.79-.8,8.37-2.91,3-4,2.62-6.82,1.25-8.09-1.65-1.53-4.64-1-7.27,1.32s-4.12,5-4.28,7.56a4.74,4.74,0,0,1-3.17-2.84c-.79-2.41.85-5.88,4.63-9.77l-1.2-1.17c-5.42,5.59-5.72,9.32-5,11.46a6.61,6.61,0,0,0,4.87,4.11c0,.12,0,.25.08.37a6.21,6.21,0,0,0,4.83,4.56,7.25,7.25,0,0,0,1.67.18,10.17,10.17,0,0,0,2.39-.31q-.57.75-1.11,1.5L12.8,46c-.36.51-.7,1-1,1.54l-.16.25c-.36.55-.69,1.11-1,1.66l-.23.4c-.31.55-.61,1.1-.89,1.65l-.12.24c-.25.49-.48,1-.7,1.47l-.19.42c-.23.52-.44,1-.64,1.56l-.18.47c-.16.45-.32.89-.47,1.34l-.12.38c-.16.49-.3,1-.43,1.47l-.15.57q-.18.72-.33,1.44c0,.19-.07.37-.11.55l-.18,1.07-.09.6q-.09.68-.15,1.35c0,.23,0,.46,0,.69s0,.64,0,.95,0,.68,0,1,0,.57,0,.85,0,.51,0,.76c0,.4,0,.8.08,1.2s0,.54.08.8,0,.44.08.65q.09.66.21,1.32c0,.2.07.4.11.61l.18.86c0,.17.08.34.13.51.11.49.24,1,.38,1.44l.15.47a34.75,34.75,0,0,0,4.32,9l.3.44.15.22c3.46,16.09,8.36,35.62,8.78,37.27v0l0,.07h5.22v0c0-.28-.42-2.36-.66-5.45h0a54,54,0,0,1,1.45-18.31l1.26.74.39.23c.73.41,1.47.82,2.22,1.21l.35.17,1.91.94.67.3,1.75.77.65.27q1.14.47,2.31.9l.1,0c.82.3,1.65.59,2.5.86l.65.2.56.18c2.11,8.88,3.88,15.91,4.12,16.87v0l0,.07H51.2v-.13c-.09-.51-.42-2.46-.64-5.24a63.16,63.16,0,0,1-.06-9.52L52,109l.83.13,2,.26.85.11,2.36.23.43,0c.94.08,1.88.13,2.82.17l.75,0c.71,0,1.41,0,2.12,0H65l2.1,0,.82,0c1,0,1.93-.1,2.9-.17l.3,0c.87-.07,1.75-.16,2.62-.26l.93-.12c.69-.08,1.38-.18,2.07-.29.33,0,.65-.09,1-.15.77-.12,1.55-.26,2.32-.42l.65-.12c1-.2,2-.41,2.94-.65l.74-.19c.75-.19,1.49-.39,2.24-.6l1-.28,2.1-.65c.27-.09.55-.17.82-.27.88,4.53,1.69,9.06,2.19,12.49.17,1.21.3,2.27.38,3.16l0,.3,0,.38c0,.13,0,.25,0,.36s0,.19,0,.28v.54c0,.16,0,.3,0,.41H98.6v0c0-.27,0-2,.1-4.75a.34.34,0,0,0,0-.1c0-.19,0-.38,0-.58a139.21,139.21,0,0,1,1.69-16.28l.17-.07c.65-.28,1.29-.56,1.92-.85l.48-.22,1.4-.64.62-.29,1.27-.6.54-.27c.58-.28,1.15-.56,1.7-.85l.16-.08,1.12-.58c.76,6.69,1.66,15.22,2,20.79.08,1.19.14,2.24.17,3.11,0,.11,0,.22,0,.33v1c0,.13,0,.25,0,.37s0,.12,0,.18a4.07,4.07,0,0,1,0,.41h5.43v-.38h0v-.48c0-.63,0-1.59.06-2.8,0,0,0-.08,0-.12,0-.27,0-.56,0-.86,0-.09,0-.19,0-.29s0-.33,0-.49c.32-6.86,1.35-18.93,4.73-28.8l0,0,.76-.63.27-.23.18-.16h0a44.44,44.44,0,0,0,11.8-13.69l.18,0c.45-.09.9-.2,1.35-.32l.39-.1c.53-.15,1-.32,1.57-.5l.24-.1c.45-.17.89-.35,1.34-.55l.39-.18c.51-.24,1-.49,1.52-.78l.14-.08c.46-.26.91-.54,1.36-.84l.38-.26.14-.09a5.36,5.36,0,0,0,3.83,2.5C152.94,73.69,163.74,60.49,160.4,54.64ZM6.69,38c0-2.2,1.34-4.62,3.72-6.7,2.19-1.92,4.19-2.14,5-1.35s.75,2.92-1.45,5.86C12.71,37.55,9.65,38.46,6.69,38Z"/></g></mask><linearGradient id="linear-gradient-2" x1="80.51" y1="22.47" x2="80.51" y2="134.02" gradientUnits="userSpaceOnUse"><stop offset="0" stop-color="#ffcb97"/><stop offset="1" stop-color="#0f002b"/></linearGradient></defs><g class="cls-3"><g id="Calque_2" data-name="Calque 2"><g id="Calque_1-2" data-name="Calque 1"><path class="cls-4" d="M120.1,14c-6.28-.49-9.19-4.6-12.11-10.44S95.67,7.94,95.67,7.94l8.15,13.57,35.49,5.43s-1.32-16.63,7-18.09c0,0-4.66-8.3-8.63-8.5C128.94-.06,125.53,14.41,120.1,14Z"/><path class="cls-5" d="M125.52,17.53c1.88-4.06,10.74-15.24,12.77-14.8s4.65,4.93,4.65,4.93-6.24,12.92-5.66,15.25S125.52,17.53,125.52,17.53Z"/><path class="cls-5" d="M106.05,25.45C103.31,21.9,97.47,8.89,98.8,7.28s6.52-1.84,6.52-1.84,8.59,11.5,10.91,12S106.05,25.45,106.05,25.45Z"/><path class="cls-6" d="M11.73,44.53a7.25,7.25,0,0,1-1.67-.18,6.21,6.21,0,0,1-4.83-4.56c0-.12-.06-.25-.08-.37A6.61,6.61,0,0,1,.28,35.31c-.71-2.14-.41-5.87,5-11.46L6.49,25c-3.78,3.89-5.42,7.36-4.63,9.77A4.74,4.74,0,0,0,5,37.63c.16-2.57,1.67-5.27,4.28-7.56s5.62-2.85,7.27-1.32C18,30,18.35,32.82,15.33,36.84,13.75,39,10.37,40.1,7,39.75a4.54,4.54,0,0,0,3.46,3c3.54.79,8-1.65,12-6.49l1.29,1.05C18.7,43.37,14.33,44.53,11.73,44.53Zm-5-6.5c3,.43,6-.48,7.3-2.19,2.2-2.94,2.32-5.06,1.45-5.86s-2.84-.57-5,1.35C8,33.41,6.71,35.83,6.69,38Z"/><path class="cls-7" d="M112,123.61h5.43s-.21-25.47,7.3-40.09l-16.07,3.76S112.59,119.64,112,123.61Z"/><path class="cls-7" d="M34.08,69.74C36,83.94,46,123.61,46,123.61H51.2s-4.59-24,7.31-35.28Z"/><path class="cls-8" d="M93.58,104.61c51.78-19.62,45.66-43,18.1-51.92C99.75,48.84,40.55,12.74,15.91,42-18.69,83,39.51,125.11,93.58,104.61Z"/><path class="cls-9" d="M126.58,60.67c4.47,10.83-5,24.8-37.93,37.26-30.84,11.69-63,3-78.55-14.19,12.58,21.48,48.88,34,83.48,20.87C133.75,89.39,139.07,71.91,126.58,60.67Z"/><path class="cls-8" d="M8.61,69.74c1.88,14.2,11.9,53.87,11.9,53.87h5.22s-4.6-24,7.31-35.28Z"/><path class="cls-8" d="M93.17,123.61H98.6s-.21-25.47,7.3-40.09l-19,4.39S93.79,119.64,93.17,123.61Z"/><path class="cls-9" d="M113.35,70.51c1.12,4.87,5.85,13.92,10.17,17.82,0,0,8.48-6.13,12.66-15.45Z"/><path class="cls-8" d="M156.78,53.53c-22.55-13.92-1-29.7-32-37.86C119.47,14.28,104.93,10.1,96.65,29c-2,4.45-10.86,12.81-24.22,10.86,0,0,7.73,4.08,17,13.36,14.51,14.56,39,30.34,56.23,16.56C148.63,67.43,156.78,53.53,156.78,53.53Z"/><path class="cls-10" d="M105.8,66.57c13,8.31,28.1,12.62,39.84,3.24,1.17-.93,3.12-3.61,5.07-6.54C135.9,76,119.86,70.52,105.8,66.57Z"/><path class="cls-10" d="M124.76,15.67c-4.74-1.25-17-4.74-25.39,8.25C121.47,25.52,146,40.54,146,58.83c0,2.53-.22,5-.35,11,3-2.38,11.14-16.28,11.14-16.28C134.23,39.61,155.76,23.83,124.76,15.67Z"/><path class="cls-6" d="M99.46,23.8c-1,1.51-1.67,3.37-2.81,5.23C81.53,53.61,42.41,10.54,15.91,42,5.21,54.67,3.39,67.47,7.58,78.48,94.71,102.05,91.45,59.52,99.46,23.8Z"/><path class="cls-11" d="M148.15,73.3c4.79.39,15.59-12.81,12.25-18.66s-6.13-1.39-8.63-1.39-7-3.06-9.47.28S141.47,72.74,148.15,73.3Z"/><path class="cls-12" d="M142.76,54.36c-2.27,3-.76,17.45,5.31,18a4.74,4.74,0,0,0,2.62-.82,24.58,24.58,0,0,0,2.14-10.27,25.67,25.67,0,0,0-1-7.17,2.61,2.61,0,0,1-.48,0C149.08,54.11,145,51.33,142.76,54.36Z"/><path class="cls-11" d="M91.08,8.57c5.15,7,4.73,20.87,9.32,20.6s11.84-24.5,6.69-28.4c-3-2.23-7.38,3.48-9.19,4.32C97.13,5.44,89.65,6.64,91.08,8.57Z"/><path class="cls-11" d="M135.2,1.33c-1.09,2.13,5.15,18.79,12.11,22,1.48.68,2.93-8.63,2.65-13.08-.24-3.79-1.24-4.24-4.6-6.41C141.32,1.22,136.8-1.79,135.2,1.33Z"/><path class="cls-13" d="M143.31,71.41c-5.43.42-18.89-2.19-25.89-12.52l-3.24,2,2.72.1C124.88,69.72,133.59,73.39,143.31,71.41Z"/><path class="cls-14" d="M119.41,53A9.45,9.45,0,1,0,110,62.33,9.38,9.38,0,0,0,119.41,53Z"/><path class="cls-15" d="M119.6,37.24c1.69-.16,2.21,4.8.34,4.64S118.44,37.36,119.6,37.24Z"/><path class="cls-15" d="M137.66,36.83c1.69-.17,2.21,4.79.34,4.63S136.5,36.94,137.66,36.83Z"/><path class="cls-16" d="M145.29,56.49c2.41-.19,3.55,9.6,1.26,9.91S142.58,56.69,145.29,56.49Z"/><path class="cls-16" d="M156.06,56.57c2.28.77-.52,10.22-2.75,9.61S153.49,55.69,156.06,56.57Z"/><path class="cls-17" d="M19.14,118.13c.84,3.39,1.37,5.48,1.37,5.48h5.22s-.41-2.16-.67-5.48Z"/><path class="cls-17" d="M98.73,118.13h-6a26.41,26.41,0,0,1,.45,5.48H98.6S98.58,121.49,98.73,118.13Z"/><path class="cls-18" d="M117.53,118.13h-5.69a34.83,34.83,0,0,1,.12,5.48h5.43S117.37,121.49,117.53,118.13Z"/><path class="cls-18" d="M44.62,118.13c.83,3.39,1.36,5.48,1.36,5.48H51.2s-.41-2.16-.67-5.48Z"/><path class="cls-19" d="M81.79,37c-18.11,0-44.34-17.73-64.18,3.09C26.28,53.35,44.85,62.69,81.79,37Z"/><path class="cls-12" d="M105.05,4.76c2.93-.6.14,17.42-4.79,20.47C98.53,26.3,93.73,13.62,95,8.39c.49-1.94,3-.12,5.23-1.31C101.39,6.47,103.45,5.08,105.05,4.76Z"/><path class="cls-12" d="M107.24,51.63c1.15-1.39,1.24-3.22.19-4.09s-2.83-.46-4,.93-1.24,3.22-.19,4.09S106.08,53,107.24,51.63Z"/><g class="cls-20"><path class="cls-21" d="M160.4,54.64c-2.1-3.66-4-3.28-5.69-2.48-14.42-10.23-7.09-21.29-15.44-29.49a30.94,30.94,0,0,1,1-6.9c2,3.4,4.48,6.38,7,7.55,1.48.68,2.93-8.63,2.65-13.08-.24-3.79-1.24-4.24-4.6-6.41-3.58-2.31-7.53-4.93-9.5-3.33C128.43,2,125.13,14.38,120.1,14c-5.7-.44-8.62-3.88-11.3-8.89-.17-2-.7-3.57-1.71-4.34-3-2.23-7.38,3.48-9.19,4.32-.77.35-8.25,1.55-6.82,3.48,3.82,5.16,4.58,14.14,6.58,18.33-.34.68-.69,1.38-1,2.13-3.7,6-8.84,8-14.88,8h-.85a59.59,59.59,0,0,1-11.85-1.9A115.15,115.15,0,0,0,56.48,32l-.61-.14-.48-.1-.8-.18-.15,0-1.87-.37-.14,0-1-.17-.18,0c-1-.18-2-.34-3.07-.47h0C37.1,29,25.88,30.46,16.27,41.57a8.42,8.42,0,0,1-5.85,1.15,4.54,4.54,0,0,1-3.46-3c3.41.35,6.79-.8,8.37-2.91,3-4,2.62-6.82,1.25-8.09-1.65-1.53-4.64-1-7.27,1.32s-4.12,5-4.28,7.56a4.74,4.74,0,0,1-3.17-2.84c-.79-2.41.85-5.88,4.63-9.77l-1.2-1.17c-5.42,5.59-5.72,9.32-5,11.46a6.61,6.61,0,0,0,4.87,4.11c0,.12,0,.25.08.37a6.21,6.21,0,0,0,4.83,4.56,7.25,7.25,0,0,0,1.67.18,10.17,10.17,0,0,0,2.39-.31q-.57.75-1.11,1.5L12.8,46c-.36.51-.7,1-1,1.54l-.16.25c-.36.55-.69,1.11-1,1.66l-.23.4c-.31.55-.61,1.1-.89,1.65l-.12.24c-.25.49-.48,1-.7,1.47l-.19.42c-.23.52-.44,1-.64,1.56l-.18.47c-.16.45-.32.89-.47,1.34l-.12.38c-.16.49-.3,1-.43,1.47l-.15.57q-.18.72-.33,1.44c0,.19-.07.37-.11.55l-.18,1.07-.09.6q-.09.68-.15,1.35c0,.23,0,.46,0,.69s0,.64,0,.95,0,.68,0,1,0,.57,0,.85,0,.51,0,.76c0,.4,0,.8.08,1.2s0,.54.08.8,0,.44.08.65q.09.66.21,1.32c0,.2.07.4.11.61l.18.86c0,.17.08.34.13.51.11.49.24,1,.38,1.44l.15.47a34.75,34.75,0,0,0,4.32,9l.3.44.15.22c3.46,16.09,8.36,35.62,8.78,37.27v0l0,.07h5.22v0c0-.28-.42-2.36-.66-5.45h0a54,54,0,0,1,1.45-18.31l1.26.74.39.23c.73.41,1.47.82,2.22,1.21l.35.17,1.91.94.67.3,1.75.77.65.27q1.14.47,2.31.9l.1,0c.82.3,1.65.59,2.5.86l.65.2.56.18c2.11,8.88,3.88,15.91,4.12,16.87v0l0,.07H51.2v-.13c-.09-.51-.42-2.46-.64-5.24a63.16,63.16,0,0,1-.06-9.52L52,109l.83.13,2,.26.85.11,2.36.23.43,0c.94.08,1.88.13,2.82.17l.75,0c.71,0,1.41,0,2.12,0H65l2.1,0,.82,0c1,0,1.93-.1,2.9-.17l.3,0c.87-.07,1.75-.16,2.62-.26l.93-.12c.69-.08,1.38-.18,2.07-.29.33,0,.65-.09,1-.15.77-.12,1.55-.26,2.32-.42l.65-.12c1-.2,2-.41,2.94-.65l.74-.19c.75-.19,1.49-.39,2.24-.6l1-.28,2.1-.65c.27-.09.55-.17.82-.27.88,4.53,1.69,9.06,2.19,12.49.17,1.21.3,2.27.38,3.16l0,.3,0,.38c0,.13,0,.25,0,.36s0,.19,0,.28v.54c0,.16,0,.3,0,.41H98.6v0c0-.27,0-2,.1-4.75a.34.34,0,0,0,0-.1c0-.19,0-.38,0-.58a139.21,139.21,0,0,1,1.69-16.28l.17-.07c.65-.28,1.29-.56,1.92-.85l.48-.22,1.4-.64.62-.29,1.27-.6.54-.27c.58-.28,1.15-.56,1.7-.85l.16-.08,1.12-.58c.76,6.69,1.66,15.22,2,20.79.08,1.19.14,2.24.17,3.11,0,.11,0,.22,0,.33v1c0,.13,0,.25,0,.37s0,.12,0,.18a4.07,4.07,0,0,1,0,.41h5.43v-.38h0v-.48c0-.63,0-1.59.06-2.8,0,0,0-.08,0-.12,0-.27,0-.56,0-.86,0-.09,0-.19,0-.29s0-.33,0-.49c.32-6.86,1.35-18.93,4.73-28.8l0,0,.76-.63.27-.23.18-.16h0a44.44,44.44,0,0,0,11.8-13.69l.18,0c.45-.09.9-.2,1.35-.32l.39-.1c.53-.15,1-.32,1.57-.5l.24-.1c.45-.17.89-.35,1.34-.55l.39-.18c.51-.24,1-.49,1.52-.78l.14-.08c.46-.26.91-.54,1.36-.84l.38-.26.14-.09a5.36,5.36,0,0,0,3.83,2.5C152.94,73.69,163.74,60.49,160.4,54.64ZM6.69,38c0-2.2,1.34-4.62,3.72-6.7,2.19-1.92,4.19-2.14,5-1.35s.75,2.92-1.45,5.86C12.71,37.55,9.65,38.46,6.69,38Z"/></g></g></g></g></svg>