<svg xmlns="http://www.w3.org/2000/svg" xmlns:xlink="http://www.w3.org/1999/xlink" viewBox="0 0 123.58 148.14"><defs><style>.cls-1{mask:url(#mask);filter:url(#luminosity-noclip-2);}.cls-2{mix-blend-mode:multiply;fill:url(#linear-gradient);}.cls-3{isolation:isolate;}.cls-4{fill:#edb63b;}.cls-5{fill:#ea3e2d;}.cls-6{fill:#ba9485;}.cls-7{fill:#dd4b33;}.cls-8{fill:#ff5e39;}.cls-9{fill:#f2dad1;}.cls-10{fill:#fff0e9;}.cls-11{fill:#d3b4a7;}.cls-12{fill:#c13b25;}.cls-13{fill:#f44e38;}.cls-14{fill:#a53421;}.cls-15{fill:#47382b;}.cls-16{fill:#db6d1b;}.cls-17{fill:#ef832b;}.cls-18{fill:#603915;}.cls-19{fill:#7c471c;}.cls-20{fill:#e5c5ba;}.cls-21{fill:#fce4db;}.cls-22{fill:#e2c1b7;}.cls-23{mask:url(#mask-2);}.cls-24{opacity:0.6;mix-blend-mode:overlay;fill:url(#linear-gradient-2);}.cls-25{filter:url(#luminosity-noclip);}</style><filter id="luminosity-noclip" x="0" y="-7320.14" width="123.58" height="32766" filterUnits="userSpaceOnUse" color-interpolation-filters="sRGB"><feFlood flood-color="#fff" result="bg"/><feBlend in="SourceGraphic" in2="bg"/></filter><mask id="mask" x="0" y="-7320.14" width="123.58" height="32766" maskUnits="userSpaceOnUse"><g class="cls-25"/></mask><linearGradient id="linear-gradient" x1="61.79" y1="38.35" x2="61.79" y2="151.14" gradientUnits="userSpaceOnUse"><stop offset="0.02" stop-color="#999"/><stop offset="1" stop-color="#fff"/></linearGradient><filter id="luminosity-noclip-2" x="0" y="0" width="123.58" height="148.14" filterUnits="userSpaceOnUse" color-interpolation-filters="sRGB"><feFlood flood-color="#fff" result="bg"/><feBlend in="SourceGraphic" in2="bg"/></filter><mask id="mask-2" x="0" y="0" width="123.58" height="148.14" maskUnits="userSpaceOnUse"><g class="cls-1"><path class="cls-2" d="M107.12,23.26a7.25,7.25,0,0,0-1.19-1.86,12.15,12.15,0,0,0-1.74-1.7c5-4.4,4.52-7.9,2.27-9.2-3.45-2-6.51,3.59-6.51,3.59C101.81,9.7,101.41-.26,93,0s-2.65,11.42-2.65,11.42c-11.83-7.7-16.48-1.19-17,2.79-1.43,10.71,6.51,10.11,9.29,11,1.19.37,2,1.54,2.86,3.1-.11.46-.21.93-.28,1.4A15,15,0,0,0,85.11,33c0,1.16,0,2.39.11,3.7.25,6.61,2.49,14.66,4.66,20.81,0,.11,0,.22,0,.33-2.55,4-6.55,13.49-13.42,15.5-14.83,4.33-28.72-9.92-29.83-6.67a6.87,6.87,0,0,0,0,3.77,57,57,0,0,0-11.31-1.92c3.29-27.7.93-73.69-29.13-52.67C30,5.06,33.68,56.42,34.22,68.57a5.16,5.16,0,0,0-1.33.25C27.25,39.64,6.52-.8,0,47c11.23-32.79,27.22,9.85,31.9,23.83a11.8,11.8,0,0,0,.17,3.42C19.5,48.24-1.39,28.09,1.42,83c2-47.48,25.33-14,31.62-4.11.05.19.09.37.14.56C15.55,57.16,4.62,75,5,94.33c8-29.11,24.3-16.27,29.11-11.66A129.7,129.7,0,0,0,39.5,97.92,23.19,23.19,0,0,0,40.63,100a10.69,10.69,0,0,0,1.62,2.35A38.29,38.29,0,0,0,46.5,107l.09.09.74.67.16.14.72.62.21.18.72.59.25.2.73.57.28.21.73.54.3.22.74.52.32.22.76.51.32.2.25.17c2.4,4.26,5.84,9,10,10.94-.68,4.69-.13,10.65.56,15.3a18.41,18.41,0,0,1-4.78,1.51,7.46,7.46,0,0,0,5.14.76c.17,1.07.35,2,.5,2.79-2.75.86-5.3,2.83-4.58,4.15H76.66s-5.53-3.75-9-4.35c-2.93-9-.69-14.75,1.5-19.07a11.23,11.23,0,0,0,6.57-2A14.45,14.45,0,0,0,80,124.54,60.15,60.15,0,0,0,80.65,139,19.33,19.33,0,0,1,76,140.44a7.54,7.54,0,0,0,5,.79c.18,1.07.35,2,.51,2.8-2.71.88-5.16,2.81-4.45,4.11H93s-5.68-3.85-9.16-4.38c-3-9.15-.61-14.88,1.6-19.22,4.76-1,7.44-4.41,10.41-9.52.34-.22.67-.45,1-.68l.32-.22c.44-.32.88-.66,1.31-1l.06,0c.41-.33.82-.68,1.22-1l.4-.36c.29-.27.58-.53.86-.81l.47-.47c.26-.25.52-.51.77-.78s.33-.36.5-.54.48-.52.71-.8.34-.4.51-.6l.69-.83.51-.65.65-.87.51-.71c.21-.3.42-.6.63-.92s.33-.49.5-.75l.61-1,.48-.8c.21-.34.41-.68.61-1l.46-.83c.2-.36.39-.73.59-1.1l.45-.86.57-1.18c.14-.29.29-.58.43-.88s.38-.87.58-1.3.25-.57.38-.87c.21-.49.41-1,.62-1.51l.31-.76c.3-.78.6-1.57.88-2.38,2.32-6.49,2.87-19.06-6.37-33.75a21.77,21.77,0,0,1-2.42-5.25,5.47,5.47,0,0,0,3.86.08c2.55-.71,0-4.56-1.65-6.31,1.33,1,3,1.76,4,.14s-1.69-4.86-4.08-6.68a31.62,31.62,0,0,0,10.79.66l-.36-.28.09,0s-5.68-5.07-7.59-6.1l.15-.1c2-1.64,7.73-7.63,10.28-10.3a17.3,17.3,0,0,0,2.48-2.28C124.18,17.38,111.59,21.07,107.12,23.26Z"/></g></mask><linearGradient id="linear-gradient-2" x1="61.79" y1="38.35" x2="61.79" y2="151.14" gradientUnits="userSpaceOnUse"><stop offset="0.02" stop-color="#ffd995"/><stop offset="1" stop-color="#240043"/></linearGradient></defs><g class="cls-3"><g id="Calque_2" data-name="Calque 2"><g id="Calque_1-2" data-name="Calque 1"><path class="cls-4" d="M70.81,121.44c-2.39,5-7.57,11.69-2.26,24.84,0,0-2.79.53-2.79.14s-4.38-18.87-.79-26.84Z"/><path class="cls-4" d="M87,121.44c-2.39,5-7.57,11.69-2.26,24.84,0,0-2.79.53-2.79.14s-4.38-18.87-.79-26.84Z"/><path class="cls-4" d="M60.71,148.14H76.66s-7.44-5-10.5-4.38S59.92,146.68,60.71,148.14Z"/><path class="cls-4" d="M65.5,141s-2.39,1.19-5.85-.53c0,0,4.39-.8,5.18-1.86Z"/><path class="cls-4" d="M77.06,148.14H93s-7.44-5-10.5-4.38S76.26,146.68,77.06,148.14Z"/><path class="cls-4" d="M81.84,141s-2.39,1.19-5.85-.53c0,0,4.39-.8,5.19-1.86Z"/><path class="cls-5" d="M6.2,15.86C36.85-5.57,38.71,42.65,35.13,70.13l-.82,1S33.13,3.64,6.2,15.86Z"/><path class="cls-5" d="M0,47C6.91-3.63,29.76,44.73,33.73,73.86L33.23,75S13.29,8.24,0,47Z"/><path class="cls-5" d="M1.42,83c-3-59,21.32-31.35,33.3-2.84l-.13,1.27S3.72,28.08,1.42,83Z"/><path class="cls-5" d="M5,94.33C4.61,74.5,16.12,56.25,34.54,81.23l.89,2.83S14.35,60,5,94.33Z"/><path class="cls-6" d="M64.15,110.59c3,4.44,10.27,14,17.81,14.24,8.15.23,11.13-4.79,15.58-12.79Z"/><path class="cls-7" d="M86.67,30.56c-1.3-2.65-2.28-4.85-4-5.38-2.78-.85-10.72-.25-9.29-11,.53-4,5.18-10.49,17-2.79C90.39,11.43,84.67.27,93,0S101.81,9.7,100,14.09c0,0,3.06-5.58,6.51-3.59,2.29,1.32,2.79,4.92-2.52,9.43S86.67,30.56,86.67,30.56Z"/><path class="cls-8" d="M82.42,23.25c-6.49,1.25-9.06-3.71-8.63-7.28s3.13-8.53,9-6.6C88.19,11.16,92.43,21.31,82.42,23.25Z"/><path class="cls-8" d="M91,10.47c-3-5.8-1.21-9.24.89-9.59s5.79,1.12,6.83,7C99.65,13.3,95.61,19.4,91,10.47Z"/><path class="cls-8" d="M101.27,13.12c2-2.9,4.13-2.89,4.82-2s.9,3.06-1.64,5C102.08,18,98.15,17.58,101.27,13.12Z"/><path class="cls-9" d="M105.93,21.4c-7-8-26.3-6.51-18.6,25.11,2,8.2,16.21,44.5-44.9,24.18-6.38-2.12-9.84-2.79-10.5,0C31,74.5,36.44,91.18,39.5,97.92c8,17.54,55.8,44.24,74.93-9.43,2.32-6.49,2.87-19.06-6.37-33.75a22,22,0,0,1-2.66-18.6C106.71,32.23,109.65,25.65,105.93,21.4Z"/><path class="cls-10" d="M31.83,70.18C32.3,74.37,51.17,90.52,57,88.85S69,78.18,67.83,77.18C66.83,76.32,31.17,64.18,31.83,70.18Z"/><path class="cls-11" d="M108.06,54.74a22,22,0,0,1-2.66-18.6c1.31-3.91,4.25-10.49.53-14.74a11.92,11.92,0,0,0-4.15-3c.84,3.9-1.12,8.5-2.13,11.51-5.81,17.43,13.58,32.31,9,52.35-9.68,42.69-50.31,34.1-67.1,19.24,12.06,17.14,55,37.15,72.85-13C116.75,82,117.3,69.43,108.06,54.74Z"/><path class="cls-12" d="M108.06,54.74A20.85,20.85,0,0,1,106,36.31c1.3-3.92,3.56-10.58-.07-14.91-7.43-8.88-26.76-6.34-19.06,25.28,3.83,15.71,7,17,12.63,18.17S112.63,62,108.06,54.74Z"/><path class="cls-13" d="M95.12,38.93c-.5,2.13-1.57,11.47,7.18,26.1C99,66,92.12,63.31,92.12,63.31c-3.58-8.4-10.21-28.34-5-35.88C93.5,18.18,95.12,38.93,95.12,38.93Z"/><path class="cls-13" d="M101.86,32.08c1-6.63-2-13.35-6.36-14s-9.24,5-10.25,11.62,2.43,12.51,6.82,13.18S100.85,38.71,101.86,32.08Z"/><path class="cls-14" d="M108.06,54.74A20.85,20.85,0,0,1,106,36.31c1.3-3.92,3.65-10.66-.07-14.91a11.74,11.74,0,0,0-4.19-3c.24.25.47.52.69.8,3.72,4.76,5.07,14,2.24,17.24-2.14,2.46-5.29,10.87-.11,20.09,1.83,3.25,1.7,5.92.54,7.87C108.69,63,111.13,59.62,108.06,54.74Z"/><path class="cls-11" d="M51.06,107.09c2.13,4.91,7.52,15.68,14.88,17.27,8,1.73,11.83-2.66,17.67-9.7Z"/><path class="cls-15" d="M94.82,30.78c.14-4.47.41-6.61,1.35-6.44S97.67,31,97.67,31Z"/><path class="cls-16" d="M105.13,35.17c1.4,2.51,10.54,2.66,13.38,2.21l-10.28-8.23S102.12,29.77,105.13,35.17Z"/><path class="cls-17" d="M104.6,30.83c1.42,1.42,17.81-10.72,19-12.49.72-1.11-16.48,4.07-17.89,5.85C104.65,25.46,103.72,29.94,104.6,30.83Z"/><path class="cls-18" d="M105,31.06s3.27,2,5.83-.14,11.52-11.61,11.52-11.61S104.79,28.31,105,31.06Z"/><path class="cls-19" d="M105,31.18c-.53.62,1.68,3.55,13.28,5.94,0,0-6.51-5.81-7.93-6.25S105,31.18,105,31.18Z"/><path class="cls-18" d="M105.57,31.05a.85.85,0,1,0-.85.75A.8.8,0,0,0,105.57,31.05Z"/><path class="cls-11" d="M92.11,56.25C100,64.52,114.17,84.68,99,109l-29.88,9.91S30.5,101.72,42.5,95.06c0,0-5.83-15.21,6.67-11.38,0,0-12.17-15.67,1.33-10.33,0,0,31.33,10,35.83,1A66.12,66.12,0,0,0,92.11,56.25Z"/><path class="cls-10" d="M92.11,56.25c-2.3-2-6.35,14.39-15.61,17.1-14.83,4.33-28.72-9.92-29.83-6.67C44.83,72,52.35,81.31,55.83,84c-2-1.16-9.56-3.74-10.66-2.17-2.61,3.68,7.49,12.37,10.33,15-1.53-.7-6.64-.55-7.83,1.17-.7,1,11.16,17.16,34,11.83C104.76,104.45,109,70.49,92.11,56.25Z"/><path class="cls-20" d="M58.55,113.9c-1,.81,3.76,6.31,7.44,7,4,.69,8.76-2.43,8.84-3.91S59.66,113,58.55,113.9Z"/><path class="cls-21" d="M71.25,95.68a33.75,33.75,0,0,1-26.5-12.41c0,4.15,8.23,11.25,10.75,13.58-1.53-.7-6.64-.55-7.83,1.17-.7,1,11.16,17.16,34,11.83,15.19-3.55,22.2-19.47,20.42-34C97.42,87.43,85.38,95.68,71.25,95.68Z"/><path class="cls-22" d="M68.83,88.85c-3.66.88-7,7.94,2.17,9.33C65.83,95,65.28,92.83,68.83,88.85Z"/><path class="cls-22" d="M64.57,98.1c-3.82.39-8.52,5.74.34,7.66C60.39,102.75,60.26,101,64.57,98.1Z"/><path class="cls-22" d="M64.07,78.27c-3.82.38-8.52,5.74.34,7.65C59.89,82.92,59.76,81.14,64.07,78.27Z"/><path class="cls-22" d="M75.8,80.44c-3.66,1.14-7.2,7.33,1.87,7.43C72.64,85.84,72.15,84.12,75.8,80.44Z"/><path class="cls-22" d="M80.32,95.28c-3.37,1.85-5.59,8.62,3.31,6.9C78.29,101.19,77.47,99.61,80.32,95.28Z"/><path class="cls-22" d="M83.52,84.43c-3,2.34-4.21,9.37,4.33,6.32C82.42,90.59,81.37,89.14,83.52,84.43Z"/><path class="cls-22" d="M91.92,81.21c-1,3.7,2.21,10,7.25,2.49C94.71,86.81,93,86.28,91.92,81.21Z"/><path class="cls-22" d="M84.48,71.9c-1.79,3.39.08,10.27,6.57,3.94C86.05,78,84.49,77.08,84.48,71.9Z"/><path class="cls-7" d="M105,35.52c-2.29.25-2.5,4.29-2.5,4.29-.13,3.06-.25,11.79,7,9.76,2.55-.71,0-4.56-1.65-6.31,1.33,1,3,1.76,4,.14C113,41.28,107.29,35.26,105,35.52Z"/><path class="cls-8" d="M107.37,44.06c2.13,2.81,1.41,4.69.32,5.07s-3.31-.21-4.4-3.24c-1.17-4.33-.47-9,.71-9.29C104.71,36.45,106.5,42.68,107.37,44.06Z"/><path class="cls-8" d="M106.37,41.56c1.32,1.43,3.72,2.17,4.25,1.66s.48-2.46-1-3.83c-2-1.92-4.63-3.87-5.59-2.87C102.88,37.77,105.7,40.82,106.37,41.56Z"/><g class="cls-23"><path class="cls-24" d="M107.12,23.26a7.25,7.25,0,0,0-1.19-1.86,12.15,12.15,0,0,0-1.74-1.7c5-4.4,4.52-7.9,2.27-9.2-3.45-2-6.51,3.59-6.51,3.59C101.81,9.7,101.41-.26,93,0s-2.65,11.42-2.65,11.42c-11.83-7.7-16.48-1.19-17,2.79-1.43,10.71,6.51,10.11,9.29,11,1.19.37,2,1.54,2.86,3.1-.11.46-.21.93-.28,1.4A15,15,0,0,0,85.11,33c0,1.16,0,2.39.11,3.7.25,6.61,2.49,14.66,4.66,20.81,0,.11,0,.22,0,.33-2.55,4-6.55,13.49-13.42,15.5-14.83,4.33-28.72-9.92-29.83-6.67a6.87,6.87,0,0,0,0,3.77,57,57,0,0,0-11.31-1.92c3.29-27.7.93-73.69-29.13-52.67C30,5.06,33.68,56.42,34.22,68.57a5.16,5.16,0,0,0-1.33.25C27.25,39.64,6.52-.8,0,47c11.23-32.79,27.22,9.85,31.9,23.83a11.8,11.8,0,0,0,.17,3.42C19.5,48.24-1.39,28.09,1.42,83c2-47.48,25.33-14,31.62-4.11.05.19.09.37.14.56C15.55,57.16,4.62,75,5,94.33c8-29.11,24.3-16.27,29.11-11.66A129.7,129.7,0,0,0,39.5,97.92,23.19,23.19,0,0,0,40.63,100a10.69,10.69,0,0,0,1.62,2.35A38.29,38.29,0,0,0,46.5,107l.09.09.74.67.16.14.72.62.21.18.72.59.25.2.73.57.28.21.73.54.3.22.74.52.32.22.76.51.32.2.25.17c2.4,4.26,5.84,9,10,10.94-.68,4.69-.13,10.65.56,15.3a18.41,18.41,0,0,1-4.78,1.51,7.46,7.46,0,0,0,5.14.76c.17,1.07.35,2,.5,2.79-2.75.86-5.3,2.83-4.58,4.15H76.66s-5.53-3.75-9-4.35c-2.93-9-.69-14.75,1.5-19.07a11.23,11.23,0,0,0,6.57-2A14.45,14.45,0,0,0,80,124.54,60.15,60.15,0,0,0,80.65,139,19.33,19.33,0,0,1,76,140.44a7.54,7.54,0,0,0,5,.79c.18,1.07.35,2,.51,2.8-2.71.88-5.16,2.81-4.45,4.11H93s-5.68-3.85-9.16-4.38c-3-9.15-.61-14.88,1.6-19.22,4.76-1,7.44-4.41,10.41-9.52.34-.22.67-.45,1-.68l.32-.22c.44-.32.88-.66,1.31-1l.06,0c.41-.33.82-.68,1.22-1l.4-.36c.29-.27.58-.53.86-.81l.47-.47c.26-.25.52-.51.77-.78s.33-.36.5-.54.48-.52.71-.8.34-.4.51-.6l.69-.83.51-.65.65-.87.51-.71c.21-.3.42-.6.63-.92s.33-.49.5-.75l.61-1,.48-.8c.21-.34.41-.68.61-1l.46-.83c.2-.36.39-.73.59-1.1l.45-.86.57-1.18c.14-.29.29-.58.43-.88s.38-.87.58-1.3.25-.57.38-.87c.21-.49.41-1,.62-1.51l.31-.76c.3-.78.6-1.57.88-2.38,2.32-6.49,2.87-19.06-6.37-33.75a21.77,21.77,0,0,1-2.42-5.25,5.47,5.47,0,0,0,3.86.08c2.55-.71,0-4.56-1.65-6.31,1.33,1,3,1.76,4,.14s-1.69-4.86-4.08-6.68a31.62,31.62,0,0,0,10.79.66l-.36-.28.09,0s-5.68-5.07-7.59-6.1l.15-.1c2-1.64,7.73-7.63,10.28-10.3a17.3,17.3,0,0,0,2.48-2.28C124.18,17.38,111.59,21.07,107.12,23.26Z"/></g></g></g></g></svg>