<svg xmlns="http://www.w3.org/2000/svg" xmlns:xlink="http://www.w3.org/1999/xlink" viewBox="0 0 135.62 153.92"><defs><style>.cls-1{mask:url(#mask);filter:url(#luminosity-noclip-2);}.cls-2{mix-blend-mode:multiply;fill:url(#linear-gradient);}.cls-3{isolation:isolate;}.cls-4{fill:#d35e42;}.cls-5{fill:#ea6642;}.cls-6{fill:#634e3e;}.cls-7{fill:#ce9061;}.cls-8{fill:#b5764b;}.cls-9{fill:#7f6854;}.cls-10{fill:#634d3d;}.cls-11{fill:#b75439;}.cls-12{fill:#ef7056;}.cls-13{fill:#a5422b;}.cls-14{fill:#f4a453;}.cls-15{fill:#ffc05a;}.cls-16{fill:#bc3320;}.cls-17{fill:#705846;}.cls-18{fill:#997359;}.cls-19{fill:#47362a;}.cls-20,.cls-22{fill:#e8bc9e;}.cls-20,.cls-25{opacity:0.6;}.cls-20,.cls-22,.cls-25{mix-blend-mode:overlay;}.cls-21{fill:#d83a2a;}.cls-22{opacity:0.4;}.cls-23{fill:#f2a775;}.cls-24{mask:url(#mask-2);}.cls-25{fill:url(#linear-gradient-2);}.cls-26{filter:url(#luminosity-noclip);}</style><filter id="luminosity-noclip" x="0" y="-7315.74" width="135.61" height="32766" filterUnits="userSpaceOnUse" color-interpolation-filters="sRGB"><feFlood flood-color="#fff" result="bg"/><feBlend in="SourceGraphic" in2="bg"/></filter><mask id="mask" x="0" y="-7315.74" width="135.61" height="32766" maskUnits="userSpaceOnUse"><g class="cls-26"/></mask><linearGradient id="linear-gradient" x1="67.81" y1="39.35" x2="67.81" y2="152.71" gradientUnits="userSpaceOnUse"><stop offset="0.02" stop-color="#999"/><stop offset="1" stop-color="#fff"/></linearGradient><filter id="luminosity-noclip-2" x="0" y="0" width="135.61" height="153.92" filterUnits="userSpaceOnUse" color-interpolation-filters="sRGB"><feFlood flood-color="#fff" result="bg"/><feBlend in="SourceGraphic" in2="bg"/></filter><mask id="mask-2" x="0" y="0" width="135.61" height="153.92" maskUnits="userSpaceOnUse"><g class="cls-1"><path class="cls-2" d="M135,35.54c-.46-1.09-2.2-2.79-4.48-4.22a18.87,18.87,0,0,0-5-2.27c0-.83-.41-1.35-1.78-1.41-.24,0-.46,0-.68,0-.28-4.05-1.45-8.46-4-11.3a9.47,9.47,0,0,0-1.86-1.88c-3.12-2.79-7.63-4-12.65-3.12-1.09.18-.9.91,2.45,1.9,2.74.82-6.13-.58-8.15.64-.91.54,3.35,1.54,4.25,2.08s-10.77-1.27-12.22.9c-1.21,1.82,7.15,2.06,9.7,2.93a17.16,17.16,0,0,0-2.47,8.68,19.18,19.18,0,0,0,.4,4.16,29.13,29.13,0,0,0,3.3,10.55c.43.78.83,1.56,1.21,2.33l.2.39c.32.64.61,1.28.9,1.91h0c.29.64.55,1.26.8,1.87l.18.42c.22.57.44,1.13.64,1.69l.19.54c.19.53.36,1.06.53,1.58.06.2.11.39.17.58.15.51.3,1,.42,1.52,0,.19.1.38.14.57.12.49.24,1,.34,1.48l.09.49c.09.51.18,1,.25,1.5,0,.06,0,.12,0,.19a27.33,27.33,0,0,1,.25,4.54c0,.24,0,.48,0,.72s0,.63-.08,1,0,.54-.09.81-.08.57-.13.85-.11.56-.17.83-.12.52-.19.77-.15.56-.24.84-.15.47-.23.69-.22.57-.34.85-.17.41-.26.6-.3.61-.47.91-.16.31-.25.46a14.28,14.28,0,0,1-.84,1.29h0a16.52,16.52,0,0,1-1.26,1.51C97.82,75.17,83.94,79.22,73,78.52c-.55,0-1.09-.12-1.62-.19l-.42-.06c-.39-.07-.78-.13-1.16-.21l-.5-.1q-.56-.12-1.08-.27c-.15,0-.3-.07-.45-.12-.49-.14-1-.29-1.44-.47-1.28-.48-2.49-.91-3.66-1.33a29.28,29.28,0,0,1-3.76-2.09,43.06,43.06,0,0,1-4.77-4.62c-9-26.5-18.8-72-21.11-68.91C19.77,17.53,36.18,48,34.49,49,31,51,19,6.09,15.19,10.75,4.56,23.87,22.72,50.45,21.7,53.07S8.23,32.27,6.49,33.76C-3,41.93,19.09,66.73,17.11,68S3.35,49.45,1.61,52C-4.75,61.2,8.66,84.5,26.27,100l-.46.1-.26.06-.29.09a3.89,3.89,0,0,0-.41.17l-.17.09-.26.17-.1.08a1.42,1.42,0,0,0-.22.28s0,.07-.05.1a1.09,1.09,0,0,0-.08.31s0,0,0,0a1.49,1.49,0,0,0,.06.4s0,.07,0,.11a2.46,2.46,0,0,0,.23.46c.24.37.5.71.77,1l.18.22c.27.33.55.64.84.94l.08.07a11.13,11.13,0,0,0,.88.8l.17.15c.32.27.66.52,1,.77l.08,0c.34.24.69.46,1.05.67l.09.06c.38.22.77.43,1.16.62l.05,0a21.21,21.21,0,0,0,2.48,1h0l-.55.16-.18.05-.41.17a1.36,1.36,0,0,0-.21.1,2.91,2.91,0,0,0-.3.17,1.18,1.18,0,0,0-.18.13,1.16,1.16,0,0,0-.2.18,1.15,1.15,0,0,0-.14.17,1.74,1.74,0,0,0-.11.18.8.8,0,0,0-.05.21,1.13,1.13,0,0,0,0,.18.92.92,0,0,0,0,.28,1.24,1.24,0,0,0,0,.16,2,2,0,0,0,.28.48,6.14,6.14,0,0,0,.6.67l.18.17c.21.2.44.39.68.58l.07,0c.27.21.57.4.88.6l.2.12c.29.17.6.34.92.5l.08,0c.37.18.75.36,1.14.53l.13,0c.39.16.78.32,1.19.47h0q1.34.48,2.79.87h0a2.08,2.08,0,0,0-.9.38l-.1.08a.65.65,0,0,0-.13.16.75.75,0,0,0-.13.25l0,.14a1.05,1.05,0,0,0,0,.31s0,.09,0,.13a2.71,2.71,0,0,0,.14.5,5.56,5.56,0,0,0,.39.77l.13.2c.12.19.26.37.4.55a1.83,1.83,0,0,0,.13.16,7.13,7.13,0,0,0,.61.62l.15.13a6.41,6.41,0,0,0,.58.45l.21.16c.24.16.49.32.75.47l.05,0c.29.16.58.3.89.45l.24.1.76.32.21.08c.33.12.67.23,1,.33l.14,0c.31.09.62.18.93.25l.24.06c.73.17,1.48.31,2.23.42l.16,0q.52.08,1,.12l.11,0c.79.07,1.57.12,2.33.13h.1c.78,0,1.53,0,2.25,0h0l.29.49c.07.11.14.22.2.33s.18.3.28.45l.23.37.27.45a3.45,3.45,0,0,1,.2.32l.6.91.17.25.34.5.18.26.37.51.16.21a23.81,23.81,0,0,0,2,2.34l.07.08.53.51.06.05a10.23,10.23,0,0,0,5,2.67c1.39,7.05,2,11.75,1.59,15.21a14.66,14.66,0,0,0-3.93,2.19c-.33-.55-.73-1-1.13-1-1,.08-1.73.58-1.32,2.75H77.49c.41-2.17-.33-2.67-1.31-2.75-.47,0-.94.58-1.3,1.24a32.52,32.52,0,0,0-4.41-2.12,30.39,30.39,0,0,1-.29-15.88,18.82,18.82,0,0,0,6.58-3.95,15.52,15.52,0,0,0,6.64,5c.83,7.16,1,11.81.14,15.22A16.26,16.26,0,0,0,81.49,152c-.32-.5-.7-.89-1.07-.86-1,.08-1.73.58-1.32,2.75H95.49c.41-2.17-.33-2.67-1.31-2.75-.56,0-1.11.83-1.49,1.61a25.57,25.57,0,0,0-6.13-2.94,30.17,30.17,0,0,1,.72-14.15c3.31-.61,7-3.39,11.07-9.65a25.12,25.12,0,0,0,2-3.56c15.56-9.88,26.11-27.87,26.18-42.06v-.15c0-.46,0-.92,0-1.36-.86-17.46-7.1-23.89-9.24-29.26v0c-.1-.25-.19-.51-.28-.76,0,0,0-.09,0-.14-.07-.22-.12-.43-.17-.64a1.89,1.89,0,0,1,0-.23c0-.19-.07-.37-.1-.56s0-.19,0-.28a4.71,4.71,0,0,1,0-.53c0-.11,0-.21,0-.32l0-.5c0-.12,0-.24,0-.36l.09-.49.09-.38c0-.17.1-.34.15-.51s.09-.27.14-.4l.22-.52.2-.44.29-.54.25-.46.38-.59.3-.46.31-.42c0,.56-.06,1.13-.1,1.73a22.28,22.28,0,0,0,.79,9.11,6.1,6.1,0,0,0,2.1,2.87,3.73,3.73,0,0,0,3,1.09c5-.64-.73-11.21-2.26-13.49a5.05,5.05,0,0,1-.35-4.39c.8-.49,3.26-1.63,7.07-.17C135.3,39.17,136.56,37.77,135,35.54Z"/></g></mask><linearGradient id="linear-gradient-2" x1="67.81" y1="39.35" x2="67.81" y2="152.71" gradientUnits="userSpaceOnUse"><stop offset="0.02" stop-color="#ffd995"/><stop offset="1" stop-color="#240043"/></linearGradient></defs><g class="cls-3"><g id="Calque_2" data-name="Calque 2"><g id="Calque_1-2" data-name="Calque 1"><path class="cls-4" d="M119.62,17.32c-2.9-4.8-8.54-7.06-15-6-1.09.18-.9.91,2.45,1.9,2.74.82-6.13-.58-8.15.64-.91.54,3.35,1.54,4.25,2.08s-10.77-1.27-12.22.9,10.77,2.09,10.41,3.53S119.62,17.32,119.62,17.32Z"/><path class="cls-5" d="M82.59,128.93c1.79,13.67,2.35,20.16-.18,24.54l5.09-.17a29.57,29.57,0,0,1,2.7-24.37Z"/><path class="cls-5" d="M94.25,153.92c-2-1.71-6.64-4-8.11-4.16s-5.26,2.36-6.63,4.16Z"/><path class="cls-6" d="M70.28,121c5.07,8,14.44,26.05,28.07,5.07C109,109.6,85,122.78,70.28,121Z"/><path class="cls-5" d="M64.67,128.75c2.9,13.78,4,20.31,1.81,24.72l5.07-.17a29.93,29.93,0,0,1,.72-24.55Z"/><path class="cls-5" d="M77.16,153.92c-2.07-1.71-7-4-8.57-4.16s-5.56,2.36-7,4.16Z"/><path class="cls-7" d="M48.53,113.57C22.63,105.52-7.31,64.9,1.61,52,3.35,49.45,15.13,69.36,17.11,68S-3,41.93,6.49,33.76C8.23,32.27,20.68,55.7,21.7,53.07S4.56,23.87,15.19,10.75C19,6.09,31,51,34.49,49,36.18,48,19.77,17.53,33,.15c3.2-4.22,20.73,84.21,30.54,87.2Z"/><path class="cls-8" d="M16.52,55.35c-4.11-5.82-10.66-14.5-10-21.59C-3,41.93,19.09,66.73,17.11,68S3.35,49.45,1.61,52c-8.92,12.92,21,53.54,46.92,61.59L61,97C46.69,91.68,26.08,69.34,16.52,55.35Z"/><path class="cls-9" d="M126.47,78.91c-1.45-29.42-18.18-27.54-4.83-42,2.9-3.14,2.9-25.59-11.1-23.42s-14.47,19.15-8.69,29.7c17.86,32.59-3.38,51.18-44.66,32.1C43.37,68.9,16.58,85.71,39.81,111.49,79.4,155.43,127.92,108.36,126.47,78.91Z"/><path class="cls-10" d="M66.16,79q-4.3-1.53-9-3.68a15.15,15.15,0,0,0-4.31-1.21A96,96,0,0,0,66.16,79Z"/><path class="cls-10" d="M126.47,78.91c-1.45-29.42-18.18-27.54-4.83-42,.92-1,1.54-3.93,1.53-7.4A30,30,0,0,1,117,38.35c-10.75,10.5,2.5,9.39,4,38.81,1.24,25.15-33.64,62.31-68.51,45.25C90.69,146.85,127.77,105.28,126.47,78.91Z"/><path class="cls-11" d="M121.64,36.9c2.9-3.14,2.9-25.59-11.1-23.42s-14.47,19.15-8.69,29.7c7.6,13.87,8.11,25.2,3,32.17,5.15,4.5,16.9,6,21.33,0C123.65,49.64,108.85,50.76,121.64,36.9Z"/><path class="cls-4" d="M122.15,30.1c.62-5.5-.75-17.89-11.13-17.38-5.91.3-12.75,6.75-12.87,15.75-.11,7.65,4.51,15.16,9.77,15.28S121.29,37.69,122.15,30.1Z"/><path class="cls-12" d="M115.46,26.16c.2-3.6-1-11.73-7.15-11.58-3.12.08-7.39,4.21-7.19,10.11.17,5,3.14,10,6.28,10.17S115.17,31.12,115.46,26.16Z"/><path class="cls-13" d="M121.64,36.9c.91-1,1.53-3.88,1.53-7.31-.55,3.05-1.51,5.44-2.53,6.28-16.76,13.72,0,14.76.22,42.89a9.6,9.6,0,0,0,5.34-3.41C123.65,49.64,108.85,50.76,121.64,36.9Z"/><path class="cls-9" d="M60.6,122.75c-3.2,2.2-19,2.27-21.72-4.57C36.22,111.61,65.9,122.72,60.6,122.75Z"/><path class="cls-9" d="M56.72,116.62c-3,2.47-21.26.63-25.59-5.06S60.7,108.08,56.72,116.62Z"/><path class="cls-9" d="M46.32,109.14c-3.34,2-16.47,1.81-22-6.64C20.4,96.58,51.6,101.34,46.32,109.14Z"/><path class="cls-9" d="M42.43,102.56c-3.73,1.11-19-1.89-21-11.65C19.94,84,49.43,96.27,42.43,102.56Z"/><path class="cls-9" d="M32.51,94.65c-7.15-7.87-11.18-11.3-7.46-14.38S38,87.38,38,87.38Z"/><path class="cls-9" d="M38.48,88.67C31.33,80.8,27.3,77.37,31,74.29S43.93,81.4,43.93,81.4Z"/><path class="cls-9" d="M48.78,77.35c-6.67-8.93-8.54-11.78-4.09-13.66s13,10.16,13,10.16Z"/><path class="cls-9" d="M41.39,81.06C35.78,73.82,32.05,69,36.5,67.12c3.44-1.45,11.41,7.61,11.41,7.61Z"/><path class="cls-14" d="M121.7,29.09A19,19,0,0,1,132,32.74c4.83,3.38,5.64,7.34-2.78,4.1-4.7-1.81-7.36.36-7.36.36C117.89,36.47,121.52,32.4,121.7,29.09Z"/><path class="cls-15" d="M122.88,28.59s3.2-.06,7.64,2.73c5.21,3.27,7.58,7.93-1.56,3.59a7.41,7.41,0,0,0-7,.31C119.3,34.39,122.82,30.76,122.88,28.59Z"/><path class="cls-16" d="M123.78,27.64c5.8.27-4.61,8.78-1.26,13.76,1.53,2.28,7.24,12.85,2.26,13.49-3.06.38-6.47-3.55-5.89-13C119.53,31.8,118.6,27.39,123.78,27.64Z"/><path class="cls-9" d="M53.08,121c5.07,8,11.59,23.9,28.06,5.07C95.22,110,68.83,123.32,53.08,121Z"/><path class="cls-17" d="M106.52,79.35s-1.13-.87-3.1-2.28c-12.48,12.77-40.73-.64-44.56-3.39s-9.72-11.86-14.17-10c-3.18,1.35-3.12,3.2-.39,7.4-2.57-2.33-5.88-4.77-7.8-4-3.18,1.34-2.17,4.21.72,8.38C34.9,74,32.52,73.05,31,74.29,28.36,76.5,29.69,78.9,33.28,83c-2.84-2.29-6.29-4.32-8.23-2.7-2.78,2.3-1.23,4.79,2.7,9.19-3.88-1-6.84-.85-6.35,1.45.86,4.13,4.09,7,7.8,9-3.71-.08-6.17.71-4.91,2.64a16.71,16.71,0,0,0,8.83,6.44c-2,.49-2.95,1.36-2,2.62,1.58,2.08,5,3.64,8.9,4.67-1.1.23-1.6.83-1.15,2,1.93,4.76,10.16,6.18,16.06,5.85,4.45,7.44,10.48,16.78,22.54,5.77C89.52,127.18,109.8,115.38,106.52,79.35Z"/><path class="cls-7" d="M105.59,79.46c-3.38-6-26.19,2.57-39.31-2.36s-20.85-6.45-23-3.47,8.3,8.56,11.2,10.62c-3.28-1.14-14.09-5.8-15.83-3.38-4,5.55,5.21,10.66,10.62,14.08-4.63-2.54-10.94-4.37-11.58-.28-.78,4.92,18.72,13.22,18.72,13.22s-13.13-5.65-13.51-3.46S45.62,119.11,73,119,111,89,105.59,79.46Z"/><path class="cls-18" d="M106,78.66c-3-5.25-21.6,1.3-35-.31a46.22,46.22,0,0,1-1.51,16.06C67,104,62.44,111.56,56.22,116.93a53.86,53.86,0,0,0,16.23,2.66C101.84,119.57,111.45,88.23,106,78.66Z"/><path class="cls-19" d="M106.82,20c2.09-1.72,8.62,3.63,5.53,9.6C111.08,32.07,104.61,21.86,106.82,20Z"/><path class="cls-19" d="M117.11,19.43c1.38-.95,4.87,2.88,2.57,6.45C118.74,27.34,115.65,20.44,117.11,19.43Z"/><path class="cls-20" d="M106,78.66c-2.52-5.31-19.89.7-33.09-.14a25.8,25.8,0,0,1-6.67-1.42c-13.13-4.93-20.85-6.45-23-3.47s8.3,8.56,11.2,10.62c-3.28-1.14-14.09-5.8-15.83-3.38-3.93,5.48,5,10.54,10.42,14a63.7,63.7,0,0,0,24.43,6.52C93.42,102.8,111.32,89.78,106,78.66Z"/><path class="cls-4" d="M104.16,47.81c5.32,11.76,5.22,21.36.71,27.54,3.15,2.75,8.76,4.37,13.66,3.85C116.77,56.47,109.32,49.85,104.16,47.81Z"/><path class="cls-21" d="M119.69,50.93c-1.25-4.33-1.5-10.41.33-10.91s4.17,7.58,4.84,9.58,1.58,5.08-.5,5.17S120.18,52.63,119.69,50.93Z"/><path class="cls-21" d="M119.57,30c-1,2.83-.48,7,.7,7.43s2.14-5.08,2.65-6.38,1.2-3.31-.16-3.44S119.94,28.89,119.57,30Z"/><path class="cls-17" d="M63.52,83.85c6.5,3.5,17.84,3.5,23.4.63A55.1,55.1,0,0,1,63.52,83.85Z"/><path class="cls-20" d="M95.15,78.35c3.76-1.85,13.75,2.75,7,5.62S87.27,82.22,95.15,78.35Z"/><path class="cls-22" d="M81.36,117.85c-8.57,2.39-31.63-.42-16.17-4S101,112.35,81.36,117.85Z"/><path class="cls-9" d="M114.77,92.22C114.4,95,118,97,119.15,93Z"/><path class="cls-9" d="M117.65,91.22C117.27,94,120.9,96,122,92Z"/><path class="cls-9" d="M115.53,94.34c-.39,2.75,3.23,4.76,4.37.77Z"/><path class="cls-9" d="M113.28,96c-.39,2.75,3.23,4.77,4.37.78Z"/><path class="cls-9" d="M116.65,89.47c-.38,2.75,3.25,4.75,4.37.75Z"/><path class="cls-9" d="M119.52,88.1c-.37,2.75,3.25,4.75,4.38.75Z"/><path class="cls-9" d="M116.9,87.35c-.38,2.75,3.25,4.75,4.37.75Z"/><path class="cls-9" d="M118.27,83.35c-.37,2.75,3.25,4.75,4.38.75Z"/><path class="cls-9" d="M120.13,82.45c-.09,2.78,3.72,4.4,4.43.31Z"/><path class="cls-9" d="M119.6,80.92c.3,2.76,4.3,3.82,4.43-.33Z"/><path class="cls-9" d="M118.72,79.64c.8,2.66,4.93,3,4.29-1.14Z"/><path class="cls-9" d="M119,85.85c-.37,2.75,3.25,4.75,4.38.75Z"/><path class="cls-23" d="M33.19,4.18c-6.5,7.17-1.5,46.84,15.33,54.17Z"/><path class="cls-23" d="M16.69,14.35c-6.42,7,8.5,45.67,21.5,49.17Z"/><path class="cls-5" d="M61.1,153.92c-.41-2.17.33-2.67,1.32-2.75s2,2.75,2,2.75Z"/><path class="cls-5" d="M77.49,153.92c.41-2.17-.33-2.67-1.31-2.75s-2,2.75-2,2.75Z"/><path class="cls-5" d="M79.1,153.92c-.41-2.17.33-2.67,1.32-2.75s2,2.75,2,2.75Z"/><path class="cls-5" d="M95.49,153.92c.41-2.17-.33-2.67-1.31-2.75s-2,2.75-2,2.75Z"/><g class="cls-24"><path class="cls-25" d="M135,35.54c-.46-1.09-2.2-2.79-4.48-4.22a18.87,18.87,0,0,0-5-2.27c0-.83-.41-1.35-1.78-1.41-.24,0-.46,0-.68,0-.28-4.05-1.45-8.46-4-11.3a9.47,9.47,0,0,0-1.86-1.88c-3.12-2.79-7.63-4-12.65-3.12-1.09.18-.9.91,2.45,1.9,2.74.82-6.13-.58-8.15.64-.91.54,3.35,1.54,4.25,2.08s-10.77-1.27-12.22.9c-1.21,1.82,7.15,2.06,9.7,2.93a17.16,17.16,0,0,0-2.47,8.68,19.18,19.18,0,0,0,.4,4.16,29.13,29.13,0,0,0,3.3,10.55c.43.78.83,1.56,1.21,2.33l.2.39c.32.64.61,1.28.9,1.91h0c.29.64.55,1.26.8,1.87l.18.42c.22.57.44,1.13.64,1.69l.19.54c.19.53.36,1.06.53,1.58.06.2.11.39.17.58.15.51.3,1,.42,1.52,0,.19.1.38.14.57.12.49.24,1,.34,1.48l.09.49c.09.51.18,1,.25,1.5,0,.06,0,.12,0,.19a27.33,27.33,0,0,1,.25,4.54c0,.24,0,.48,0,.72s0,.63-.08,1,0,.54-.09.81-.08.57-.13.85-.11.56-.17.83-.12.52-.19.77-.15.56-.24.84-.15.47-.23.69-.22.57-.34.85-.17.41-.26.6-.3.61-.47.91-.16.31-.25.46a14.28,14.28,0,0,1-.84,1.29h0a16.52,16.52,0,0,1-1.26,1.51C97.82,75.17,83.94,79.22,73,78.52c-.55,0-1.09-.12-1.62-.19l-.42-.06c-.39-.07-.78-.13-1.16-.21l-.5-.1q-.56-.12-1.08-.27c-.15,0-.3-.07-.45-.12-.49-.14-1-.29-1.44-.47-1.28-.48-2.49-.91-3.66-1.33a29.28,29.28,0,0,1-3.76-2.09,43.06,43.06,0,0,1-4.77-4.62c-9-26.5-18.8-72-21.11-68.91C19.77,17.53,36.18,48,34.49,49,31,51,19,6.09,15.19,10.75,4.56,23.87,22.72,50.45,21.7,53.07S8.23,32.27,6.49,33.76C-3,41.93,19.09,66.73,17.11,68S3.35,49.45,1.61,52C-4.75,61.2,8.66,84.5,26.27,100l-.46.1-.26.06-.29.09a3.89,3.89,0,0,0-.41.17l-.17.09-.26.17-.1.08a1.42,1.42,0,0,0-.22.28s0,.07-.05.1a1.09,1.09,0,0,0-.08.31s0,0,0,0a1.49,1.49,0,0,0,.06.4s0,.07,0,.11a2.46,2.46,0,0,0,.23.46c.24.37.5.71.77,1l.18.22c.27.33.55.64.84.94l.08.07a11.13,11.13,0,0,0,.88.8l.17.15c.32.27.66.52,1,.77l.08,0c.34.24.69.46,1.05.67l.09.06c.38.22.77.43,1.16.62l.05,0a21.21,21.21,0,0,0,2.48,1h0l-.55.16-.18.05-.41.17a1.36,1.36,0,0,0-.21.1,2.91,2.91,0,0,0-.3.17,1.18,1.18,0,0,0-.18.13,1.16,1.16,0,0,0-.2.18,1.15,1.15,0,0,0-.14.17,1.74,1.74,0,0,0-.11.18.8.8,0,0,0-.05.21,1.13,1.13,0,0,0,0,.18.92.92,0,0,0,0,.28,1.24,1.24,0,0,0,0,.16,2,2,0,0,0,.28.48,6.14,6.14,0,0,0,.6.67l.18.17c.21.2.44.39.68.58l.07,0c.27.21.57.4.88.6l.2.12c.29.17.6.34.92.5l.08,0c.37.18.75.36,1.14.53l.13,0c.39.16.78.32,1.19.47h0q1.34.48,2.79.87h0a2.08,2.08,0,0,0-.9.38l-.1.08a.65.65,0,0,0-.13.16.75.75,0,0,0-.13.25l0,.14a1.05,1.05,0,0,0,0,.31s0,.09,0,.13a2.71,2.71,0,0,0,.14.5,5.56,5.56,0,0,0,.39.77l.13.2c.12.19.26.37.4.55a1.83,1.83,0,0,0,.13.16,7.13,7.13,0,0,0,.61.62l.15.13a6.41,6.41,0,0,0,.58.45l.21.16c.24.16.49.32.75.47l.05,0c.29.16.58.3.89.45l.24.1.76.32.21.08c.33.12.67.23,1,.33l.14,0c.31.09.62.18.93.25l.24.06c.73.17,1.48.31,2.23.42l.16,0q.52.08,1,.12l.11,0c.79.07,1.57.12,2.33.13h.1c.78,0,1.53,0,2.25,0h0l.29.49c.07.11.14.22.2.33s.18.3.28.45l.23.37.27.45a3.45,3.45,0,0,1,.2.32l.6.91.17.25.34.5.18.26.37.51.16.21a23.81,23.81,0,0,0,2,2.34l.07.08.53.51.06.05a10.23,10.23,0,0,0,5,2.67c1.39,7.05,2,11.75,1.59,15.21a14.66,14.66,0,0,0-3.93,2.19c-.33-.55-.73-1-1.13-1-1,.08-1.73.58-1.32,2.75H77.49c.41-2.17-.33-2.67-1.31-2.75-.47,0-.94.58-1.3,1.24a32.52,32.52,0,0,0-4.41-2.12,30.39,30.39,0,0,1-.29-15.88,18.82,18.82,0,0,0,6.58-3.95,15.52,15.52,0,0,0,6.64,5c.83,7.16,1,11.81.14,15.22A16.26,16.26,0,0,0,81.49,152c-.32-.5-.7-.89-1.07-.86-1,.08-1.73.58-1.32,2.75H95.49c.41-2.17-.33-2.67-1.31-2.75-.56,0-1.11.83-1.49,1.61a25.57,25.57,0,0,0-6.13-2.94,30.17,30.17,0,0,1,.72-14.15c3.31-.61,7-3.39,11.07-9.65a25.12,25.12,0,0,0,2-3.56c15.56-9.88,26.11-27.87,26.18-42.06v-.15c0-.46,0-.92,0-1.36-.86-17.46-7.1-23.89-9.24-29.26v0c-.1-.25-.19-.51-.28-.76,0,0,0-.09,0-.14-.07-.22-.12-.43-.17-.64a1.89,1.89,0,0,1,0-.23c0-.19-.07-.37-.1-.56s0-.19,0-.28a4.71,4.71,0,0,1,0-.53c0-.11,0-.21,0-.32l0-.5c0-.12,0-.24,0-.36l.09-.49.09-.38c0-.17.1-.34.15-.51s.09-.27.14-.4l.22-.52.2-.44.29-.54.25-.46.38-.59.3-.46.31-.42c0,.56-.06,1.13-.1,1.73a22.28,22.28,0,0,0,.79,9.11,6.1,6.1,0,0,0,2.1,2.87,3.73,3.73,0,0,0,3,1.09c5-.64-.73-11.21-2.26-13.49a5.05,5.05,0,0,1-.35-4.39c.8-.49,3.26-1.63,7.07-.17C135.3,39.17,136.56,37.77,135,35.54Z"/></g></g></g></g></svg>