<svg xmlns="http://www.w3.org/2000/svg" xmlns:xlink="http://www.w3.org/1999/xlink" viewBox="0 0 120.22 137.75"><defs><style>.cls-1{mask:url(#mask);filter:url(#luminosity-noclip-2);}.cls-2{mix-blend-mode:multiply;fill:url(#linear-gradient);}.cls-3{isolation:isolate;}.cls-4{fill:#cddce0;}.cls-5{fill:#ffaf8f;}.cls-6{fill:#e5865c;}.cls-7{fill:#7c9499;}.cls-8{fill:#b4c6cc;}.cls-9{fill:#9ab1b7;}.cls-10{fill:#ffece6;}.cls-11{fill:#eac7be;}.cls-12{fill:#e9f2f4;}.cls-13{fill:#c9663f;}.cls-14{fill:#5b3c31;}.cls-15{fill:#ddeaed;}.cls-16{mask:url(#mask-2);}.cls-17{opacity:0.6;mix-blend-mode:overlay;fill:url(#linear-gradient-2);}.cls-18{filter:url(#luminosity-noclip);}</style><filter id="luminosity-noclip" x="0" y="-7638.16" width="120.22" height="32766" filterUnits="userSpaceOnUse" color-interpolation-filters="sRGB"><feFlood flood-color="#fff" result="bg"/><feBlend in="SourceGraphic" in2="bg"/></filter><mask id="mask" x="0" y="-7638.16" width="120.22" height="32766" maskUnits="userSpaceOnUse"><g class="cls-18"/></mask><linearGradient id="linear-gradient" x1="57.36" y1="12.01" x2="62.03" y2="143.67" gradientUnits="userSpaceOnUse"><stop offset="0.02" stop-color="#999"/><stop offset="1" stop-color="#fff"/></linearGradient><filter id="luminosity-noclip-2" x="0" y="0" width="120.22" height="137.75" filterUnits="userSpaceOnUse" color-interpolation-filters="sRGB"><feFlood flood-color="#fff" result="bg"/><feBlend in="SourceGraphic" in2="bg"/></filter><mask id="mask-2" x="0" y="0" width="120.22" height="137.75" maskUnits="userSpaceOnUse"><g class="cls-1"><path class="cls-2" d="M115.54,53.71a23.93,23.93,0,0,0-2.2-4.68l.07-.05c-.15-.54-.34-1.09-.55-1.65l-.09-.24q-.31-.81-.69-1.62l-.15-.31c-.26-.55-.54-1.1-.84-1.66l-.15-.26c-.32-.58-.66-1.17-1-1.76v0c-.38-.6-.77-1.21-1.19-1.81l-.18-.27c-.41-.58-.83-1.17-1.27-1.76L107,37.3c-.45-.59-.91-1.18-1.39-1.78l-.2-.24c-.51-.62-1-1.24-1.56-1.85l0,0c-.54-.62-1.1-1.24-1.67-1.86a3.33,3.33,0,0,0-.25-.28c-.55-.6-1.12-1.19-1.7-1.79l-.3-.31c-.59-.6-1.19-1.2-1.8-1.79l-.22-.22-2-1.86,0,0c-.66-.61-1.34-1.22-2-1.83l-.27-.24c-.66-.59-1.33-1.16-2-1.74l-.31-.27-2.08-1.72L89,19.3c-1.47-1.18-3-2.34-4.46-3.46l-.26-.19c-.72-.54-1.45-1.07-2.18-1.59l-.28-.2-2.24-1.55-.13-.09c-1.54-1-3.09-2-4.63-3l-.22-.13c-.74-.45-1.47-.89-2.21-1.32l-.23-.13C71.45,7.22,70.7,6.8,70,6.4l-.08,0c-1.51-.83-3-1.59-4.46-2.27L65.26,4q-1-.49-2.07-.93L63,3c-.69-.29-1.38-.57-2-.82l0,0C59.55,1.65,58.23,1.22,57,.88l-.15,0c-.6-.16-1.18-.3-1.75-.41l-.15,0Q54.06.22,53.25.13h0C50-.25,47.46.24,45.87,1.82c-7.66,7.58,19.85,20.67,39,36.89l-.46.1c-.48.14-.94.29-1.38.46-15.39-9.56-57.33-29.41-63.2-18-6.12,11.93,34.64,22,54.66,33.15a38.31,38.31,0,0,0,.75,5.63c-.17,2.83-1.55,8.13-8.93,11.95-.48.22-1,.42-1.48.62-40.17,8.82-45.28,30.11-46.58,36.81l0,.06c-.34.94-.63,1.91-.89,2.91C15,109,11.93,106.12,9,106.65c-14.42,2.62-11.65,33.46,8.75,27,.31,1.33.66,2.68,1.07,4.07H89.15c6.89-11.34-8.2-8.33-8.2-8.33,1.45-.51,16.06-18.2,8.34-29.1l.66-2c.3-.88.63-1.71,1-2.51h0C96,99.56,94,111.92,97.42,112.87c2.81.77,9.45-3,9.26-6.18-.61-10.49-6.08-16.24-11.23-18.54a30.89,30.89,0,0,1,3.32-3.49L103,81.31c3.78-2.71,7.39-4.83,9.73-8.12a14.7,14.7,0,0,0,3.52-7.9,6.1,6.1,0,0,0,3.55-3.81C121.1,58.17,119.38,54,115.54,53.71Z"/></g></mask><linearGradient id="linear-gradient-2" x1="57.36" y1="12.01" x2="62.03" y2="143.67" gradientUnits="userSpaceOnUse"><stop offset="0.02" stop-color="#ffd995"/><stop offset="1" stop-color="#240043"/></linearGradient></defs><g class="cls-3"><g id="Calque_2" data-name="Calque 2"><g id="Calque_1-2" data-name="Calque 1"><path class="cls-4" d="M79.37,57.48C62.2,45.15,13.2,34.32,19.87,21.32S79.7,35.65,87.7,42.48Z"/><path class="cls-5" d="M76.33,53.52c-14.91-9.71-59.92-20.76-54.13-31S73.88,36.89,80.83,42.27Z"/><path class="cls-6" d="M22.2,22.52a3.85,3.85,0,0,0-.49,1.54C35.73,23.78,68,41,73.79,45.48l-1.17,5.9c1.37.72,2.62,1.43,3.71,2.14l4.5-11.25C73.88,36.89,28,12.28,22.2,22.52Z"/><path class="cls-7" d="M90.93,95.81C96,99.56,94,111.92,97.42,112.87c2.81.77,9.45-3,9.26-6.18C105.19,81,74.57,83.73,90.93,95.81Z"/><path class="cls-7" d="M80.7,94.41c23.32,8.28,2,34.39.25,35,0,0,15.09-3,8.2,8.33H43.94C31.75,100.21,61.31,87.53,80.7,94.41Z"/><path class="cls-8" d="M100.26,57.05C89.7,32.48,35.49,12.1,45.87,1.82S107.24,27.32,113.41,49Z"/><path class="cls-9" d="M51.6,0C66.44,10.43,83.06,28.19,88.35,41.74c5.28,4.87,9.62,10,11.91,15.31L113.41,49C108,30.06,68.45.37,51.6,0Z"/><path class="cls-8" d="M19.12,137.75c-5.42-23.67-2.5-52.5,41.5-63.75,9.35-2.39,16.09-6.76,15-19.5C73.87,34,98.11,37.18,102.12,38.75c5.75,2.25,21,15.28,11.5,33-4.75,8.83-18.2,8.58-24.08,25.83-2.75,8.07-7.42,28.73-18.67,40.17Z"/><path class="cls-4" d="M76.29,64.31c-1.68-6.31-5.5-21.66,8.16-25.5S111.62,52.65,104.62,65,79.12,75,76.29,64.31Z"/><path class="cls-4" d="M75.2,84.15c1.29-3.42,7.5-9.25,18.88-10.75L75.2,58.15S77.45,69.52,60.33,74.4Z"/><path class="cls-9" d="M83.54,97.58c-2.75,8.07-7.42,28.73-18.67,40.17h6C82.12,126.31,87.2,106.38,90,98.31c5.89-17.25,18.92-17.73,23.67-26.56C102.7,81.27,86.69,88.34,83.54,97.58Z"/><path class="cls-9" d="M62,98.65c7,10,11.84,4.83,7.67-5.67l5.17-8.17c7.73,4.18,13.1,6.79,17.5,3.5-4,15.62-15.51,36.16-24.5,49.34L43.45,137Z"/><path class="cls-9" d="M18.87,133.32c-21.37,7.87-24.5-24-9.83-26.67C15.61,105.45,22.87,122,22.87,122S22,132.15,18.87,133.32Z"/><path class="cls-8" d="M13.29,128.15c-14.37,9.58-16.83-18.08-5.85-20.29C13,106.75,17.79,125.15,13.29,128.15Z"/><path class="cls-4" d="M70.93,93.62c3.94,4.94-1.22,16.35,1.85,18.16,2.51,1.47,9.89-.41,10.55-3.58C88.53,83,58.24,77.72,70.93,93.62Z"/><path class="cls-9" d="M90.45,60.4c-4.86,10.7,8.13,13.5-4.62,34.12C85.17,95.58,107,78.15,107,78.15s11-6.25,9.13-16.25Z"/><path class="cls-10" d="M111.2,63.54c-1.2,5.22-3.33,8.46-5.34,7.89s-3.25-5.82-2-8.57A12.77,12.77,0,0,1,111.2,63.54Z"/><path class="cls-11" d="M110.49,66.08c.2-.61.39-1.26.56-2-1.62-.41-5.1-.92-7.68,1.25a13.78,13.78,0,0,0,.46,3.33C105.18,67.55,107.46,65.55,110.49,66.08Z"/><path class="cls-12" d="M90.24,60c-2,4.8,2.63,9.39,6.13,9.75,8.08.84,7.83-4.33,11.42-4.91,2.06-.34,9.2,3.71,12-3.34,1.34-3.39-.49-7.74-4.55-7.79-3.58,0-6.12,3.3-9.62,3.63S94,51,90.24,60Z"/><path class="cls-6" d="M102.37,56.32c.08-1,3.42-4,4.5-3.59,1.39.54,4.22,2.38,3.17,3.34a15.37,15.37,0,0,1-3.17,2.41C105.54,58.93,102.26,57.67,102.37,56.32Z"/><path class="cls-13" d="M107.36,53a4.15,4.15,0,0,1,.47,1.88,4.37,4.37,0,0,1-2.15,3.7,2.7,2.7,0,0,0,1.19-.05A15.37,15.37,0,0,0,110,56.07C111,55.22,108.82,53.65,107.36,53Z"/><path class="cls-14" d="M100.71,51.64a4.58,4.58,0,0,0-5.83,1.27L95.49,54a4.65,4.65,0,0,1,5.12-1.22Z"/><path class="cls-14" d="M114.16,51.2a3.92,3.92,0,0,0-5-.71l.16,1a3.76,3.76,0,0,1,2.38-.41,3.89,3.89,0,0,1,2.1.95Z"/><path class="cls-5" d="M108.82,54.54c-.6.48-4.65,2.27-5.35,1.93-.44-.21.46-2.62,3.09-3A2.8,2.8,0,0,1,108.82,54.54Z"/><path class="cls-4" d="M18.29,109.48c1.33-6.83,6.59-28.85,49-37.33,6.66-1.34,19.5,10.16-9,32S18.29,109.48,18.29,109.48Z"/><path class="cls-9" d="M66.83,103.65c0-18.52-35.5-17.53-35.5-1.63,0,8.29,19.09,16.13,25.06,16.13S66.83,111.93,66.83,103.65Z"/><path class="cls-4" d="M55.68,92.64c21.9,8.54-4.64,36.88-6.3,37.51,0,0,18.41-4.12,11.94,7.6H18.86C7.41,99,37.47,85.53,55.68,92.64Z"/><path class="cls-12" d="M75.67,109.07c.06-1.36-.62-2.49-1.52-2.53s-1.67,1-1.73,2.38.62,2.49,1.51,2.53S75.61,110.42,75.67,109.07Z"/><path class="cls-12" d="M79.47,108.74c.06-1.36-.62-2.49-1.51-2.53s-1.68,1-1.74,2.38.62,2.49,1.52,2.53S79.42,110.09,79.47,108.74Z"/><path class="cls-12" d="M83.29,106.82c.06-1.36-.62-2.49-1.52-2.53s-1.68,1-1.74,2.39.62,2.48,1.52,2.52S83.23,108.18,83.29,106.82Z"/><path class="cls-15" d="M20.4,133.23C15.47,128.84,17,92.46,41,93.6S35.5,146.69,20.4,133.23Z"/><path class="cls-9" d="M76.62,82c-3.5,1.42-5,3.17.17,4.33C75.44,84.83,75.31,83.66,76.62,82Z"/><path class="cls-15" d="M75.44,55.15c-1.13-5,1.47-13.9,7.22-13.21s6.41,10.42,4.21,14S77.07,62.39,75.44,55.15Z"/><path class="cls-15" d="M48.91,137.27c.14-1.63.54-2.72,1.56-2.65,1.4.09.68,2.65.68,2.65Z"/><path class="cls-15" d="M52.27,137.27c.2-2.44.81-4.07,2.34-4,2.09.14,1,4,1,4Z"/><path class="cls-15" d="M56.7,137.27c.25-3,1-5,2.88-4.87,2.57.17,1.25,4.87,1.25,4.87Z"/><path class="cls-4" d="M2,117.65c-1.49-3.6,2-7.34,4.67-6.84s4.17,4.34,3.33,6.34S4,122.48,2,117.65Z"/><g class="cls-16"><path class="cls-17" d="M115.54,53.71a23.93,23.93,0,0,0-2.2-4.68l.07-.05c-.15-.54-.34-1.09-.55-1.65l-.09-.24q-.31-.81-.69-1.62l-.15-.31c-.26-.55-.54-1.1-.84-1.66l-.15-.26c-.32-.58-.66-1.17-1-1.76v0c-.38-.6-.77-1.21-1.19-1.81l-.18-.27c-.41-.58-.83-1.17-1.27-1.76L107,37.3c-.45-.59-.91-1.18-1.39-1.78l-.2-.24c-.51-.62-1-1.24-1.56-1.85l0,0c-.54-.62-1.1-1.24-1.67-1.86a3.33,3.33,0,0,0-.25-.28c-.55-.6-1.12-1.19-1.7-1.79l-.3-.31c-.59-.6-1.19-1.2-1.8-1.79l-.22-.22-2-1.86,0,0c-.66-.61-1.34-1.22-2-1.83l-.27-.24c-.66-.59-1.33-1.16-2-1.74l-.31-.27-2.08-1.72L89,19.3c-1.47-1.18-3-2.34-4.46-3.46l-.26-.19c-.72-.54-1.45-1.07-2.18-1.59l-.28-.2-2.24-1.55-.13-.09c-1.54-1-3.09-2-4.63-3l-.22-.13c-.74-.45-1.47-.89-2.21-1.32l-.23-.13C71.45,7.22,70.7,6.8,70,6.4l-.08,0c-1.51-.83-3-1.59-4.46-2.27L65.26,4q-1-.49-2.07-.93L63,3c-.69-.29-1.38-.57-2-.82l0,0C59.55,1.65,58.23,1.22,57,.88l-.15,0c-.6-.16-1.18-.3-1.75-.41l-.15,0Q54.06.22,53.25.13h0C50-.25,47.46.24,45.87,1.82c-7.66,7.58,19.85,20.67,39,36.89l-.46.1c-.48.14-.94.29-1.38.46-15.39-9.56-57.33-29.41-63.2-18-6.12,11.93,34.64,22,54.66,33.15a38.31,38.31,0,0,0,.75,5.63c-.17,2.83-1.55,8.13-8.93,11.95-.48.22-1,.42-1.48.62-40.17,8.82-45.28,30.11-46.58,36.81l0,.06c-.34.94-.63,1.91-.89,2.91C15,109,11.93,106.12,9,106.65c-14.42,2.62-11.65,33.46,8.75,27,.31,1.33.66,2.68,1.07,4.07H89.15c6.89-11.34-8.2-8.33-8.2-8.33,1.45-.51,16.06-18.2,8.34-29.1l.66-2c.3-.88.63-1.71,1-2.51h0C96,99.56,94,111.92,97.42,112.87c2.81.77,9.45-3,9.26-6.18-.61-10.49-6.08-16.24-11.23-18.54a30.89,30.89,0,0,1,3.32-3.49L103,81.31c3.78-2.71,7.39-4.83,9.73-8.12a14.7,14.7,0,0,0,3.52-7.9,6.1,6.1,0,0,0,3.55-3.81C121.1,58.17,119.38,54,115.54,53.71Z"/></g></g></g></g></svg>