<svg xmlns="http://www.w3.org/2000/svg" xmlns:xlink="http://www.w3.org/1999/xlink" viewBox="0 0 148.57 130.46"><defs><style>.cls-1{mask:url(#mask);filter:url(#luminosity-noclip-2);}.cls-2,.cls-9{mix-blend-mode:multiply;}.cls-2{fill:url(#linear-gradient);}.cls-3{isolation:isolate;}.cls-4{fill:#9e5d52;}.cls-5{fill:#7f433b;}.cls-6{fill:#e5cdbd;}.cls-7{fill:#edd9cc;}.cls-8{fill:#efded3;}.cls-9{fill:#af8c74;opacity:0.4;}.cls-10{fill:#917b6e;}.cls-11{fill:#c4ab9d;}.cls-12{fill:#a59083;}.cls-13{fill:#a5a535;}.cls-14{fill:#9e9e36;}.cls-15{fill:#7a6559;}.cls-16{fill:#514037;}.cls-17{fill:#fcefe6;}.cls-18{mask:url(#mask-2);}.cls-19{opacity:0.6;mix-blend-mode:overlay;fill:url(#linear-gradient-2);}.cls-20{filter:url(#luminosity-noclip);}</style><filter id="luminosity-noclip" x="0" y="-7956.46" width="148.57" height="32766" filterUnits="userSpaceOnUse" color-interpolation-filters="sRGB"><feFlood flood-color="#fff" result="bg"/><feBlend in="SourceGraphic" in2="bg"/></filter><mask id="mask" x="0" y="-7956.46" width="148.57" height="32766" maskUnits="userSpaceOnUse"><g class="cls-20"/></mask><linearGradient id="linear-gradient" x1="74.28" y1="6.44" x2="74.28" y2="126.46" gradientUnits="userSpaceOnUse"><stop offset="0.02" stop-color="#999"/><stop offset="1" stop-color="#fff"/></linearGradient><filter id="luminosity-noclip-2" x="0" y="0" width="148.57" height="130.46" filterUnits="userSpaceOnUse" color-interpolation-filters="sRGB"><feFlood flood-color="#fff" result="bg"/><feBlend in="SourceGraphic" in2="bg"/></filter><mask id="mask-2" x="0" y="0" width="148.57" height="130.46" maskUnits="userSpaceOnUse"><g class="cls-1"><path class="cls-2" d="M143.32,58.88s-4.09-5.06-9.09-6.34l.06-.09c2.41.21,10.75,1.21,14.28,4.66,0,0-4.17-4.33-13.43-6.19a5,5,0,0,0,.45-2.27,6.49,6.49,0,0,0,1.08-1.08c3.7-4.83-.27-9.66-.27-9.66s10.86,2.15,10.86-4.56c0-3.46-2.76-5.85-5.43-7.35a6.59,6.59,0,0,0,3.29-2c2.39-2.6-.68-5.06-4.77-6.63a6.72,6.72,0,0,0-.77-1.21c-3.46-4.45-10-2.16-11.55-1.5l0-.26c1.1-1.45,4.23-6.34-1.13-9.51-6.36-3.76-6.62,2.68-6.62,2.68S119.19-1,114.68.09s-4.76,6.44-4.76,6.44.53-7.78-5.83-5.9-3.71,9.66-3.71,9.66S93.76,6,90.31,13.77c-.06.14-.11.27-.16.4h0v0c-.25.61-.46,1.18-.62,1.7-4.52,1.2-8.55,4.3-8.45,9.17a3.08,3.08,0,0,0,1.06,2.5,4.89,4.89,0,0,0-.55.43c-2.36,2-1.94,4.84-1.31,6.61-.79-1.34-2.19-2.86-4.26-2.05s-2.23,3.67-2,5.6a6.19,6.19,0,0,0-6-4.53c-5.47-.24-5.6,5.12-5.57,6.23-.06-1.11-.65-6.47-6.35-6.23-4.88.21-5.7,1.83-5.82,2.58,0-1.51-.33-7.14-5.83-7.14-6.36,0-5.83,4.83-5.83,4.83s-1.59-5.36-6.89-3.76-5.56,7.25-5.56,7.25S22,29.6,15.63,32s-4,9.12-4,9.12S4.5,40.06,1.06,48.38s5,11.8,5,11.8-4.5,1.87-4.5,5.09,4,5.1,4,5.1A7.72,7.72,0,0,0,0,78.15c0,6.44,4.77,6.44,4.77,6.44A3.57,3.57,0,0,0,4,88.88c1.33,2.41,5.57.8,5.57.8a15.67,15.67,0,0,0-1.65,3.71h0c-.74,2.53-.86,5.78,2.17,7.83,5.57,3.75,10.07,2.14,10.07,2.14A9.8,9.8,0,0,0,26,108.19a5.64,5.64,0,0,0,.78.21l3.72,22.06h2.91l.33-24.55a13.57,13.57,0,0,0,1.26-1.2,8.65,8.65,0,0,0,7.15,6.16,9.25,9.25,0,0,0,4.27-.44l.29,7.39h0l.49,12.64h2.35l2.57-23.76c.23-.23.36-.39.36-.39s4.24,3.76,8.48,3.76,7.15-5.63,7.15-5.63a20.29,20.29,0,0,0,2.55,3.83l4.6,22.19h2.91l-.24-12.64h0l-.1-4.91a6,6,0,0,0,.61.11c4.54.55,8.21-4.29,8.21-4.29s1.41,6.41,9.25,5.7l-.51,16h2.91l4-18.9a7,7,0,0,0,1.1-5.18l.1-.43c1,.77,5.45,3.84,9.32.63,2.91-2.41,5-5.63,2.38-8.58a5.42,5.42,0,0,0,5.56-2.42c2.12-3.21,0-4.82-1.85-5.63,0,0,8.48-4,10.59-12.34S123.69,65,123.69,65a9.55,9.55,0,0,0,4.66-1.6h0c.13-.09.26-.2.39-.31l.27-.22.32-.33.29-.32c.09-.11.18-.24.27-.36l.27-.41.21-.4a4.52,4.52,0,0,0,.23-.5c.06-.14.11-.28.16-.43a5.79,5.79,0,0,0,.17-.63c0-.15.07-.3.1-.45s.06-.53.08-.81,0-.28,0-.43a11.22,11.22,0,0,0-.05-1.39c0-.28-.06-.53-.1-.79l.12-.3a58.83,58.83,0,0,1,6,2.26s-3.69-2.35-5-3.28a3.37,3.37,0,0,0,.32-.19A22,22,0,0,1,143.32,58.88Z"/></g></mask><linearGradient id="linear-gradient-2" x1="74.28" y1="6.44" x2="74.28" y2="126.46" gradientUnits="userSpaceOnUse"><stop offset="0.02" stop-color="#ffd995"/><stop offset="1" stop-color="#240043"/></linearGradient></defs><g class="cls-3"><g id="Calque_2" data-name="Calque 2"><g id="Calque_1-2" data-name="Calque 1"><polygon class="cls-4" points="98.26 130.46 95.35 130.46 96.41 97.46 105.15 98.27 98.26 130.46"/><polygon class="cls-4" points="78.13 130.46 75.22 130.46 68.6 98.53 77.53 99.31 78.13 130.46"/><polygon class="cls-4" points="49.51 130.46 47.16 130.46 45.88 97.73 52.97 98.53 49.51 130.46"/><polygon class="cls-4" points="33.37 130.46 30.46 130.46 24.9 97.46 33.8 98.27 33.37 130.46"/><polygon class="cls-5" points="96.41 97.46 95.75 117.82 100.97 117.82 105.15 98.27 96.41 97.46"/><polygon class="cls-5" points="68.6 98.53 72.6 117.82 77.89 117.82 77.53 99.31 68.6 98.53"/><polygon class="cls-5" points="45.88 97.73 46.67 117.82 50.88 117.82 52.97 98.53 45.88 97.73"/><polygon class="cls-5" points="24.9 97.46 28.33 117.82 33.54 117.82 33.8 98.27 24.9 97.46"/><path class="cls-6" d="M136.93,24s6.62-2.68,2.65-7.77-11.92-1.35-11.92-1.35,5.56-6.16-.79-9.92-6.62,2.68-6.62,2.68S119.19-1,114.68.09s-4.76,6.44-4.76,6.44.53-7.78-5.83-5.9-3.71,9.66-3.71,9.66S93.76,6,90.31,13.77C88,19,89.39,21,90.56,21.67c-1.65-.56-4.74-1.31-6.07.42-1,1.29-.39,3.51.39,5.3-.74-.59-1.8-.71-3.3.6-2.36,2-1.94,4.84-1.31,6.61-.79-1.34-2.19-2.86-4.26-2.05s-2.23,3.67-2,5.6a6.19,6.19,0,0,0-6-4.53c-5.47-.24-5.6,5.12-5.57,6.23-.06-1.11-.65-6.47-6.35-6.23-4.88.21-5.7,1.83-5.82,2.58,0-1.51-.33-7.14-5.83-7.14-6.36,0-5.83,4.83-5.83,4.83s-1.59-5.36-6.89-3.76-5.56,7.25-5.56,7.25S22,29.6,15.63,32s-4,9.12-4,9.12S4.5,40.06,1.06,48.38s5,11.8,5,11.8-4.5,1.87-4.5,5.09,4,5.1,4,5.1A7.72,7.72,0,0,0,0,78.15c0,6.44,4.77,6.44,4.77,6.44A3.57,3.57,0,0,0,4,88.88c1.33,2.41,5.57.8,5.57.8s-5,7.78.52,11.54,10.07,2.14,10.07,2.14A9.8,9.8,0,0,0,26,108.19c4.5,1.61,9-3.48,9-3.48a8.65,8.65,0,0,0,7.15,6.16c5.83.81,10.33-4.56,10.33-4.56s4.24,3.76,8.48,3.76,7.15-5.63,7.15-5.63,3.7,7.78,10.33,8.58c4.54.55,8.21-4.29,8.21-4.29s1.65,7.55,11.39,5.36c7.15-1.61,5.29-8.31,5.29-8.31s5.15,4.44,9.54.8c2.91-2.41,5-5.63,2.38-8.58a5.42,5.42,0,0,0,5.56-2.42c2.12-3.21,0-4.82-1.85-5.63,0,0,8.48-4,10.59-12.34S123.69,65,123.69,65s8.21-.27,7.41-8.59c-.31-3.32-1.48-5-2.76-5.85,2.78.11,6.3-.36,8.33-3,3.7-4.83-.27-9.66-.27-9.66s10.86,2.15,10.86-4.56S136.93,24,136.93,24Z"/><path class="cls-7" d="M54.25,89.79c35.5-11.1,58.94-37.2,52.34-58.28-2.36-7.54-8.24-13.4-16.44-17.34-2.06,4.92-.72,6.8.41,7.5-1.65-.56-4.74-1.31-6.07.42-1,1.29-.39,3.51.39,5.3-.74-.59-1.8-.71-3.3.6-2.36,2-1.94,4.84-1.31,6.61-.79-1.34-2.19-2.86-4.26-2.05s-2.23,3.67-2,5.6a6.19,6.19,0,0,0-6-4.53c-5.47-.24-5.6,5.12-5.57,6.23-.06-1.11-.65-6.47-6.35-6.23-4.88.21-5.7,1.83-5.82,2.58,0-1.51-.33-7.14-5.83-7.14-6.36,0-5.83,4.83-5.83,4.83s-1.59-5.36-6.89-3.76-5.56,7.25-5.56,7.25S22,29.6,15.63,32s-4,9.12-4,9.12S4.5,40.06,1.06,48.38s5,11.8,5,11.8-4.5,1.87-4.5,5.09,4,5.1,4,5.1A7.72,7.72,0,0,0,0,78.15c0,6.44,4.77,6.44,4.77,6.44A3.57,3.57,0,0,0,4,88.88c1.33,2.41,5.57.8,5.57.8a15.67,15.67,0,0,0-1.65,3.71C21.24,96,37.59,95,54.25,89.79Z"/><path class="cls-8" d="M75.67,100.94c3.84.42,7-3.24,7-3.24s1.4,5.7,9.64,4c6.06-1.21,4.49-6.27,4.49-6.27s4.36,3.35,8.07.6c2.47-1.82,4.26-4.25,2-6.47a4.89,4.89,0,0,0,4.71-1.82c1.79-2.43,0-3.64-1.57-4.25,0,0,7.18-3,9-9.31S114,64.72,114,64.72s7-.2,6.28-6.47-5.83-4.86-5.83-4.86,7.4,1.82,10.54-1.82-.23-7.28-.23-7.28,9.2,1.62,9.2-3.44-8.75-7.08-8.75-7.08,10.2-7.47,6.84-11.32-10.09-1-10.09-1,4.71-4.65-.68-7.48-5.82.23-5.82.23-1.94-6.56-5.75-5.75S107,15.17,107,15.17a8.31,8.31,0,0,0-8.47-2.48c-5.39,1.42-2,10-2,10s-4.84-3.86-7.75,2,0,6.25,0,6.25-6.33-.41-7.9,1.41,1.56,6.07,1.56,6.07-.89-4-4-1.62-.45,6.28-.45,6.28-1.35-3.85-4.26-2.84-1.35,5.67-1.35,5.67a5.24,5.24,0,0,0-5.38-4.86c-5.16-.2-4.71,4.86-4.71,4.86a4.85,4.85,0,0,0-5.38-4.86c-5.38.2-4.94,2.23-4.94,2.23s.45-5.67-4.93-5.67S42,41.25,42,41.25a4.6,4.6,0,0,0-5.83-2.83,6.25,6.25,0,0,0-4.71,5.46s-3.59-5.86-9-4-3.36,6.88-3.36,6.88a8.94,8.94,0,0,0-9,5.46c-2.92,6.27,4.26,8.9,4.26,8.9s-3.81,1.42-3.81,3.85S14,68.77,14,68.77s-4.71,1-4.71,5.87,4,4.85,4,4.85a2.52,2.52,0,0,0-.67,3.24c1.12,1.82,4.71.61,4.71.61s-5.34,8.77-.63,11.6S28,89.69,28,89.69s-1.32,8.29,2.5,9.5,8.41-4.52,8.41-4.52a7,7,0,0,0,6,4.65,11.67,11.67,0,0,0,8.54-2.63s3.66,6,7.25,6,6-5,6-5A18.62,18.62,0,0,0,75.67,100.94Z"/><path class="cls-9" d="M128.34,50.57a12.47,12.47,0,0,0,5.82-1,54.34,54.34,0,0,1-9.15-11c-5.94-9.25-8.57-18.8-7.36-24.73a6.52,6.52,0,0,0-4.26.91c-12,7.5-11,13-11,13-.75,2.1-4.35,28.64,26,35.63,1.69-1.2,3.11-3.3,2.75-7C130.79,53.1,129.62,51.41,128.34,50.57Z"/><path class="cls-10" d="M131.73,52.92c-.39,2.41-1.43,6.64-7.19,6.44s-5.79-7.34-1.81-12.17S131.73,52.92,131.73,52.92Z"/><path class="cls-11" d="M130.86,53.62c-.32,2-1.16,5.38-5.83,5.22s-4.68-6-1.46-9.86S130.86,53.62,130.86,53.62Z"/><path class="cls-10" d="M133,52c-.7,1.81-2.3,4.93-8.4,3.85s-5.28-6.63-.49-9.75S133,52,133,52Z"/><path class="cls-12" d="M100.7,17.91c-4-5.18-19.83-2.43-19.63,7.15C81.25,34.2,103.36,21.3,100.7,17.91Z"/><path class="cls-12" d="M128.94,16.91c-.56,5.54,10.69,13.1,16.18,7.12C150.37,18.32,129.3,13.27,128.94,16.91Z"/><path class="cls-13" d="M123.11,53.69c-3.09-.09-5.91-.18-12.59,1.54,0,0,4.93-2.23,5.86-2.78a19.93,19.93,0,0,0-12.16,3s5.29-5,10.65-5.13c0,0-10.75-1.31-15.52,2.26,0,0,7.68-6.16,22.61-3.45Z"/><path class="cls-14" d="M125,54a41.36,41.36,0,0,1,12.16,3.57s-4.51-2.87-5.34-3.53a21.37,21.37,0,0,1,11.51,4.82s-4.42-5.49-9.69-6.49c0,0,10.79.66,14.94,4.72,0,0-6.61-6.92-21.74-7Z"/><path class="cls-12" d="M135.46,50c-1.25,4.8-7.44,9-20-.81C101.83,38.43,100.33,30,101.66,23c2.21-11.67,17.19-15.49,23.74-7.65S136.45,46.16,135.46,50Z"/><path class="cls-11" d="M133.48,45.94c-.38,4.13-3.86,11.86-16.38,2C103.44,37.19,100.79,27.56,104,21.19c4-8,13.57-11.72,20.12-3.87S133.83,42,133.48,45.94Z"/><path class="cls-15" d="M99.11,18.14c-2.78-3.44-13.35-1.39-13.11,5C86.24,29.32,100.94,20.39,99.11,18.14Z"/><path class="cls-15" d="M131.07,18.17c2.38-2.67,10.76-.69,10.3,4.47C140.92,27.58,129.52,19.92,131.07,18.17Z"/><path class="cls-16" d="M123.27,28.35c2.68.81,4.07,1.51,5.93.31,0,0,.12,1.91-2.56,1.81A3.56,3.56,0,0,1,123.27,28.35Z"/><path class="cls-16" d="M110.07,28.1c3,.7,4.53,1.35,6.57.07,0,0,.16,1.91-2.8,1.91S110.07,28.1,110.07,28.1Z"/><path class="cls-8" d="M116.73,81.61c3.92-3.76,10.83.5,5.66,4S112.73,85.44,116.73,81.61Z"/><path class="cls-10" d="M128.06,50.36a12.17,12.17,0,0,1-2.42,4.42l1.67.33s1.83-3.58,1.75-5Z"/><path class="cls-16" d="M122,46.46c1.25-1.35,10.66-2.31,11.37-1.1s-3.32,5.43-5,5.43S120.77,47.77,122,46.46Z"/><ellipse class="cls-17" cx="60.23" cy="83.44" rx="7.5" ry="4.75"/><ellipse class="cls-17" cx="50.73" cy="81.94" rx="5.91" ry="3.74"/><ellipse class="cls-17" cx="42.98" cy="68.44" rx="5.91" ry="3.74"/><ellipse class="cls-17" cx="35.73" cy="69.69" rx="5.91" ry="3.74"/><ellipse class="cls-17" cx="40.98" cy="62.94" rx="5.91" ry="3.74"/><path class="cls-17" d="M57.22,52.28c0-2.07-2.64-3.75-5.91-3.75s-5.91,1.68-5.91,3.75S48,56,51.31,56,57.22,54.34,57.22,52.28Z"/><path class="cls-17" d="M42.48,53.28c0-2.07-2.65-3.75-5.92-3.75s-5.91,1.68-5.91,3.75S33.3,57,36.56,57,42.48,55.34,42.48,53.28Z"/><path class="cls-17" d="M82.81,49.78c0-2.07-2.65-3.75-5.91-3.75S71,47.71,71,49.78s2.64,3.74,5.91,3.74S82.81,51.84,82.81,49.78Z"/><ellipse class="cls-17" cx="98.23" cy="76.44" rx="5.91" ry="3.74"/><ellipse class="cls-17" cx="102.23" cy="68.61" rx="5.91" ry="3.74"/><ellipse class="cls-17" cx="65.06" cy="89.61" rx="5.91" ry="3.74"/><ellipse class="cls-17" cx="47.98" cy="63.19" rx="5.91" ry="3.74"/><ellipse class="cls-17" cx="53.73" cy="77.69" rx="7.5" ry="4.75"/><ellipse class="cls-17" cx="42.73" cy="81.69" rx="7.5" ry="4.75"/><ellipse class="cls-17" cx="32.06" cy="78.36" rx="7.5" ry="4.75"/><ellipse class="cls-17" cx="55.06" cy="58.69" rx="7.5" ry="4.75"/><ellipse class="cls-17" cx="45.06" cy="57.03" rx="7.5" ry="4.75"/><ellipse class="cls-17" cx="51.73" cy="69.44" rx="7.5" ry="4.75"/><ellipse class="cls-17" cx="41.23" cy="74.94" rx="7.5" ry="4.75"/><path class="cls-17" d="M61.53,55.37c.26,2.62,3.81,4.4,7.94,4s7.25-2.86,7-5.47-3.8-4.4-7.93-4S61.28,52.76,61.53,55.37Z"/><path class="cls-17" d="M72.72,55.78c.2,2.06,3,3.47,6.25,3.14s5.72-2.24,5.51-4.3-3-3.47-6.25-3.15S72.51,53.72,72.72,55.78Z"/><path class="cls-17" d="M81.75,68.45c.21,2.06,3,3.47,6.26,3.15s5.71-2.25,5.51-4.31-3-3.46-6.25-3.14S81.55,66.4,81.75,68.45Z"/><path class="cls-17" d="M88.85,66.5c.2,2.06,3,3.46,6.25,3.14s5.72-2.25,5.51-4.3-3-3.47-6.25-3.15S88.64,64.44,88.85,66.5Z"/><path class="cls-17" d="M84.28,73.73c.21,2.06,3,3.47,6.26,3.15s5.71-2.25,5.51-4.31-3-3.47-6.25-3.15S84.08,71.67,84.28,73.73Z"/><path class="cls-17" d="M77.29,74.17c.21,2.06,3,3.47,6.25,3.14s5.72-2.25,5.52-4.3-3-3.47-6.25-3.15S77.09,72.11,77.29,74.17Z"/><path class="cls-17" d="M68.57,60.46c.26,2.61,3.81,4.4,7.93,4s7.25-2.85,7-5.46-3.81-4.4-7.93-4S68.31,57.85,68.57,60.46Z"/><path class="cls-17" d="M79.12,55.4c.26,2.61,3.81,4.4,7.93,4s7.26-2.85,7-5.46-3.81-4.4-7.93-4S78.87,52.79,79.12,55.4Z"/><path class="cls-17" d="M90.06,57.67c.26,2.61,3.81,4.4,7.93,4s7.26-2.85,7-5.46-3.81-4.4-7.93-4S89.81,55.06,90.06,57.67Z"/><path class="cls-17" d="M69.11,79.5c.25,2.61,3.8,4.39,7.93,4s7.25-2.85,7-5.47-3.8-4.39-7.93-4S68.85,76.89,69.11,79.5Z"/><path class="cls-17" d="M57.61,75.83c.25,2.61,3.8,4.4,7.93,4s7.25-2.85,7-5.46-3.8-4.4-7.93-4S57.35,73.22,57.61,75.83Z"/><path class="cls-17" d="M66.94,73c.26,2.61,3.81,4.39,7.93,4s7.25-2.85,7-5.47-3.81-4.39-7.93-4S66.68,70.39,66.94,73Z"/><path class="cls-17" d="M79.22,80.18c.26,2.6,3.81,4.39,7.93,4s7.26-2.86,7-5.47-3.81-4.39-7.93-4S79,77.56,79.22,80.18Z"/><path class="cls-17" d="M63.52,83.17c.17,2.62,3.65,4.54,7.78,4.29s7.36-2.58,7.2-5.2S74.86,77.72,70.72,78,63.37,80.55,63.52,83.17Z"/><path class="cls-17" d="M74.69,87.84c.16,2.62,3.64,4.53,7.78,4.28s7.35-2.58,7.2-5.19S86,82.39,81.89,82.64,74.53,85.22,74.69,87.84Z"/><path class="cls-17" d="M71.37,68.47c.26,2.61,3.81,4.4,7.93,4s7.25-2.85,7-5.46-3.81-4.4-7.93-4S71.11,65.86,71.37,68.47Z"/><path class="cls-17" d="M50,67.11c.54,5.48,8,9.23,16.63,8.38S81.86,69.5,81.32,64s-8-9.23-16.63-8.37S49.47,61.64,50,67.11Z"/><path class="cls-17" d="M81.28,62c.26,2.61,3.81,4.4,7.93,4s7.25-2.85,7-5.46-3.81-4.4-7.93-4S81,59.36,81.28,62Z"/><path class="cls-17" d="M27.06,60.61c0-1.57-2.2-2.83-4.92-2.83S17.23,59,17.23,60.61s2.2,2.83,4.91,2.83S27.06,62.17,27.06,60.61Z"/><path class="cls-17" d="M29.39,50.44c0-1.56-2.2-2.83-4.91-2.83s-4.92,1.27-4.92,2.83,2.2,2.84,4.92,2.84S29.39,52,29.39,50.44Z"/><path class="cls-17" d="M33.56,61.29c0-.84-1-1.51-2.25-1.51s-2.24.67-2.24,1.51,1,1.52,2.24,1.52S33.56,62.13,33.56,61.29Z"/><path class="cls-17" d="M24.39,72.12c0-2-2.16-3.68-4.83-3.68s-4.83,1.65-4.83,3.68,2.17,3.69,4.83,3.69S24.39,74.16,24.39,72.12Z"/><path class="cls-17" d="M92.89,40.46c0-2-2.16-3.68-4.83-3.68s-4.83,1.64-4.83,3.68,2.17,3.68,4.83,3.68S92.89,42.49,92.89,40.46Z"/><path class="cls-17" d="M19,83.12c0-1.57-1.68-2.85-3.75-2.85s-3.75,1.28-3.75,2.85S13.16,86,15.23,86,19,84.7,19,83.12Z"/><path class="cls-17" d="M104.81,92.61c0-1.58-1.68-2.86-3.75-2.86S97.31,91,97.31,92.61s1.68,2.86,3.75,2.86S104.81,94.19,104.81,92.61Z"/><path class="cls-17" d="M70.47,41.77c0-1.57-1.67-2.85-3.74-2.85S63,40.2,63,41.77s1.68,2.86,3.75,2.86S70.47,43.35,70.47,41.77Z"/><path class="cls-17" d="M94.47,97.44c0-1.58-1.67-2.85-3.74-2.85S87,95.86,87,97.44s1.68,2.86,3.75,2.86S94.47,99,94.47,97.44Z"/><path class="cls-17" d="M103.32,85.69c0-2.18-2.31-3.94-5.17-3.94S93,83.51,93,85.69s2.31,3.94,5.17,3.94S103.32,87.87,103.32,85.69Z"/><ellipse class="cls-8" cx="107.29" cy="18.63" rx="4.56" ry="3.81"/><path class="cls-8" d="M110.3,17.29c2.1-.24,3.56-2.46,3.28-5s-2.21-4.35-4.3-4.11-3.56,2.46-3.28,5S108.21,17.53,110.3,17.29Z"/><path class="cls-8" d="M119.48,13.11c.4-1.68-.91-3.42-2.92-3.9s-4,.48-4.37,2.16.91,3.42,2.92,3.9S119.08,14.79,119.48,13.11Z"/><path class="cls-8" d="M128,15.48c.4-1.67-.91-3.42-2.92-3.9s-4,.49-4.37,2.16.91,3.43,2.92,3.91S127.58,17.16,128,15.48Z"/><path class="cls-8" d="M100,31.19c1.7.26,3.33-1.18,3.65-3.23s-.82-3.91-2.52-4.17S97.81,25,97.5,27,98.32,30.93,100,31.19Z"/><path class="cls-8" d="M103.62,35.59c1.48-.88,1.83-3,.77-4.81s-3.11-2.52-4.59-1.64S98,32.17,99,34,102.14,36.46,103.62,35.59Z"/><path class="cls-8" d="M102.89,26.07c1.71.26,3.34-1.19,3.65-3.23s-.81-3.92-2.52-4.18-3.33,1.19-3.64,3.23S101.19,25.81,102.89,26.07Z"/><g class="cls-18"><path class="cls-19" d="M143.32,58.88s-4.09-5.06-9.09-6.34l.06-.09c2.41.21,10.75,1.21,14.28,4.66,0,0-4.17-4.33-13.43-6.19a5,5,0,0,0,.45-2.27,6.49,6.49,0,0,0,1.08-1.08c3.7-4.83-.27-9.66-.27-9.66s10.86,2.15,10.86-4.56c0-3.46-2.76-5.85-5.43-7.35a6.59,6.59,0,0,0,3.29-2c2.39-2.6-.68-5.06-4.77-6.63a6.72,6.72,0,0,0-.77-1.21c-3.46-4.45-10-2.16-11.55-1.5l0-.26c1.1-1.45,4.23-6.34-1.13-9.51-6.36-3.76-6.62,2.68-6.62,2.68S119.19-1,114.68.09s-4.76,6.44-4.76,6.44.53-7.78-5.83-5.9-3.71,9.66-3.71,9.66S93.76,6,90.31,13.77c-.06.14-.11.27-.16.4h0v0c-.25.61-.46,1.18-.62,1.7-4.52,1.2-8.55,4.3-8.45,9.17a3.08,3.08,0,0,0,1.06,2.5,4.89,4.89,0,0,0-.55.43c-2.36,2-1.94,4.84-1.31,6.61-.79-1.34-2.19-2.86-4.26-2.05s-2.23,3.67-2,5.6a6.19,6.19,0,0,0-6-4.53c-5.47-.24-5.6,5.12-5.57,6.23-.06-1.11-.65-6.47-6.35-6.23-4.88.21-5.7,1.83-5.82,2.58,0-1.51-.33-7.14-5.83-7.14-6.36,0-5.83,4.83-5.83,4.83s-1.59-5.36-6.89-3.76-5.56,7.25-5.56,7.25S22,29.6,15.63,32s-4,9.12-4,9.12S4.5,40.06,1.06,48.38s5,11.8,5,11.8-4.5,1.87-4.5,5.09,4,5.1,4,5.1A7.72,7.72,0,0,0,0,78.15c0,6.44,4.77,6.44,4.77,6.44A3.57,3.57,0,0,0,4,88.88c1.33,2.41,5.57.8,5.57.8a15.67,15.67,0,0,0-1.65,3.71h0c-.74,2.53-.86,5.78,2.17,7.83,5.57,3.75,10.07,2.14,10.07,2.14A9.8,9.8,0,0,0,26,108.19a5.64,5.64,0,0,0,.78.21l3.72,22.06h2.91l.33-24.55a13.57,13.57,0,0,0,1.26-1.2,8.65,8.65,0,0,0,7.15,6.16,9.25,9.25,0,0,0,4.27-.44l.29,7.39h0l.49,12.64h2.35l2.57-23.76c.23-.23.36-.39.36-.39s4.24,3.76,8.48,3.76,7.15-5.63,7.15-5.63a20.29,20.29,0,0,0,2.55,3.83l4.6,22.19h2.91l-.24-12.64h0l-.1-4.91a6,6,0,0,0,.61.11c4.54.55,8.21-4.29,8.21-4.29s1.41,6.41,9.25,5.7l-.51,16h2.91l4-18.9a7,7,0,0,0,1.1-5.18l.1-.43c1,.77,5.45,3.84,9.32.63,2.91-2.41,5-5.63,2.38-8.58a5.42,5.42,0,0,0,5.56-2.42c2.12-3.21,0-4.82-1.85-5.63,0,0,8.48-4,10.59-12.34S123.69,65,123.69,65a9.55,9.55,0,0,0,4.66-1.6h0c.13-.09.26-.2.39-.31l.27-.22.32-.33.29-.32c.09-.11.18-.24.27-.36l.27-.41.21-.4a4.52,4.52,0,0,0,.23-.5c.06-.14.11-.28.16-.43a5.79,5.79,0,0,0,.17-.63c0-.15.07-.3.1-.45s.06-.53.08-.81,0-.28,0-.43a11.22,11.22,0,0,0-.05-1.39c0-.28-.06-.53-.1-.79l.12-.3a58.83,58.83,0,0,1,6,2.26s-3.69-2.35-5-3.28a3.37,3.37,0,0,0,.32-.19A22,22,0,0,1,143.32,58.88Z"/></g></g></g></g></svg>