<svg xmlns="http://www.w3.org/2000/svg" xmlns:xlink="http://www.w3.org/1999/xlink" viewBox="0 0 115.56 151.04"><defs><style>.cls-1{mask:url(#mask);filter:url(#luminosity-noclip-2);}.cls-2{mix-blend-mode:multiply;fill:url(#linear-gradient);}.cls-3{isolation:isolate;}.cls-13,.cls-4{fill:#f4e9e1;}.cls-5{fill:#f7aa4d;}.cls-6{fill:#b79786;}.cls-7{fill:#e8d9cf;}.cls-8{fill:#d8bfaf;}.cls-9{fill:#f4e8df;}.cls-10{fill:#c46423;}.cls-11{fill:#6d5646;}.cls-12{fill:#a58976;}.cls-13{opacity:0.5;}.cls-13,.cls-17{mix-blend-mode:overlay;}.cls-14{fill:#ffc466;}.cls-15{fill:#f9efe8;}.cls-16{mask:url(#mask-2);}.cls-17{opacity:0.6;fill:url(#linear-gradient-2);}.cls-18{filter:url(#luminosity-noclip);}</style><filter id="luminosity-noclip" x="0.01" y="-7315.19" width="115.55" height="32766" filterUnits="userSpaceOnUse" color-interpolation-filters="sRGB"><feFlood flood-color="#fff" result="bg"/><feBlend in="SourceGraphic" in2="bg"/></filter><mask id="mask" x="0.01" y="-7315.19" width="115.55" height="32766" maskUnits="userSpaceOnUse"><g class="cls-18"/></mask><linearGradient id="linear-gradient" x1="57.78" y1="13.29" x2="57.78" y2="150.03" gradientUnits="userSpaceOnUse"><stop offset="0.02" stop-color="#999"/><stop offset="1" stop-color="#fff"/></linearGradient><filter id="luminosity-noclip-2" x="0.01" y="0" width="115.55" height="151.04" filterUnits="userSpaceOnUse" color-interpolation-filters="sRGB"><feFlood flood-color="#fff" result="bg"/><feBlend in="SourceGraphic" in2="bg"/></filter><mask id="mask-2" x="0.01" y="0" width="115.55" height="151.04" maskUnits="userSpaceOnUse"><g class="cls-1"><path class="cls-2" d="M105.51,24.13c3.14-4.42,4.18-10.67-.21-16.39a12,12,0,0,0-6.56-5.32A11,11,0,0,0,97.25,2C93.43.16,82.8-1.17,81.87,1.54c-.42,1.21.95,1.91,3.06,2.27C79.7,5.12,75,7.23,76.24,10.29c.8,2,4.5,1.23,5.93.84a.75.75,0,0,1-.07.12c-1.57.75-5.48,2.89-4.69,5.21.37,1.09,1,1.4,1.59,1.36a28.13,28.13,0,0,0-1.63,6.26C73.61,45.63,86.39,71.45,81,82l-.32-.26-.49-.4-.84-.63-.54-.38c-.31-.21-.62-.4-.93-.59l-.53-.33c-.49-.28-1-.55-1.49-.8l-.45-.2c-.39-.18-.78-.36-1.19-.53-.23-.1-.48-.19-.72-.28l-1-.37L71.71,77l-1-.31-.84-.22c-.4-.1-.8-.18-1.2-.27l-1-.2q-.82-.15-1.68-.27l-1-.11c-.37,0-.75-.09-1.13-.12l-1.11-.08-1.12-.05c-.39,0-.78,0-1.17,0H59.25c-.4,0-.79,0-1.2,0s-1.09,0-1.64.08l-1.89.15-1.24.12-1.39.17L50.66,76l-1.46.23L48,76.49c-.51.09-1,.18-1.51.29l-1.31.29c-.93.2-1.88.43-2.84.68-.45.11-.9.22-1.35.35s-1.1.31-1.65.47l-1.37.4-1.7.54L34.8,80l-1.73.6c-.5.17-1,.36-1.51.55s-1.15.41-1.74.64h0l-1.31.46-6.2,0L22,81.85l0,0c-.1-.11-.21-.24-.31-.37l0-.06c-.11-.14-.21-.28-.31-.43l0,0c-2-3-3.67-8.39-5.18-12.11v0c-.09-.23-.19-.45-.28-.66v0a19.1,19.1,0,0,0-.82-1.73.54.54,0,0,1-.07-.13c-.07-.1-.13-.21-.19-.31l-.09-.13a2.5,2.5,0,0,0-.16-.24l-.1-.12-.16-.18-.1-.09L13.92,65l-.1-.06a.56.56,0,0,0-.16-.07s-.05,0-.08,0a.65.65,0,0,0-.24,0c-2.71.5,4.92,14,2,13.45s-7-22.74-10.24-17.66c-2.91,4.51,8.69,22.88,5.32,21C6.51,79.38,1.19,61.32.19,64.93a4.46,4.46,0,0,0-.14.79.45.45,0,0,0,0,.12,7,7,0,0,0,0,.81v0C.07,70.79,2.78,78.12,7.34,88c.45,1,.94,2.08,1.45,3.15l-.69.34-1.24.61-.37.18-1.17.58-.61.29a85.25,85.25,0,0,0,12,12c.31.48.64,1,1,1.43l.07.11c.77,1.12,1.57,2.22,2.4,3.32l.13.17c.82,1.07,1.66,2.13,2.53,3.17.06.07.11.14.17.2.86,1,1.75,2,2.67,3l.21.22,1.39,1.44.09.08c.44.45.9.88,1.35,1.32l.22.21c.48.44,1,.89,1.45,1.32l.21.18c.45.39.9.78,1.36,1.16l.22.18c.5.41,1,.81,1.52,1.2l.28.21q.7.54,1.44,1l.18.13q.78.55,1.59,1.08l.34.22c.52.33,1.05.65,1.58,1l.09,0,.78.45h0c.29.17.59.33.89.49l.38.21c.58.29,1.15.59,1.73.86l.06,0c.57.26,1.14.52,1.72.76l.41.17.89.36.16.06.35.13c1.32,2.29,3,4.46,5.24,5.12,1.4,3.05,2.55,5.68,2.63,8.18a4.66,4.66,0,0,0-.06.54,4.9,4.9,0,0,1-3,3.3c-.48-.5-1-.85-1.32-.73a1.24,1.24,0,0,0-1,1.26c-2.84.3-5.37-.3-3.81,1.84l20.28.4c-.49-2.61-6.24-1.1-8.86-5.62-.16-.28-.31-.51-.45-.71A40.77,40.77,0,0,1,55,136.14a10.86,10.86,0,0,0,3.68-2.39l1.13.07h2.86l.63,0,.63,0,.88-.06.46,0,.45,0c.6,0,1.21-.11,1.81-.19l1.14-.16c2.22,1.07,4.87,2.14,7.23,2.1a73.57,73.57,0,0,1-.1,10.88c-1.12,3.44-7.39,2.32-6.46,4.74l22.58-.4c.52-2.29-2.38-1.43-6.13-1.92-.66-.87-1.5-1.78-2.05-1.6a1.26,1.26,0,0,0-1,.88,11.56,11.56,0,0,1-4.19-2.66c-1.73-3-1-6.47.16-10.69,1.39-.86,2.49-2.5,3-5.32,22-10.8,25.35-37.73,20.27-49.24C94.32,62.55,83.48,45.6,93.55,34c1.76,3.76,5.33,8.66,6.7,7.91,1.12-.61,1.51-3.83,1.64-5.86,6.36,1.88,13.19,2.88,13.62,1.84C116.35,35.87,106.78,25.49,105.51,24.13Z"/></g></mask><linearGradient id="linear-gradient-2" x1="57.78" y1="13.29" x2="57.78" y2="150.03" gradientUnits="userSpaceOnUse"><stop offset="0.02" stop-color="#ffd995"/><stop offset="1" stop-color="#240043"/></linearGradient></defs><g class="cls-3"><g id="Calque_2" data-name="Calque 2"><g id="Calque_1-2" data-name="Calque 1"><path class="cls-4" d="M95.84,2.15C91.17,2.3,74,4.76,76.24,10.29c1,2.5,6.5.67,6.5.67s-6.31,2.6-5.33,5.5,3.82.15,3.82.15Z"/><path class="cls-4" d="M81.87,1.54C83-1.75,98.49.92,98.62,3.17,98.66,4,80.49,5.54,81.87,1.54Z"/><path class="cls-5" d="M79.63,131.47c-1.66,6.18-3.46,10.84-.45,14.76l-3.47,1.2s1.06-13-.45-14Z"/><path class="cls-5" d="M69.34,151c-1-2.61,6.37-1.1,6.63-5.62.2-3.71,2.25-.45,2.25-.45,6.23,6.63,14.56,1.91,13.7,5.67Z"/><path class="cls-6" d="M67.64,132.8c5,2.57,13.39,6.2,14.43-5.47Z"/><path class="cls-7" d="M4.91,82.09c7.83,20.48,27.9,55.81,62.62,51.39s40.55-39.74,34.53-53.39C93,59.61,79.74,40,100.45,28.7c7-3.81,12.45-15.25,1.81-24.09S79.65,11,77.37,24.08C73.56,46,86.8,72.26,80.78,82.5Z"/><path class="cls-8" d="M100.45,28.7c7-3.81,12.45-15.25,1.81-24.09a10.77,10.77,0,0,0-5.5-2.53c10.29,8.8,6.45,21.43-.52,25.21-20.71,11.25-9,29.57.07,50.05,6,13.65.2,49-34.53,53.39a43.48,43.48,0,0,1-21.85-2.67,43.79,43.79,0,0,0,27.6,5.42c34.73-4.42,40.55-39.74,34.53-53.39C93,59.61,79.74,40,100.45,28.7Z"/><path class="cls-7" d="M83.24,37.57c1.11,2.89,7.9,4.45,3.76-2.92Z"/><path class="cls-8" d="M81.41,129.29c3.67-5.17,7.5-29.67,6.67-34.83L29.91,87,12.22,97.81c10.46,18.83,28.53,39.08,55.31,35.67A45.42,45.42,0,0,0,81,129.67,2.18,2.18,0,0,0,81.41,129.29Z"/><path class="cls-4" d="M80.58,37.46c6.77,4.63,17-10.27,21.16-13,4.34-2.84,9.71-17.17-3-22S78,17.71,77.37,24.08,77.41,35.29,80.58,37.46Z"/><path class="cls-4" d="M6.51,92.93c45.37-25.69,72.89-20.28,80.29-3C92,102.13,86.8,117,72,123,61.06,127.46,35.62,120,6.51,92.93Z"/><path class="cls-7" d="M7.82,89C2.2,77-.81,68.55.19,64.93S6.51,79.38,10.43,81.59c3.37,1.91-8.23-16.46-5.32-21,3.27-5.08,7.33,17.06,10.24,17.66s-4.72-13-2-13.45S19.26,82.7,23.88,83Z"/><path class="cls-9" d="M13.34,64.83c-2.71.5,4.92,14,2,13.45s-7-22.74-10.24-17.66c-2.91,4.51,8.69,22.88,5.32,21C6.51,79.38,1.19,61.32.19,64.93a9.48,9.48,0,0,0,0,4,46,46,0,0,0,14.89,19c15.6,12,34.89,13,43.1,2.28a17.73,17.73,0,0,0,3.36-7.81l-39.29-.2C18.51,78.61,15.73,64.39,13.34,64.83Z"/><path class="cls-10" d="M92.73,31.91c1,3.61,5.87,10.94,7.52,10S102,34.42,102,34.42Z"/><path class="cls-5" d="M92.32,31.91c5.12,4.07,22.5,7.7,23.19,6,.9-2.21-10.14-13.95-10.14-13.95S94.33,26.39,92.32,31.91Z"/><path class="cls-11" d="M88.36,20.22c1.87,2.18,7.68-3.76,4.82-5.57S86.55,18.11,88.36,20.22Z"/><path class="cls-5" d="M50.68,133.88c2.62,5.83,5.15,10.15,2.81,14.49l3.61.64S54,136.4,55.3,135.12Z"/><path class="cls-5" d="M65.44,151c-.49-2.61-6.24-1.1-8.86-5.62-2.14-3.71-2.24-.45-2.24-.45-2,6.63-11.93,1.91-9.18,5.67Z"/><path class="cls-8" d="M45,128.16c2.41,5.12,6.78,13.1,14.76,4.52Z"/><path class="cls-12" d="M30.6,81.49C32.81,93.34,42.24,117,58.9,123.65c0,0-31.11-2.21-54.19-30.52C14,88.62,20.66,84.79,30.6,81.49Z"/><path class="cls-10" d="M93.37,32.29a.64.64,0,1,0-.63.79A.72.72,0,0,0,93.37,32.29Z"/><polygon class="cls-4" points="35.65 88.31 20.07 94.96 37.91 90.79 35.65 88.31"/><polygon class="cls-4" points="44.94 98.96 26.4 103.54 45.92 104.21 44.94 98.96"/><polygon class="cls-4" points="54.32 108.25 35.43 111.03 54.79 113.57 54.32 108.25"/><path class="cls-13" d="M86.8,89.92c-6-14.08-25.44-20.27-57-8.16-9.46,3.22-16,6.95-25,11.31,11.89,6.93,30.3,11.39,51,11.39a127.2,127.2,0,0,0,32.94-4.13A24.23,24.23,0,0,0,86.8,89.92Z"/><path class="cls-14" d="M94.37,30.42c2.75-2.63,8-4.5,9.87-4.38s7.38,6.75,6.25,8S94.37,30.42,94.37,30.42Z"/><path class="cls-5" d="M49.16,150.46c-.42-2.09-.17-2.59.83-2.92s3,3,3,3Z"/><path class="cls-5" d="M82.91,150c-.42-2.08-.17-2.58.83-2.92s3,3,3,3Z"/><path class="cls-10" d="M100.33,26.37c2.33,1.42,3.83,1.51,4.16,1.34s-2-2.25-2-2.25Z"/><path class="cls-7" d="M88.74,69c2.13,2.25,9,1.13,2.38-4.12Z"/><path class="cls-7" d="M90.74,72.67c2.13,2.25,9,1.12,2.38-4.13Z"/><path class="cls-7" d="M91.49,76.42c2.13,2.25,9,1.12,2.38-4.13Z"/><path class="cls-7" d="M87.49,65.29c2.13,2.25,9,1.13,2.38-4.12Z"/><path class="cls-7" d="M86.12,61.29c2.12,2.25,9,1.13,2.37-4.12Z"/><path class="cls-7" d="M84.74,57.54c2.13,2.25,9,1.13,2.38-4.12Z"/><path class="cls-7" d="M83.43,53.28c1.78,2.53,8.74,2.4,2.94-3.74Z"/><path class="cls-7" d="M82.61,49c1.12,2.88,7.91,4.44,3.76-2.92Z"/><path class="cls-7" d="M82.11,45.07C83.23,48,90,49.52,85.87,42.15Z"/><path class="cls-7" d="M82.86,41.2c1.12,2.88,7.91,4.44,3.76-2.92Z"/><path class="cls-15" d="M53.24,118c2.34,3.83,13.4,5.36,17,4.5,4.17-1,12.67-7.34,13.34-12.17C83.87,108.15,51.77,115.53,53.24,118Z"/><g class="cls-16"><path class="cls-17" d="M105.51,24.13c3.14-4.42,4.18-10.67-.21-16.39a12,12,0,0,0-6.56-5.32A11,11,0,0,0,97.25,2C93.43.16,82.8-1.17,81.87,1.54c-.42,1.21.95,1.91,3.06,2.27C79.7,5.12,75,7.23,76.24,10.29c.8,2,4.5,1.23,5.93.84a.75.75,0,0,1-.07.12c-1.57.75-5.48,2.89-4.69,5.21.37,1.09,1,1.4,1.59,1.36a28.13,28.13,0,0,0-1.63,6.26C73.61,45.63,86.39,71.45,81,82l-.32-.26-.49-.4-.84-.63-.54-.38c-.31-.21-.62-.4-.93-.59l-.53-.33c-.49-.28-1-.55-1.49-.8l-.45-.2c-.39-.18-.78-.36-1.19-.53-.23-.1-.48-.19-.72-.28l-1-.37L71.71,77l-1-.31-.84-.22c-.4-.1-.8-.18-1.2-.27l-1-.2q-.82-.15-1.68-.27l-1-.11c-.37,0-.75-.09-1.13-.12l-1.11-.08-1.12-.05c-.39,0-.78,0-1.17,0H59.25c-.4,0-.79,0-1.2,0s-1.09,0-1.64.08l-1.89.15-1.24.12-1.39.17L50.66,76l-1.46.23L48,76.49c-.51.09-1,.18-1.51.29l-1.31.29c-.93.2-1.88.43-2.84.68-.45.11-.9.22-1.35.35s-1.1.31-1.65.47l-1.37.4-1.7.54L34.8,80l-1.73.6c-.5.17-1,.36-1.51.55s-1.15.41-1.74.64h0l-1.31.46-6.2,0L22,81.85l0,0c-.1-.11-.21-.24-.31-.37l0-.06c-.11-.14-.21-.28-.31-.43l0,0c-2-3-3.67-8.39-5.18-12.11v0c-.09-.23-.19-.45-.28-.66v0a19.1,19.1,0,0,0-.82-1.73.54.54,0,0,1-.07-.13c-.07-.1-.13-.21-.19-.31l-.09-.13a2.5,2.5,0,0,0-.16-.24l-.1-.12-.16-.18-.1-.09L13.92,65l-.1-.06a.56.56,0,0,0-.16-.07s-.05,0-.08,0a.65.65,0,0,0-.24,0c-2.71.5,4.92,14,2,13.45s-7-22.74-10.24-17.66c-2.91,4.51,8.69,22.88,5.32,21C6.51,79.38,1.19,61.32.19,64.93a4.46,4.46,0,0,0-.14.79.45.45,0,0,0,0,.12,7,7,0,0,0,0,.81v0C.07,70.79,2.78,78.12,7.34,88c.45,1,.94,2.08,1.45,3.15l-.69.34-1.24.61-.37.18-1.17.58-.61.29a85.25,85.25,0,0,0,12,12c.31.48.64,1,1,1.43l.07.11c.77,1.12,1.57,2.22,2.4,3.32l.13.17c.82,1.07,1.66,2.13,2.53,3.17.06.07.11.14.17.2.86,1,1.75,2,2.67,3l.21.22,1.39,1.44.09.08c.44.45.9.88,1.35,1.32l.22.21c.48.44,1,.89,1.45,1.32l.21.18c.45.39.9.78,1.36,1.16l.22.18c.5.41,1,.81,1.52,1.2l.28.21q.7.54,1.44,1l.18.13q.78.55,1.59,1.08l.34.22c.52.33,1.05.65,1.58,1l.09,0,.78.45h0c.29.17.59.33.89.49l.38.21c.58.29,1.15.59,1.73.86l.06,0c.57.26,1.14.52,1.72.76l.41.17.89.36.16.06.35.13c1.32,2.29,3,4.46,5.24,5.12,1.4,3.05,2.55,5.68,2.63,8.18a4.66,4.66,0,0,0-.06.54,4.9,4.9,0,0,1-3,3.3c-.48-.5-1-.85-1.32-.73a1.24,1.24,0,0,0-1,1.26c-2.84.3-5.37-.3-3.81,1.84l20.28.4c-.49-2.61-6.24-1.1-8.86-5.62-.16-.28-.31-.51-.45-.71A40.77,40.77,0,0,1,55,136.14a10.86,10.86,0,0,0,3.68-2.39l1.13.07h2.86l.63,0,.63,0,.88-.06.46,0,.45,0c.6,0,1.21-.11,1.81-.19l1.14-.16c2.22,1.07,4.87,2.14,7.23,2.1a73.57,73.57,0,0,1-.1,10.88c-1.12,3.44-7.39,2.32-6.46,4.74l22.58-.4c.52-2.29-2.38-1.43-6.13-1.92-.66-.87-1.5-1.78-2.05-1.6a1.26,1.26,0,0,0-1,.88,11.56,11.56,0,0,1-4.19-2.66c-1.73-3-1-6.47.16-10.69,1.39-.86,2.49-2.5,3-5.32,22-10.8,25.35-37.73,20.27-49.24C94.32,62.55,83.48,45.6,93.55,34c1.76,3.76,5.33,8.66,6.7,7.91,1.12-.61,1.51-3.83,1.64-5.86,6.36,1.88,13.19,2.88,13.62,1.84C116.35,35.87,106.78,25.49,105.51,24.13Z"/></g></g></g></g></svg>