<svg xmlns="http://www.w3.org/2000/svg" xmlns:xlink="http://www.w3.org/1999/xlink" viewBox="0 0 110.82 123.1"><defs><style>.cls-1{mask:url(#mask);filter:url(#luminosity-noclip-2);}.cls-2{mix-blend-mode:multiply;fill:url(#linear-gradient);}.cls-3{isolation:isolate;}.cls-4{fill:#e5cec3;}.cls-5{fill:#e8a52e;}.cls-6{fill:#b29b8e;}.cls-7{fill:#dbc0b4;}.cls-8{fill:#ce4824;}.cls-9{fill:#ea5228;}.cls-10{fill:#f4e2d9;}.cls-11{fill:#ffc145;}.cls-12{fill:#4c3e29;}.cls-13{fill:#fff0e9;}.cls-14{fill:#ffd252;}.cls-15{mask:url(#mask-2);}.cls-16{opacity:0.6;mix-blend-mode:overlay;fill:url(#linear-gradient-2);}.cls-17{filter:url(#luminosity-noclip);}</style><filter id="luminosity-noclip" x="0" y="-7290.76" width="106.93" height="32766" filterUnits="userSpaceOnUse" color-interpolation-filters="sRGB"><feFlood flood-color="#fff" result="bg"/><feBlend in="SourceGraphic" in2="bg"/></filter><mask id="mask" x="0" y="-7290.76" width="106.93" height="32766" maskUnits="userSpaceOnUse"><g class="cls-17"/></mask><linearGradient id="linear-gradient" x1="53.47" y1="8.8" x2="53.47" y2="122.31" gradientUnits="userSpaceOnUse"><stop offset="0.02" stop-color="#999"/><stop offset="1" stop-color="#fff"/></linearGradient><filter id="luminosity-noclip-2" x="0" y="3.88" width="106.93" height="119.22" filterUnits="userSpaceOnUse" color-interpolation-filters="sRGB"><feFlood flood-color="#fff" result="bg"/><feBlend in="SourceGraphic" in2="bg"/></filter><mask id="mask-2" x="0" y="3.88" width="106.93" height="119.22" maskUnits="userSpaceOnUse"><g class="cls-1"><path class="cls-2" d="M99.74,31.1v-.05l-.12-.5c-.11-.45-.22-.9-.35-1.34l-.15-.54-.3-1-.15-.47c-.13-.39-.27-.77-.41-1.14-.07-.17-.13-.33-.2-.49s-.24-.6-.37-.89-.15-.32-.22-.47c-.14-.3-.29-.6-.44-.88l-.23-.42c-.16-.28-.32-.55-.48-.8l-.25-.38c-.16-.24-.33-.46-.49-.68l-.27-.33a8.87,8.87,0,0,0-.64-.72c-.25-.26-.52-.5-.79-.73.87-2.29,1.85-6.38-1.76-7.55-1.91-.61-2.85,1-3.24,2.25C88.7,10.69,86.77,2.44,81,4.1c-6.75,2-3.3,7.64-3.3,7.64s-1.35-2.09-2.4-1.34-.3,2.24-.3,2.24S69,10.1,68,15C67,19.76,71.3,23.65,78,23a5.51,5.51,0,0,0-.66,1.51,13.91,13.91,0,0,0,.32,4.42c0,1.8.57,6.2-.91,7.91a9.32,9.32,0,0,0,1.86-1.25c0,1.86-.11,4-1,5a9.83,9.83,0,0,0,2.09-1.47,14.26,14.26,0,0,1-2.55,6.37c-8.2-2.08-15.68,6.29-29.43,6.16-.37,0-.73,0-1.1,0l-.38,0-.75-.06L45,51.42l-.69-.09-.49-.08-.67-.11-.5-.1-.68-.14-.5-.11-.68-.16-.51-.13-.68-.19-.51-.14L38.37,50l-.49-.15-.71-.23-.47-.16L36,49.17,35.53,49l-.77-.28-.39-.15-.85-.34-.29-.11-1.07-.44-.06,0c-.76-.32-1.51-.64-2.23-1l-.18-.09-.88-.4-.28-.14-.74-.35-.32-.16-.66-.32-.34-.17-.6-.31-.35-.18L25,44.28l-.34-.17-.51-.28-.34-.18-.45-.24L23,43.23,22.57,43l-.3-.17-.38-.21-.29-.17-.32-.18L21,42.1,20.76,42l-.3-.18,0,0c-.62-.36-1.08-.64-1.33-.8h0l-.23-.14c-.08.38-.17.79-.25,1.21l-2.11-3.1A27.69,27.69,0,0,0,12.77,34a9.2,9.2,0,0,0-.73-.7c-.51-.44-.9-.67-1.08-.55-1,0-1.23,2.41.22,9.31-.1-.22-.21-.43-.32-.65a10.93,10.93,0,0,0-1.64-2.64A2.14,2.14,0,0,0,8.3,38,1.45,1.45,0,0,0,7,37.92c-1.56.63-.15,4.52.85,6.83-2-2.77-4.33-4.93-5.8-4.23-.82.32-1.52,1.4-1.94,3.69-.72,3.87,1.39,8.95,5.48,13.18-.74-.19-1.19,0-1.17.88.08,2.37,1.71,4.14,3.05,5.9.09.21.18.41.28.61-.82-.14-1.35,0-1.35.72A9.56,9.56,0,0,0,8,70.08a14.47,14.47,0,0,0,4.48,5.38c.41.37.83.74,1.27,1.1-.67.08-1,.6-.59,1.88.76,2.51,4,4.91,6.83,6.51-2-.5-3.86-.64-3.39.23,2.24,4.11,12.07,12.7,23.79,16.6,3.14,2.81,7.36,6,11.4,7.29.48,3,1.21,7.4,1.69,10.29a18.15,18.15,0,0,0-5.8,3.59l14.53.15a.44.44,0,0,0-.08-.11l11,.11c-1.32-2-5.29-3.49-6.85-4a37.62,37.62,0,0,1,.16-10.67c3.91-1.12,8.45-5.43,11.64-9,17-10,23.12-31.61,23.47-41.28,0-.67,0-1.35.06-2,0-.17,0-.34,0-.51,0-.67,0-1.34,0-2v-.2c0-.62,0-1.23,0-1.84,0-.17,0-.34,0-.51,0-.65,0-1.3,0-2,0-.12,0-.23,0-.34,0-.56,0-1.11,0-1.66,0-.18,0-.36,0-.54,0-.62,0-1.24-.08-1.86l0-.44-.09-1.5c0-.18,0-.37,0-.55,0-.59-.09-1.17-.15-1.75,0-.17,0-.34-.05-.51l0-.28c1.63-1.17,3-2.58,3-3.79a9.6,9.6,0,0,0,2.82-1.12C107.34,34.1,101.7,31.51,99.74,31.1Zm-44.3,78.49a17.89,17.89,0,0,0,5.4-1.59,12.61,12.61,0,0,0,1.61.46c.48,3,1.28,7.87,1.8,11a20.69,20.69,0,0,0-3.82,2,22,22,0,0,0-4.94-2.3A42.18,42.18,0,0,1,55.44,109.59Z"/></g></mask><linearGradient id="linear-gradient-2" x1="53.47" y1="8.8" x2="53.47" y2="122.31" gradientUnits="userSpaceOnUse"><stop offset="0.02" stop-color="#ffd995"/><stop offset="1" stop-color="#240043"/></linearGradient></defs><g class="cls-3"><g id="Calque_2" data-name="Calque 2"><g id="Calque_1-2" data-name="Calque 1"><path class="cls-4" d="M81.5,24.67c-.08,1.5.67,6.42-.91,8.25a9.24,9.24,0,0,0,3.5-3.16Z"/><path class="cls-4" d="M82.34,28.42c-.09,1.5.66,6.42-.92,8.25a9.24,9.24,0,0,0,3.5-3.16Z"/><path class="cls-5" d="M55.13,101.83c0,.45,2.69,16.64,2.69,16.64l2-.15s-2.39-14.09,1.65-17.69Z"/><path class="cls-5" d="M65.92,101.83c0,.45,2.7,16.64,2.7,16.64l1.94-.15s-2.39-14.09,1.65-17.69Z"/><path class="cls-5" d="M51.53,119.07a19.79,19.79,0,0,1,7-4s5.85,1.65,7.5,4.2Z"/><path class="cls-5" d="M62.47,119.07a19.79,19.79,0,0,1,7-4s5.85,1.65,7.5,4.2Z"/><path class="cls-6" d="M68.52,104.83c7,0,17.54-14.15,17.54-14.15L49.81,93.11S60.34,104.86,68.52,104.83Z"/><path class="cls-7" d="M26.15,43.38c-7.94-4.2-6.89-13.64-10.94-13.49-2.42.09.9,10.49.9,10.49s-1.95-5.24-4.2-4.34,1.65,8.54,1.65,8.54S6.82,32.59,5,42.33c-.71,3.87,2.47,8.53,6.56,12.76-.74-.19-1.19,0-1.16.88a12.65,12.65,0,0,0,2.43,7c-.93-.22-1.54-.06-1.54.68,0,3.58,3.17,6.75,6.48,9-.8,0-1.2.5-.78,1.89.76,2.52,4,4.92,6.84,6.51-2-.5-3.87-.63-3.39.24,2.45,4.5,14,14.39,27.17,17.58Z"/><path class="cls-4" d="M15.11,38.38s-1.95-5.24-4.2-4.34,1.65,8.54,1.65,8.54S5.82,30.59,4,40.33c-.71,3.87,1.39,9,5.48,13.18-.74-.19-1.19,0-1.16.88.08,2.65,2.11,4.55,3.51,6.54-.93-.22-1.54-.06-1.54.68,0,5.83,11,18.17,28.74,19.31L25.15,41.38C22.64,40.05,10.34,15.92,15.11,38.38Z"/><path class="cls-8" d="M96,7.86c-1.9-.61-2.85,1-3.23,2.25C92.59,6.81,90.65-1.44,84.9.22c-6.74,2-3.3,7.64-3.3,7.64s-1.34-2.1-2.39-1.35-.3,2.25-.3,2.25-6-2.55-7,2.4,3.75,9,10.94,7.79L97,17S101.09,9.51,96,7.86Z"/><path class="cls-9" d="M94.85,8.62c.79-.29,2.9,1,3.13,2.18s-.81,6.18-3.85,4.08C92.51,13.77,92.39,9.51,94.85,8.62Z"/><path class="cls-4" d="M23,41.43c19.49,10.49,52.7,7.66,57.85.3,8.4-12-6.07-18.94,4.2-25.48,17.24-11,21.28,13.49,20.38,38.07C105,67.5,93.74,102.88,59,100.78,11.11,97.89,23,41.43,23,41.43Z"/><path class="cls-10" d="M81.17,20.59c1.36-5.24,13.08-11.54,18.25-3s2.12,26.21-6.18,26.37S80.43,23.42,81.17,20.59Z"/><path class="cls-7" d="M95.84,33.84c.25,3.58,4.58,10,8.5,10.5L104,32.59Z"/><path class="cls-7" d="M98.53,16.12c2.85,7.84,3.59,19.75,3.15,31.7C101.2,61,90,96.38,55.22,94.28c-14.45-.87-23.45-6.63-29-14.25C31.06,90.69,40.62,99.67,59,100.78c34.77,2.1,46-33.28,46.46-46.46C106,38.24,104.49,22.2,98.53,16.12Z"/><path class="cls-7" d="M86.7,48.48c7.93,6.09,11.89,50.28-32.28,47.61-39.34-2.38-37.5-48-31.17-57.33,0,0,17.29,13.36,29.28,13.47C68.87,52.38,76.36,40.54,86.7,48.48Z"/><path class="cls-7" d="M58.52,105.73c6.9.3,22.79-11.84,22.79-11.84l-42-.9S50.11,105.36,58.52,105.73Z"/><path class="cls-5" d="M96.49,34.24c-.45.82,1.56,3.65,3.5,3.9,1.51.2,8.36-3.66,8-6.31C108,31.83,97.56,32.28,96.49,34.24Z"/><path class="cls-11" d="M96,34.41c-1.23-.82,5.84-7.26,7.22-7.25s8.06,3,7.59,3.76S97.05,35.12,96,34.41Z"/><path class="cls-12" d="M92.52,28.92c1.7-.11,1.35-8.32-1.87-7.12C87.84,22.84,91.32,29,92.52,28.92Z"/><path class="cls-12" d="M100,27.3c1.65,0,2.28-6.66-1-5.81C96.22,22.22,98.82,27.31,100,27.3Z"/><path class="cls-10" d="M85.7,44c7.93,6.09,11.24,49.16-28,45.71S19.76,50.43,22.76,36.94c0,0,16.78,10.68,28.77,10.79C67.87,47.88,75.36,36,85.7,44Z"/><path class="cls-13" d="M85.7,44C75.36,36,67.87,47.88,51.53,47.73,40.35,47.62,25,38.34,23,37.08c-1.34,12.37,25.93,50.84,66.46,33.1C92.43,59.15,89.64,47,85.7,44Z"/><path class="cls-4" d="M51.92,100.26c-.62,1.29,5.3,3.74,7,3.66,2.88-.12,7.38-3,7-3.87S52.35,99.36,51.92,100.26Z"/><path class="cls-14" d="M96.67,33.78c-.79-.51,3.63-4.6,4.51-4.6s6.78,1.51,6.49,2S97.35,34.21,96.67,33.78Z"/><path class="cls-9" d="M72.23,13.73c-.36-1.54.11-4.89,2.44-5.06s10.42,4,8.75,7.34S73.38,18.59,72.23,13.73Z"/><path class="cls-9" d="M81.86,2.8c.71-1.42,4.72-2.81,6.62-1.44s4,9.52.58,11S79.63,7.26,81.86,2.8Z"/><path class="cls-9" d="M82.31,10.09c-.11.36-1.23.58-1.91.12s-1.94-2.8-1-3.07S82.65,9,82.31,10.09Z"/><path class="cls-10" d="M10.3,48.8c-3.13-3.5-7.75-8.88-4.75-11.88s11,10.63,10.62,12.63S13.42,52.3,10.3,48.8Z"/><path class="cls-10" d="M13.31,40.21c-1.18-2.19-2.57-4.88-1.54-6s4.84,6.61,4.59,7.77S14.75,42.9,13.31,40.21Z"/><path class="cls-10" d="M20.5,35.26c1.17,2.2,1.17,5.33-1.75,4.5-1.62-.47-4.25-9.6-4-10.75S19.08,32.56,20.5,35.26Z"/><path class="cls-10" d="M14.34,56.33c1.34,1.17.71,4.06-1.25,3.14a7.58,7.58,0,0,1-4-5.22C9,53.41,12.71,54.89,14.34,56.33Z"/><path class="cls-7" d="M24.8,70.05A49.56,49.56,0,0,0,49.17,79.8s-9.5,3.62-23-5.13Z"/><path class="cls-7" d="M21.13,57.9A46.69,46.69,0,0,0,43.66,68.71s-9.22,2.93-21.5-6.28Z"/><path class="cls-7" d="M21.16,45.47a38.7,38.7,0,0,0,19.14,12,34.43,34.43,0,0,1-19.5-6.37Z"/><g class="cls-15"><path class="cls-16" d="M99.74,31.1v-.05l-.12-.5c-.11-.45-.22-.9-.35-1.34l-.15-.54-.3-1-.15-.47c-.13-.39-.27-.77-.41-1.14-.07-.17-.13-.33-.2-.49s-.24-.6-.37-.89-.15-.32-.22-.47c-.14-.3-.29-.6-.44-.88l-.23-.42c-.16-.28-.32-.55-.48-.8l-.25-.38c-.16-.24-.33-.46-.49-.68l-.27-.33a8.87,8.87,0,0,0-.64-.72c-.25-.26-.52-.5-.79-.73.87-2.29,1.85-6.38-1.76-7.55-1.91-.61-2.85,1-3.24,2.25C88.7,10.69,86.77,2.44,81,4.1c-6.75,2-3.3,7.64-3.3,7.64s-1.35-2.09-2.4-1.34-.3,2.24-.3,2.24S69,10.1,68,15C67,19.76,71.3,23.65,78,23a5.51,5.51,0,0,0-.66,1.51,13.91,13.91,0,0,0,.32,4.42c0,1.8.57,6.2-.91,7.91a9.32,9.32,0,0,0,1.86-1.25c0,1.86-.11,4-1,5a9.83,9.83,0,0,0,2.09-1.47,14.26,14.26,0,0,1-2.55,6.37c-8.2-2.08-15.68,6.29-29.43,6.16-.37,0-.73,0-1.1,0l-.38,0-.75-.06L45,51.42l-.69-.09-.49-.08-.67-.11-.5-.1-.68-.14-.5-.11-.68-.16-.51-.13-.68-.19-.51-.14L38.37,50l-.49-.15-.71-.23-.47-.16L36,49.17,35.53,49l-.77-.28-.39-.15-.85-.34-.29-.11-1.07-.44-.06,0c-.76-.32-1.51-.64-2.23-1l-.18-.09-.88-.4-.28-.14-.74-.35-.32-.16-.66-.32-.34-.17-.6-.31-.35-.18L25,44.28l-.34-.17-.51-.28-.34-.18-.45-.24L23,43.23,22.57,43l-.3-.17-.38-.21-.29-.17-.32-.18L21,42.1,20.76,42l-.3-.18,0,0c-.62-.36-1.08-.64-1.33-.8h0l-.23-.14c-.08.38-.17.79-.25,1.21l-2.11-3.1A27.69,27.69,0,0,0,12.77,34a9.2,9.2,0,0,0-.73-.7c-.51-.44-.9-.67-1.08-.55-1,0-1.23,2.41.22,9.31-.1-.22-.21-.43-.32-.65a10.93,10.93,0,0,0-1.64-2.64A2.14,2.14,0,0,0,8.3,38,1.45,1.45,0,0,0,7,37.92c-1.56.63-.15,4.52.85,6.83-2-2.77-4.33-4.93-5.8-4.23-.82.32-1.52,1.4-1.94,3.69-.72,3.87,1.39,8.95,5.48,13.18-.74-.19-1.19,0-1.17.88.08,2.37,1.71,4.14,3.05,5.9.09.21.18.41.28.61-.82-.14-1.35,0-1.35.72A9.56,9.56,0,0,0,8,70.08a14.47,14.47,0,0,0,4.48,5.38c.41.37.83.74,1.27,1.1-.67.08-1,.6-.59,1.88.76,2.51,4,4.91,6.83,6.51-2-.5-3.86-.64-3.39.23,2.24,4.11,12.07,12.7,23.79,16.6,3.14,2.81,7.36,6,11.4,7.29.48,3,1.21,7.4,1.69,10.29a18.15,18.15,0,0,0-5.8,3.59l14.53.15a.44.44,0,0,0-.08-.11l11,.11c-1.32-2-5.29-3.49-6.85-4a37.62,37.62,0,0,1,.16-10.67c3.91-1.12,8.45-5.43,11.64-9,17-10,23.12-31.61,23.47-41.28,0-.67,0-1.35.06-2,0-.17,0-.34,0-.51,0-.67,0-1.34,0-2v-.2c0-.62,0-1.23,0-1.84,0-.17,0-.34,0-.51,0-.65,0-1.3,0-2,0-.12,0-.23,0-.34,0-.56,0-1.11,0-1.66,0-.18,0-.36,0-.54,0-.62,0-1.24-.08-1.86l0-.44-.09-1.5c0-.18,0-.37,0-.55,0-.59-.09-1.17-.15-1.75,0-.17,0-.34-.05-.51l0-.28c1.63-1.17,3-2.58,3-3.79a9.6,9.6,0,0,0,2.82-1.12C107.34,34.1,101.7,31.51,99.74,31.1Zm-44.3,78.49a17.89,17.89,0,0,0,5.4-1.59,12.61,12.61,0,0,0,1.61.46c.48,3,1.28,7.87,1.8,11a20.69,20.69,0,0,0-3.82,2,22,22,0,0,0-4.94-2.3A42.18,42.18,0,0,1,55.44,109.59Z"/></g></g></g></g></svg>