<svg xmlns="http://www.w3.org/2000/svg" xmlns:xlink="http://www.w3.org/1999/xlink" viewBox="0 0 98.05 144"><defs><style>.cls-1{mask:url(#mask);filter:url(#luminosity-noclip-2);}.cls-2{mix-blend-mode:multiply;fill:url(#linear-gradient);}.cls-3{isolation:isolate;}.cls-4{fill:#ffcb57;}.cls-5{fill:#ffd85a;}.cls-6{fill:#ff8431;}.cls-7{fill:#efb541;}.cls-8{fill:#b7642c;}.cls-9{fill:#8e3d1a;}.cls-10{fill:#f49047;}.cls-11{fill:#664a36;}.cls-12{fill:#f7b839;}.cls-13{fill:#d69727;}.cls-14{fill:#ffd04d;}.cls-15{mask:url(#mask-2);}.cls-16{opacity:0.6;mix-blend-mode:overlay;fill:url(#linear-gradient-2);}.cls-17{filter:url(#luminosity-noclip);}</style><filter id="luminosity-noclip" x="0" y="-7960.34" width="98.05" height="32766" filterUnits="userSpaceOnUse" color-interpolation-filters="sRGB"><feFlood flood-color="#fff" result="bg"/><feBlend in="SourceGraphic" in2="bg"/></filter><mask id="mask" x="0" y="-7960.34" width="98.05" height="32766" maskUnits="userSpaceOnUse"><g class="cls-17"/></mask><linearGradient id="linear-gradient" x1="49.02" y1="26.66" x2="49.02" y2="140.19" gradientUnits="userSpaceOnUse"><stop offset="0" stop-color="#999"/><stop offset="1" stop-color="#fff"/></linearGradient><filter id="luminosity-noclip-2" x="0" y="0" width="98.05" height="144" filterUnits="userSpaceOnUse" color-interpolation-filters="sRGB"><feFlood flood-color="#fff" result="bg"/><feBlend in="SourceGraphic" in2="bg"/></filter><mask id="mask-2" x="0" y="0" width="98.05" height="144" maskUnits="userSpaceOnUse"><g class="cls-1"><path class="cls-2" d="M64.51,120.3c27.61-9.74,36.69-54.22,32.61-71.1l-.42-1.67c0-.12-.07-.24-.1-.36-.11-.43-.23-.86-.34-1.29l-.09-.29c-.13-.46-.25-.91-.39-1.36a.56.56,0,0,0,0-.12c-.15-.5-.3-1-.46-1.49v0c-2.93-9.08-7.34-16.8-14.55-20.25-2.2-2.24-5.13-3.42-5.5-5.92C74.14,9.2,68.24-1.4,67,.15c-2.37,3.05,3.44,14,2.6,16.14h0a.51.51,0,0,1-.09.18.57.57,0,0,1-.14.13c-1.31.77-2.81-6.19-6.47-5.89-2.58.22,4.31,8.69,1.73,8.47s-4.1-8.47-6.47-8c-1.78.32,1.32,7.25,1.86,11.57C42.91,28.76,45.72,39.94,47.14,54.09,48,62.7,34.35,71.72,26.45,65.58c-5.17-4-14.93-12.07-5.74,4.3-2.3,1-8.77-12.07-10.92-11.2a2.86,2.86,0,0,0-.54.3l-.17.16a2.27,2.27,0,0,0-.28.26c-.07.08-.12.18-.18.26s-.12.17-.17.26-.11.25-.16.38-.07.16-.1.25-.08.34-.11.52,0,.13,0,.2a4.8,4.8,0,0,0,0,.67.76.76,0,0,0,0,.15,8,8,0,0,0,0,.83V63c0,.31.08.64.14,1h0c.5,2.79,2.12,6.44,4.95,10.5-2,1.44-8.7-14.55-11.64-13.64-1.86.57-2.44,6.75,1.3,20a63.91,63.91,0,0,0,7.52,16.51l.14.22c.3.47.61.94.92,1.4l.26.38c.3.44.61.88.92,1.31l.31.42c.32.43.63.86,1,1.29l.29.36q1.63,2.1,3.47,4.08l.35.37.94,1,.64.63.91.87.74.68.9.8.83.7c.3.25.59.49.9.73l.92.71.87.66,1.16.8.7.49c.62.4,1.24.79,1.88,1.17.24.15.5.28.75.42.42.24.83.48,1.26.7l.85.44,1.23.59.9.4c.42.19.84.36,1.26.53l.91.36,1.36.47.86.29,1.62.46c.22.06.44.13.67.18.63.16,1.28.3,1.93.43.84,4.12,2.51,12.74,2.78,17.95a57.26,57.26,0,0,1-7.15,4.28L55,144l-7.77-4.61c-.54-4.58-1.29-12.62-.68-17.21.53.06,1,.11,1.59.15l1,0c.52,0,1,0,1.57,0q.51,0,1,0l1.62-.06,1,0,1.79-.18.88-.1c.9-.12,1.81-.26,2.73-.44l.6-.13c.83,4.05,2.54,12.83,2.81,18.11A57.26,57.26,0,0,1,56,143.85l16.52.15-7.77-4.61C64.17,134.08,63.25,124.15,64.51,120.3Z"/></g></mask><linearGradient id="linear-gradient-2" x1="49.02" y1="26.66" x2="49.02" y2="140.19" gradientUnits="userSpaceOnUse"><stop offset="0" stop-color="#ffcb97"/><stop offset="1" stop-color="#0f002b"/></linearGradient></defs><g class="cls-3"><g id="Calque_2" data-name="Calque 2"><g id="Calque_1-2" data-name="Calque 1"><path class="cls-4" d="M82.32,24.5c-2-3.86-6.63-4.88-7.1-8.08C74.14,9.2,68.24-1.4,67,.15c-2.51,3.24,4.2,15.37,2.37,16.45-1.31.77-2.81-6.19-6.47-5.89-2.58.22,4.31,8.69,1.73,8.47s-4.1-8.47-6.47-8,3.88,12.5,1.3,14.65Z"/><path class="cls-5" d="M69.4,16.6c-1.31.77-2.81-6.19-6.47-5.89-2.58.22,4.31,8.69,1.73,8.47s-4.1-8.47-6.47-8,3.88,12.5,1.3,14.65L73.94,25c-.22-.61-.46-1.22-.71-1.84a42.92,42.92,0,0,0-3.6-6.84A.57.57,0,0,1,69.4,16.6Z"/><path class="cls-6" d="M42.4,119.29s4.16,19,3.16,23.56h2.15s-2.73-19-.43-23.27Z"/><path class="cls-6" d="M38.52,143.85c2.44-1,8-4.88,8-4.88L55,144Z"/><path class="cls-6" d="M59.92,119.29s4.16,19,3.16,23.56h2.15s-2.73-19-.43-23.27Z"/><path class="cls-6" d="M56,143.85c2.44-1,8-4.88,8-4.88l8.48,5Z"/><path class="cls-4" d="M2.76,80.8c5.45,19.31,25.71,46.82,57,40.79S101.43,67,97.12,49.2,84.48,15.88,63.51,21.63,45.63,39.05,47.14,54.09C48,62.7,34.35,71.72,26.45,65.58c-5.17-4-14.93-12.07-5.74,4.3-2.3,1-8.77-12.07-10.92-11.2C6.63,60,7.49,66.44,13.1,74.48c-2,1.44-8.7-14.55-11.64-13.64C-.4,61.41-1,67.59,2.76,80.8Z"/><path class="cls-5" d="M40.72,86.33c21.49,0,38.92-18,38.92-40.25,0-9.75-2.21-18.92-7.78-25.88a44.43,44.43,0,0,0-8.35,1.43c-21,5.74-17.88,17.42-16.37,32.46C48,62.7,34.35,71.72,26.45,65.58c-5.17-4-14.93-12.07-5.74,4.3-2.3,1-8.77-12.07-10.92-11.2C6.66,60,7.49,66.32,13,74.27A38.17,38.17,0,0,0,40.72,86.33Z"/><path class="cls-7" d="M97.12,49.2c-2.18-9-5.37-17.37-10.7-22.75,15.38,22.38,8.69,76-31.12,86.88C35.16,118.83,15.77,102.11,5.8,89c8.12,17.95,26.92,37.79,54,32.58C91.08,115.56,101.43,67,97.12,49.2Z"/><path class="cls-8" d="M84.77,61.27a13.49,13.49,0,0,1-9-1.87s-1.87-4.31-.86-5.31S84.77,61.27,84.77,61.27Z"/><path class="cls-9" d="M75,54.66c-.29.43,5,4.75,9.77,6.61,1-.29-2.16-8.05-2.16-8.05Z"/><path class="cls-10" d="M74.28,54.45s3-6.68,6.18-7.19C83.82,46.73,91.3,51.5,92,52.94,91.59,54.3,81,56.17,74.28,54.45Z"/><path class="cls-11" d="M60.78,37.14c5.6-1.58,6.75,18.1,3.3,19.1C58.36,57.91,56.55,38.33,60.78,37.14Z"/><path class="cls-11" d="M86.19,32.71C90.8,31.2,92.77,45.85,90,46.81,85.25,48.39,82.72,33.85,86.19,32.71Z"/><path class="cls-12" d="M36.79,74.48c-4.74,1.58-18.81,4-18.52,11.06.2,4.91,7.88,4.3,12.51,3.48-4.38,1.17-11,3.84-7.06,8.73,5.6,7,21.26-4.6,21.26-4.6s-9.76,12.64-.72,16.52,23.89-8.31,26.14-18.53C73.4,77.56,57.49,67.58,36.79,74.48Z"/><path class="cls-9" d="M75.08,54.58a.55.55,0,1,0-1.06.21.55.55,0,1,0,1.06-.21Z"/><path class="cls-13" d="M30.07,89.13a24,24,0,0,1,5-1.86c-4.63.82-12.31,1.43-12.51-3.48-.12-3,2.3-5.11,5.5-6.72-5,1.72-9.92,4.28-9.75,8.47C18.46,90.21,25.41,89.88,30.07,89.13Z"/><path class="cls-13" d="M48.51,107.92C40.8,104,44.84,96.2,44.93,93.2c-3.75,3.44-8,13.67-.94,16.69,3.45,1.48,8,.4,12.14-1.8A11.44,11.44,0,0,1,48.51,107.92Z"/><path class="cls-13" d="M28,96c-2.4-3,.23-5.68,2.83-7.17-5.12.93-11,4.6-7.44,9.12,3.11,3.9,10.38,2.38,14.55-.54C34.09,98.64,30.22,98.82,28,96Z"/><path class="cls-14" d="M30.55,80.45c.34,5.12,8.38,4,11.88,2.88,0,0-10,5.36-7,8.87,4.12,4.75,16.25-3.62,16.25-3.62s-5.13,10.87,1,14.5,12.75-4.58,14.5-9.5c2.12-6,0-14.24-5.13-17.75C55.8,71.58,30.05,72.83,30.55,80.45Z"/><g class="cls-15"><path class="cls-16" d="M64.51,120.3c27.61-9.74,36.69-54.22,32.61-71.1l-.42-1.67c0-.12-.07-.24-.1-.36-.11-.43-.23-.86-.34-1.29l-.09-.29c-.13-.46-.25-.91-.39-1.36a.56.56,0,0,0,0-.12c-.15-.5-.3-1-.46-1.49v0c-2.93-9.08-7.34-16.8-14.55-20.25-2.2-2.24-5.13-3.42-5.5-5.92C74.14,9.2,68.24-1.4,67,.15c-2.37,3.05,3.44,14,2.6,16.14h0a.51.51,0,0,1-.09.18.57.57,0,0,1-.14.13c-1.31.77-2.81-6.19-6.47-5.89-2.58.22,4.31,8.69,1.73,8.47s-4.1-8.47-6.47-8c-1.78.32,1.32,7.25,1.86,11.57C42.91,28.76,45.72,39.94,47.14,54.09,48,62.7,34.35,71.72,26.45,65.58c-5.17-4-14.93-12.07-5.74,4.3-2.3,1-8.77-12.07-10.92-11.2a2.86,2.86,0,0,0-.54.3l-.17.16a2.27,2.27,0,0,0-.28.26c-.07.08-.12.18-.18.26s-.12.17-.17.26-.11.25-.16.38-.07.16-.1.25-.08.34-.11.52,0,.13,0,.2a4.8,4.8,0,0,0,0,.67.76.76,0,0,0,0,.15,8,8,0,0,0,0,.83V63c0,.31.08.64.14,1h0c.5,2.79,2.12,6.44,4.95,10.5-2,1.44-8.7-14.55-11.64-13.64-1.86.57-2.44,6.75,1.3,20a63.91,63.91,0,0,0,7.52,16.51l.14.22c.3.47.61.94.92,1.4l.26.38c.3.44.61.88.92,1.31l.31.42c.32.43.63.86,1,1.29l.29.36q1.63,2.1,3.47,4.08l.35.37.94,1,.64.63.91.87.74.68.9.8.83.7c.3.25.59.49.9.73l.92.71.87.66,1.16.8.7.49c.62.4,1.24.79,1.88,1.17.24.15.5.28.75.42.42.24.83.48,1.26.7l.85.44,1.23.59.9.4c.42.19.84.36,1.26.53l.91.36,1.36.47.86.29,1.62.46c.22.06.44.13.67.18.63.16,1.28.3,1.93.43.84,4.12,2.51,12.74,2.78,17.95a57.26,57.26,0,0,1-7.15,4.28L55,144l-7.77-4.61c-.54-4.58-1.29-12.62-.68-17.21.53.06,1,.11,1.59.15l1,0c.52,0,1,0,1.57,0q.51,0,1,0l1.62-.06,1,0,1.79-.18.88-.1c.9-.12,1.81-.26,2.73-.44l.6-.13c.83,4.05,2.54,12.83,2.81,18.11A57.26,57.26,0,0,1,56,143.85l16.52.15-7.77-4.61C64.17,134.08,63.25,124.15,64.51,120.3Z"/></g></g></g></g></svg>