<svg xmlns="http://www.w3.org/2000/svg" xmlns:xlink="http://www.w3.org/1999/xlink" viewBox="0 0 165.97 118.73"><defs><style>.cls-1{mask:url(#mask);filter:url(#luminosity-noclip-2);}.cls-2{mix-blend-mode:multiply;fill:url(#linear-gradient);}.cls-3{isolation:isolate;}.cls-4{fill:#ff9e78;}.cls-5{fill:#e57857;}.cls-6{fill:#8e9fa3;}.cls-7{fill:#758b8e;}.cls-8{fill:#657c7f;}.cls-9{fill:#b0c3c6;}.cls-10{fill:#c1d1d3;}.cls-11{fill:#768b8e;}.cls-12{fill:#a3b4b7;}.cls-13{fill:#b3c4c6;}.cls-14{fill:#4d6363;}.cls-15{fill:#e4f1f2;}.cls-16{fill:#9fbbbc;}.cls-17{fill:#d1e3e5;}.cls-18{fill:#f4bd4d;}.cls-19{mask:url(#mask-2);}.cls-20{opacity:0.6;mix-blend-mode:overlay;fill:url(#linear-gradient-2);}.cls-21{filter:url(#luminosity-noclip);}</style><filter id="luminosity-noclip" x="0.02" y="-7612.63" width="165.96" height="32766" filterUnits="userSpaceOnUse" color-interpolation-filters="sRGB"><feFlood flood-color="#fff" result="bg"/><feBlend in="SourceGraphic" in2="bg"/></filter><mask id="mask" x="0.02" y="-7612.63" width="165.96" height="32766" maskUnits="userSpaceOnUse"><g class="cls-21"/></mask><linearGradient id="linear-gradient" x1="83" y1="4.07" x2="83" y2="118.86" gradientUnits="userSpaceOnUse"><stop offset="0.02" stop-color="#999"/><stop offset="1" stop-color="#fff"/></linearGradient><filter id="luminosity-noclip-2" x="0.02" y="0" width="165.96" height="118.73" filterUnits="userSpaceOnUse" color-interpolation-filters="sRGB"><feFlood flood-color="#fff" result="bg"/><feBlend in="SourceGraphic" in2="bg"/></filter><mask id="mask-2" x="0.02" y="0" width="165.96" height="118.73" maskUnits="userSpaceOnUse"><g class="cls-1"><path class="cls-2" d="M166,20s-7.18.11-9.15,2.22c.77-2.42.47-5.85-1.8-7.63,0,0-5,9.27-1.36,10.23-.9.51-2,1.13-3.19,1.87,1.43-2.27,1.52-6.85-1.23-9,0,0-5.28,9.91-.92,10.3-1.11.69-2.31,1.45-3.58,2.29,1.51-2.21,1.71-6.88-1.06-9.08,0,0-5.49,10-1,10.29a1,1,0,0,0,.24,0c-1,.7-2.13,1.44-3.26,2.24,1.05-1.69,1.27-5-.57-6.75,0,0-4.19,7.36-1,7.75a.81.81,0,0,0,.16,0c-4.67,3.34-9.95,7.41-15.52,12.23a87.21,87.21,0,0,0-9.53-1H113c-.24-3-2-7.09-4.71-10.83,5.75,2.34,13.26,1.13,17.25-2.47,7.06-6.37,5.37-16.29,1.39-21.33s-12.66-9.48-21.31-3.7c-6.9,4.6-7.29,14.07-4.38,20.52a16.11,16.11,0,0,0-6.91-2.76c.2-1.85.38-4.71-.4-4.78-.94-.09-1.43,3.23-1.63,4.69l-.26,0c-.29-1.7-.92-6.1-1.58-6.18s-.72,4.12-.73,6.54l-.19.05c-.29-2.39-.92-6.62-1.81-6.69s-.49,4.78-.19,7.36l-.16.06c-.61-2.47-1.9-7.16-2.9-7s-.27,4.6.82,8.05a24.21,24.21,0,0,0-3.69,2.65c2.16-8.38-4.15-18.09-10.87-21-8-3.48-18.55,1.36-21.68,7.85-4.35,9,1.59,18.2,7.73,21.69,4.62,2.63,11.76,3.92,17.65.57a21.46,21.46,0,0,0-2.12,5.59c-1.85-.07-12.12-.34-21.13,2.1l.16.61c8.79-2.38,18.79-2.16,20.86-2.08a7,7,0,0,0,0,2.09c0,.24.1.5.16.77h0c0,.13.07.27.11.41v.05c0,.12.07.25.11.38l0,.09,0,.11c-2.26.54-4.24,1-5.13,1.18-1.32.27-13.15,2.79-22.67,8.12l.31.55c9.44-5.28,21.18-7.78,22.48-8.05.91-.18,2.92-.65,5.21-1.2,0,0,0,.09,0,.13l.06.15c0,.11.08.22.13.33l.07.18c0,.11.1.21.14.32l.1.2c.05.1.09.2.15.31l.11.22.16.29a.16.16,0,0,0,0,.07c-1.18.42-2.14.76-2.67.93-1.14.37-11.35,3.77-19.26,9.44l.37.51c7.82-5.61,18-9,19.08-9.35.55-.18,1.57-.53,2.8-1l.09.14c0,.09.11.18.17.27l.17.25.2.27a2.48,2.48,0,0,0,.19.26c.06.09.13.17.2.26l.21.26.22.26.24.26.23.24.25.27.25.23.06.07C71,61.86,60.43,76.3,66,94.61c-39.13,8-22.38-30.7-22.86-56C42.67,16.33,25.34-9.23,8.23,3.31c-.48.35-.91.7-1.33,1.05l-.5.41-.61.55C-7.33,17.41,5.25,31.6,10.84,35.21h0a8,8,0,0,0,1.17.65l.63-1.47S-5.5,21.81,6,9.32H6c.11-.11.2-.22.31-.34C21.73-6.94,45.82,18.65,36.16,62.54c-7,31.83,8.18,41.35,23.55,42.42-12.89,7.46-22.16,9.94-22.16,9.94l.33,3.83a95.21,95.21,0,0,0,28.67-13.81c1.31-.1,2.6-.26,3.85-.45a56.57,56.57,0,0,0,3.28,4.83l0,.06c.4.52.81,1,1.24,1.58l.17.21c.39.48.8,1,1.21,1.44l.27.32c.19.2.38.41.56.62a8.93,8.93,0,0,0-1.88,1.34h8.19s-.1-.12-.27-.29l.21-5.83s10.71-1.26,17.43,1.89v4.18l-.06.05H109a6.07,6.07,0,0,0-1.91-1.46l.13-.27,0,0c.21-.42.46-.92.72-1.48a.36.36,0,0,0,0-.09q.21-.43.42-.9l0,0c.29-.64.61-1.36.94-2.14l0-.08c.5-1.18,1-2.49,1.54-3.92l0-.09c.35-1,.69-2,1-3h0c.16-.53.33-1.06.49-1.6l0-.09q.49-1.65.93-3.39v0q.21-.87.42-1.77l0-.09c.26-1.19.5-2.42.71-3.67V90.6c.1-.62.19-1.25.28-1.88v-.1c.17-1.26.3-2.55.38-3.85a.45.45,0,0,0,0-.11q.06-1,.09-2v-.09c0-1.31,0-2.63-.06-4a.76.76,0,0,0,0-.15c0-.65-.09-1.31-.15-2v-.09c-.14-1.32-.34-2.64-.61-4l0-.18c-.14-.65-.29-1.3-.46-1.94l0-.07c-.17-.67-.37-1.33-.58-2h0a34.52,34.52,0,0,0-3.89-8.18c1.59-1.58,3.26-3.2,5-4.84a75.22,75.22,0,0,1,17.16,10.38l.41-.48a76.54,76.54,0,0,0-17.07-10.37c.79-.73,1.58-1.46,2.39-2.19l.07,0c1.27.37,12.64,3.76,21.54,9.75l.35-.52c-8.48-5.71-19.17-9.07-21.41-9.74q2.52-2.27,5.16-4.51A61.77,61.77,0,0,1,133.9,50.3l.21-.59a60.61,60.61,0,0,0-10.27-2.59c5-4.21,10.25-8.3,15.38-11.9a1.67,1.67,0,0,0-.08.2c-.92,3.52,7.68,1.72,7.68,1.72-.83-2.48-3.93-3.48-5.94-3.06,1-.67,2-1.32,2.91-1.95-.53,3.77,9.18,1.76,9.18,1.76-.85-2.54-3.69-3.77-6-3.75q1.67-1,3.27-1.92c-1.07,4.4,10,2.44,10,2.44-.85-2.81-3.9-4.26-6.44-4.35,1.1-.54,2.16-1,3.19-1.45C159.11,26.58,165.31,24.32,166,20ZM109.28,59.68a34.58,34.58,0,0,0-2.38-3.14c.23-.16.45-.33.67-.51l.17-.14c.34-.29.68-.58,1-.88l.11-.1a17.89,17.89,0,0,0,1.4-1.54c1.53.7,2.82,1.27,3.46,1.54l.25.1Q111.62,57.26,109.28,59.68Zm5.15-5.14-.51-.22c-.61-.25-1.84-.8-3.3-1.46a11,11,0,0,0,.63-.94l.08-.12c.19-.31.37-.62.52-.93h0c1.9.62,3.67,1.19,4.82,1.54Zm2.79-2.63c-1.11-.34-3-.95-5.08-1.62l.19-.45,0-.09c.13-.31.23-.62.32-.91h0a8.12,8.12,0,0,0,.3-1.41,7,7,0,0,0,0-.8h.19a86.44,86.44,0,0,1,8.93.86C120.52,48.9,118.88,50.37,117.22,51.91Z"/></g></mask><linearGradient id="linear-gradient-2" x1="83" y1="4.07" x2="83" y2="118.86" gradientUnits="userSpaceOnUse"><stop offset="0.02" stop-color="#ffd995"/><stop offset="1" stop-color="#240043"/></linearGradient></defs><g class="cls-3"><g id="Calque_2" data-name="Calque 2"><g id="Calque_1-2" data-name="Calque 1"><path class="cls-4" d="M76.07,103.29c-17,4.62-49.57,3.15-39.91-40.75S21.73-6.94,6.34,9c-12.19,12.6,6.3,25.41,6.3,25.41L12,35.86C7.12,33.71-10,16.7,8.23,3.31c17.11-12.54,34.44,13,34.86,35.29C43.59,65.22,25,106.65,72.5,93Z"/><path class="cls-5" d="M6,9.32l-.69.7c-10.64,11.17,2.1,22.5,5.5,25.19a8,8,0,0,0,1.17.65l.63-1.47S-5.5,21.81,6,9.32Z"/><path class="cls-5" d="M7.23,4.26C24.34-8.47,41.67,17.48,42.09,40.08c.5,27-18.06,69.09,29.41,55.23l2.87,8.4c.58-.13,1.15-.27,1.7-.42L72.5,93C25,106.65,43.59,65.22,43.09,38.6,42.67,16.33,25.34-9.23,8.23,3.31A26.27,26.27,0,0,0,4.74,6.36,26.93,26.93,0,0,1,7.23,4.26Z"/><path class="cls-6" d="M78.17,114.63h5l.21-5.88s10.71-1.26,17.43,1.89v4.2h5.46s20.79-36.55-.42-59.44l-26-2.73S46.24,80.39,78.17,114.63Z"/><path class="cls-7" d="M113.48,68.33c-.1.41-.19.82-.29,1.22C107.28,92.16,90,107.74,72.44,107.6a65.14,65.14,0,0,0,5.73,7h5l.21-5.88s10.71-1.26,17.43,1.89v4.2h5.46S120.49,89.91,113.48,68.33Z"/><path class="cls-8" d="M81.06,52.8l-1.21-.13s-33.61,27.72-1.68,62h.21C53.67,83.5,73,60.48,81.06,52.8Z"/><path class="cls-8" d="M105.89,55.4l-.63,1.08c16.1,19.25,3.39,50.55.33,58.36h.72S127.1,78.29,105.89,55.4Z"/><path class="cls-8" d="M101.51,114.84l.94-4.54c-5.88-3.69-20.13-1.82-20.13-1.82l.25,6.15h.64l.21-5.88s10.71-1.26,17.43,1.89v4.2Z"/><path class="cls-9" d="M93.55,104c12.49-.91,18-35.5-2.38-36.17S70.94,105.66,93.55,104Z"/><path class="cls-10" d="M90.3,90.44c3.66-6.53,9-10.91,13.69-11.72-1.49-5.92-5.46-10.61-12.82-10.86-18-.59-20,29.44-4.55,35.25A27.27,27.27,0,0,1,90.3,90.44Z"/><path class="cls-8" d="M76.12,56.55C79,60.65,96,68.68,111.25,63c0,0-5.52-8.35-6.62-9.29s-26.94.79-26.94.79Z"/><path class="cls-6" d="M72.18,47.58c-1-5.62,8.19-21.11,19.53-22.22S113.77,40.49,113,47.42c-.55,4.86-6.93,14-22.21,13.39C76.65,60.23,73,52,72.18,47.58Z"/><path class="cls-11" d="M92.76,47.23c-8.2,0-15.13,4.05-20.51.69C73.16,52.4,77,60.24,90.77,60.81s20.43-7,21.91-12C107.47,51.65,100.18,47.23,92.76,47.23Z"/><path class="cls-6" d="M70.73,9.16c-8-3.48-18.55,1.36-21.68,7.85-4.35,9,1.59,18.2,7.73,21.69s16.75,4.62,22.94-4.38S78.6,12.6,70.73,9.16Z"/><path class="cls-4" d="M70,10.94C63,7.86,53.63,12.14,50.86,17.88,47,25.84,52.27,34,57.7,37.09S72.53,41.18,78,33.21,77,14,70,10.94Z"/><path class="cls-5" d="M63.08,37.34c-5.44-3.1-10.69-11.25-6.85-19.21C58.11,14.25,63,11,68.15,10.32c-6.75-1.68-14.76,2.32-17.29,7.56C47,25.84,52.27,34,57.7,37.09a17.65,17.65,0,0,0,10.51,2.15A18,18,0,0,1,63.08,37.34Z"/><path class="cls-6" d="M86,29.67c-1.36-3.36-2.94-10-1.57-10.19S87.72,28,87.72,28s-1.26-9,0-8.92,2,8.61,2,8.29-.11-8.29.73-8.19,1.63,7.24,1.74,6.82.57-5.46,1.73-5.35.21,6.3.21,6.3Z"/><path class="cls-12" d="M73.89,46.29c-.85-5,7-18.62,16.58-19.59s20.58,11.76,19.91,17.87c-.47,4.29-2.53,3.89-15.5,3.33C82.9,47.39,74.56,50.18,73.89,46.29Z"/><path class="cls-13" d="M80.07,33.44c2.21-3.18,8.08-8.13,17-4.81,5.46,2.05-11.61,12.78-14,12.94S76.6,38.42,80.07,33.44Z"/><path class="cls-6" d="M126.92,11.36c-4-5-12.66-9.48-21.31-3.7S98.53,26.84,104,32.39s16.42,4.89,21.51.3C132.59,26.32,130.9,16.4,126.92,11.36Z"/><path class="cls-4" d="M125.37,12.56c-3.46-4.38-11-8.25-18.55-3.22s-6.16,16.7-1.38,21.53,14.29,4.26,18.72.26C130.3,25.59,128.83,17,125.37,12.56Z"/><path class="cls-5" d="M110.07,12.34a13.1,13.1,0,0,1,15.25.16c-3.49-4.36-11-8.16-18.5-3.16s-6.16,16.7-1.38,21.53a10.36,10.36,0,0,0,2.14,1.65C103.75,27.14,103.16,17,110.07,12.34Z"/><path class="cls-14" d="M81,37.76,81.84,39s4.31.1,5.67-2.31L87,36.39A6,6,0,0,1,81,37.76Z"/><path class="cls-14" d="M103.47,37.85l-.9,1.2s-4.16-.16-5.33-2.64l.53-.29A5.72,5.72,0,0,0,103.47,37.85Z"/><path class="cls-15" d="M90.14,47.21s.31,5.25,1.89,5.25c2.41,0,3-4.94,3-4.94Z"/><path class="cls-16" d="M90.32,49.05a5.52,5.52,0,0,1,4.25.65l.81-2L90,47.23Z"/><path class="cls-14" d="M45.14,59.24l-.31-.55c9.52-5.33,21.35-7.85,22.67-8.12,2.76-.56,15.71-3.74,15.84-3.77l.15.61c-.13,0-13.1,3.21-15.87,3.78C66.32,51.46,54.58,54,45.14,59.24Z"/><path class="cls-14" d="M52.28,63.07l-.37-.51c7.91-5.67,18.12-9.07,19.26-9.44,2.38-.77,13.53-4.87,13.64-4.91l.22.59c-.12,0-11.27,4.14-13.67,4.92C70.23,54.09,60.1,57.46,52.28,63.07Z"/><path class="cls-14" d="M51.34,47.57,51.18,47c9.38-2.54,20.15-2.14,21.34-2.09,2.5.11,14.38.18,14.5.18v.63c-.12,0-12-.07-14.52-.18C71.31,45.45,60.64,45.05,51.34,47.57Z"/><path class="cls-14" d="M139.11,62.42l.35-.52c-9-6-20.44-9.46-21.72-9.84-2.68-.77-15.2-4.93-15.33-5l-.19.59c.12,0,12.66,4.21,15.35,5C118.84,53,130.21,56.43,139.11,62.42Z"/><path class="cls-14" d="M131.77,65.69l.41-.48C124.82,59,115,54.78,113.92,54.32c-2.28-1-13-5.89-13.06-5.94l-.26.57c.11,0,10.79,5,13.09,6C114.77,55.36,124.49,59.49,131.77,65.69Z"/><path class="cls-14" d="M133.9,50.3l.21-.59c-9.06-3.25-19.7-3.68-20.88-3.72-2.47-.08-14.19-.92-14.3-.93l-.05.63c.12,0,11.84.85,14.33.93C114.38,46.66,124.93,47.09,133.9,50.3Z"/><path class="cls-9" d="M104.05,46.94s1,4.42-3.15,4.73-7.24-3.94-8.82-4.09-3,3.3-5.83,3.78a4.84,4.84,0,0,1-5.82-4.89c0-1.73,5.35-3.46,11.18-1.89S100.9,40.8,104.05,46.94Z"/><path class="cls-17" d="M92,45.36c-.35-1.37-5-2.29-7.5-1.68s-4,1.64-4,3c0,1.94,2.21,3.31,4.68,2.69S92.29,46.73,92,45.36Z"/><path class="cls-17" d="M93,45.41c.35-1.37,4.9-2.33,7.31-1.74s3.88,1.6,3.87,3c0,1.93-2.17,3.32-4.57,2.72S92.64,46.78,93,45.41Z"/><path class="cls-14" d="M89.72,44.06c-.42,1,1.89,2.2,2.73,2.2s3.78-.84,3.15-1.78S90.07,43.19,89.72,44.06Z"/><path class="cls-8" d="M91.8,97a.75.75,0,1,0-.75.7A.73.73,0,0,0,91.8,97Z"/><path class="cls-18" d="M37.88,118.73c23-6.33,45.34-24,60.67-46,9.09-13,40.17-40.5,59.17-48.16l-.84-1.5s-31.33,15.66-58.66,49C70.27,106.14,37.55,114.9,37.55,114.9Z"/><path class="cls-6" d="M93.89,79.55l.63-4.17s10.24,1.26,15.36-2.21l-1.57,9.14S99.09,82.55,93.89,79.55Z"/><path class="cls-6" d="M88.7,82l2.09-2.81s-9.1-5.29-12.18-12.61l-7.73,4.3S71.37,76.31,88.7,82Z"/><path class="cls-6" d="M95.76,77.25c-2.15-.62-2.63-1-2.4-1.7s3.13,0,3.13,0Z"/><path class="cls-6" d="M95.27,78.69c-2.21-.4-2.73-.76-2.57-1.45s3.12-.32,3.12-.32Z"/><path class="cls-6" d="M95.28,80.22c-2.23-.2-2.78-.5-2.68-1.21s3.1-.44,3.1-.44Z"/><path class="cls-6" d="M89,80.86C90.41,82,90.64,82.5,90.26,83s-2.72-1.37-2.72-1.37Z"/><path class="cls-6" d="M89.94,79.92c1.52,1,1.79,1.46,1.46,1.94S89,81.11,89,81.11Z"/><path class="cls-6" d="M90.21,78.8c1.66.73,2,1.11,1.76,1.65s-2.51-.32-2.51-.32Z"/><path class="cls-18" d="M142.71,31.51c3,.22,4.72-7.31,1-10.29C143.68,21.22,138.19,31.19,142.71,31.51Z"/><path class="cls-18" d="M138.12,34.73c2.14.26,3.56-5.38,1-7.75C139.12,27,134.93,34.34,138.12,34.73Z"/><path class="cls-18" d="M148.4,28c3,.17,4.62-7.38.84-10.31C149.24,17.71,143.88,27.76,148.4,28Z"/><path class="cls-18" d="M154.12,24.89c3,.2,4.67-7.34.9-10.3C155,14.59,149.6,24.6,154.12,24.89Z"/><path class="cls-18" d="M156.55,24.27c1.32,2.74,8.69.46,9.42-4.27C166,20,154.59,20.18,156.55,24.27Z"/><path class="cls-18" d="M150.27,28.08c.91-3.07,8.59-2.15,10,2.58C160.29,30.66,148.92,32.66,150.27,28.08Z"/><path class="cls-18" d="M143.85,31.83c.73-2.8,7.7-2.18,9.12,2.06C153,33.89,142.75,36,143.85,31.83Z"/><path class="cls-18" d="M139.14,35.42c.61-2.35,6.49-1.84,7.68,1.72C146.82,37.14,138.22,38.94,139.14,35.42Z"/><path class="cls-6" d="M100.79,114.87H109a5.51,5.51,0,0,0-4.1-2A6.48,6.48,0,0,0,100.79,114.87Z"/><path class="cls-6" d="M75.29,114.87h8.19a5.51,5.51,0,0,0-4.1-2A6.48,6.48,0,0,0,75.29,114.87Z"/><g class="cls-19"><path class="cls-20" d="M166,20s-7.18.11-9.15,2.22c.77-2.42.47-5.85-1.8-7.63,0,0-5,9.27-1.36,10.23-.9.51-2,1.13-3.19,1.87,1.43-2.27,1.52-6.85-1.23-9,0,0-5.28,9.91-.92,10.3-1.11.69-2.31,1.45-3.58,2.29,1.51-2.21,1.71-6.88-1.06-9.08,0,0-5.49,10-1,10.29a1,1,0,0,0,.24,0c-1,.7-2.13,1.44-3.26,2.24,1.05-1.69,1.27-5-.57-6.75,0,0-4.19,7.36-1,7.75a.81.81,0,0,0,.16,0c-4.67,3.34-9.95,7.41-15.52,12.23a87.21,87.21,0,0,0-9.53-1H113c-.24-3-2-7.09-4.71-10.83,5.75,2.34,13.26,1.13,17.25-2.47,7.06-6.37,5.37-16.29,1.39-21.33s-12.66-9.48-21.31-3.7c-6.9,4.6-7.29,14.07-4.38,20.52a16.11,16.11,0,0,0-6.91-2.76c.2-1.85.38-4.71-.4-4.78-.94-.09-1.43,3.23-1.63,4.69l-.26,0c-.29-1.7-.92-6.1-1.58-6.18s-.72,4.12-.73,6.54l-.19.05c-.29-2.39-.92-6.62-1.81-6.69s-.49,4.78-.19,7.36l-.16.06c-.61-2.47-1.9-7.16-2.9-7s-.27,4.6.82,8.05a24.21,24.21,0,0,0-3.69,2.65c2.16-8.38-4.15-18.09-10.87-21-8-3.48-18.55,1.36-21.68,7.85-4.35,9,1.59,18.2,7.73,21.69,4.62,2.63,11.76,3.92,17.65.57a21.46,21.46,0,0,0-2.12,5.59c-1.85-.07-12.12-.34-21.13,2.1l.16.61c8.79-2.38,18.79-2.16,20.86-2.08a7,7,0,0,0,0,2.09c0,.24.1.5.16.77h0c0,.13.07.27.11.41v.05c0,.12.07.25.11.38l0,.09,0,.11c-2.26.54-4.24,1-5.13,1.18-1.32.27-13.15,2.79-22.67,8.12l.31.55c9.44-5.28,21.18-7.78,22.48-8.05.91-.18,2.92-.65,5.21-1.2,0,0,0,.09,0,.13l.06.15c0,.11.08.22.13.33l.07.18c0,.11.1.21.14.32l.1.2c.05.1.09.2.15.31l.11.22.16.29a.16.16,0,0,0,0,.07c-1.18.42-2.14.76-2.67.93-1.14.37-11.35,3.77-19.26,9.44l.37.51c7.82-5.61,18-9,19.08-9.35.55-.18,1.57-.53,2.8-1l.09.14c0,.09.11.18.17.27l.17.25.2.27a2.48,2.48,0,0,0,.19.26c.06.09.13.17.2.26l.21.26.22.26.24.26.23.24.25.27.25.23.06.07C71,61.86,60.43,76.3,66,94.61c-39.13,8-22.38-30.7-22.86-56C42.67,16.33,25.34-9.23,8.23,3.31c-.48.35-.91.7-1.33,1.05l-.5.41-.61.55C-7.33,17.41,5.25,31.6,10.84,35.21h0a8,8,0,0,0,1.17.65l.63-1.47S-5.5,21.81,6,9.32H6c.11-.11.2-.22.31-.34C21.73-6.94,45.82,18.65,36.16,62.54c-7,31.83,8.18,41.35,23.55,42.42-12.89,7.46-22.16,9.94-22.16,9.94l.33,3.83a95.21,95.21,0,0,0,28.67-13.81c1.31-.1,2.6-.26,3.85-.45a56.57,56.57,0,0,0,3.28,4.83l0,.06c.4.52.81,1,1.24,1.58l.17.21c.39.48.8,1,1.21,1.44l.27.32c.19.2.38.41.56.62a8.93,8.93,0,0,0-1.88,1.34h8.19s-.1-.12-.27-.29l.21-5.83s10.71-1.26,17.43,1.89v4.18l-.06.05H109a6.07,6.07,0,0,0-1.91-1.46l.13-.27,0,0c.21-.42.46-.92.72-1.48a.36.36,0,0,0,0-.09q.21-.43.42-.9l0,0c.29-.64.61-1.36.94-2.14l0-.08c.5-1.18,1-2.49,1.54-3.92l0-.09c.35-1,.69-2,1-3h0c.16-.53.33-1.06.49-1.6l0-.09q.49-1.65.93-3.39v0q.21-.87.42-1.77l0-.09c.26-1.19.5-2.42.71-3.67V90.6c.1-.62.19-1.25.28-1.88v-.1c.17-1.26.3-2.55.38-3.85a.45.45,0,0,0,0-.11q.06-1,.09-2v-.09c0-1.31,0-2.63-.06-4a.76.76,0,0,0,0-.15c0-.65-.09-1.31-.15-2v-.09c-.14-1.32-.34-2.64-.61-4l0-.18c-.14-.65-.29-1.3-.46-1.94l0-.07c-.17-.67-.37-1.33-.58-2h0a34.52,34.52,0,0,0-3.89-8.18c1.59-1.58,3.26-3.2,5-4.84a75.22,75.22,0,0,1,17.16,10.38l.41-.48a76.54,76.54,0,0,0-17.07-10.37c.79-.73,1.58-1.46,2.39-2.19l.07,0c1.27.37,12.64,3.76,21.54,9.75l.35-.52c-8.48-5.71-19.17-9.07-21.41-9.74q2.52-2.27,5.16-4.51A61.77,61.77,0,0,1,133.9,50.3l.21-.59a60.61,60.61,0,0,0-10.27-2.59c5-4.21,10.25-8.3,15.38-11.9a1.67,1.67,0,0,0-.08.2c-.92,3.52,7.68,1.72,7.68,1.72-.83-2.48-3.93-3.48-5.94-3.06,1-.67,2-1.32,2.91-1.95-.53,3.77,9.18,1.76,9.18,1.76-.85-2.54-3.69-3.77-6-3.75q1.67-1,3.27-1.92c-1.07,4.4,10,2.44,10,2.44-.85-2.81-3.9-4.26-6.44-4.35,1.1-.54,2.16-1,3.19-1.45C159.11,26.58,165.31,24.32,166,20ZM109.28,59.68a34.58,34.58,0,0,0-2.38-3.14c.23-.16.45-.33.67-.51l.17-.14c.34-.29.68-.58,1-.88l.11-.1a17.89,17.89,0,0,0,1.4-1.54c1.53.7,2.82,1.27,3.46,1.54l.25.1Q111.62,57.26,109.28,59.68Zm5.15-5.14-.51-.22c-.61-.25-1.84-.8-3.3-1.46a11,11,0,0,0,.63-.94l.08-.12c.19-.31.37-.62.52-.93h0c1.9.62,3.67,1.19,4.82,1.54Zm2.79-2.63c-1.11-.34-3-.95-5.08-1.62l.19-.45,0-.09c.13-.31.23-.62.32-.91h0a8.12,8.12,0,0,0,.3-1.41,7,7,0,0,0,0-.8h.19a86.44,86.44,0,0,1,8.93.86C120.52,48.9,118.88,50.37,117.22,51.91Z"/></g></g></g></g></svg>