<svg xmlns="http://www.w3.org/2000/svg" xmlns:xlink="http://www.w3.org/1999/xlink" viewBox="0 0 129.28 146.65"><defs><style>.cls-1{mask:url(#mask);filter:url(#luminosity-noclip-2);}.cls-2{mix-blend-mode:multiply;fill:url(#linear-gradient);}.cls-3{isolation:isolate;}.cls-4{fill:#604736;}.cls-5{fill:#594130;}.cls-6{fill:#c69777;}.cls-7{fill:#e5ba9c;}.cls-8{fill:#664b38;}.cls-9{fill:#c9773f;}.cls-10{fill:#442f21;}.cls-11{fill:#4f392a;}.cls-12{fill:#493426;}.cls-13{fill:#e2915a;}.cls-14{fill:#fca265;}.cls-15{fill:#593c29;}.cls-16{fill:#ffd15f;}.cls-17{fill:#3a2a22;}.cls-18{fill:#efb348;}.cls-19{fill:#443124;}.cls-20{fill:#33241a;}.cls-21{mask:url(#mask-2);}.cls-22{opacity:0.6;mix-blend-mode:overlay;fill:url(#linear-gradient-2);}.cls-23{filter:url(#luminosity-noclip);}</style><filter id="luminosity-noclip" x="0" y="-8299.2" width="129.28" height="32766" filterUnits="userSpaceOnUse" color-interpolation-filters="sRGB"><feFlood flood-color="#fff" result="bg"/><feBlend in="SourceGraphic" in2="bg"/></filter><mask id="mask" x="0" y="-8299.2" width="129.28" height="32766" maskUnits="userSpaceOnUse"><g class="cls-23"/></mask><linearGradient id="linear-gradient" x1="64.64" y1="44.69" x2="64.64" y2="148.69" gradientUnits="userSpaceOnUse"><stop offset="0.02" stop-color="#999"/><stop offset="1" stop-color="#fff"/></linearGradient><filter id="luminosity-noclip-2" x="0" y="0.01" width="129.28" height="146.64" filterUnits="userSpaceOnUse" color-interpolation-filters="sRGB"><feFlood flood-color="#fff" result="bg"/><feBlend in="SourceGraphic" in2="bg"/></filter><mask id="mask-2" x="0" y="0.01" width="129.28" height="146.64" maskUnits="userSpaceOnUse"><g class="cls-1"><path class="cls-2" d="M129.28,31.07s0-.06,0-.08a1.29,1.29,0,0,0-.06-.25l0-.08c0-.09-.09-.18-.14-.27l0-.06c-.81-1.27-3.27-2.89-5.39-4.5a4.56,4.56,0,0,0-2.37-.72c3.26-2.32,5.44-5.16,6-7.67,1.2-5-3.26-13.63-12.61-17.32a1.4,1.4,0,0,0-.59-.11h0a.47.47,0,0,0-.5.54v0a1,1,0,0,0,.1.35s0,0,0,0a2.87,2.87,0,0,0,.23.4s0,0,0,0a5,5,0,0,0,.4.46l.09.09a7,7,0,0,0,.55.49l.12.09a8.55,8.55,0,0,0,.77.54c2.66,1.71,10.53,15.23-6,19.73a.66.66,0,0,0-.51.13l-1.13.27c-.17-.53-.46-1-1-1.09-.72-.07-1.1.86-1.28,1.49l-.43.07c-.37-.58-1-1.42-1.55-1.33a.94.94,0,0,0-.9,1.13,24.54,24.54,0,0,0-6.4-.13c.14-.78.1-1.51-.44-1.74C95,21,94.71,23.36,94.71,23.36s.06-2.12-1-2.39-1.24,2.19-1.24,2.19S91.9,20.9,90.82,21s-.06,2.44-.06,2.44-1.41-1.72-2.19-1.4c-.57.22-.71.55.13,1.48C68,20.06,76.63,4.9,79.42,3.08l.49-.34.14-.11.29-.22.14-.12.22-.2L80.83,2,81,1.78l.11-.12a1.09,1.09,0,0,0,.13-.17l.09-.11.1-.16.07-.11L81.56,1l0-.11,0-.1a.67.67,0,0,0,0-.57h0L81.51.11h0A.31.31,0,0,0,81.37,0h0a.41.41,0,0,0-.16,0h0a1.49,1.49,0,0,0-.61.11C71.38,3.81,67,12.41,68.17,17.44c1.12,4.75,7.79,10.65,16.76,12l-.42.54c-3.36-1.4-9.89-2.52-11.91-.47-2.51,2.55-5.54,5.14-5.38,6.76a.8.8,0,0,0,0,.26c.54,1.59,7.9,3.79,9.78,3.08.91-.35,2.93-2.13,4.89-4a20.69,20.69,0,0,0-.55,3.39c0,.14-.1.29-.16.44l-.06.14c-.07.18-.14.37-.22.55l-.07.19-.23.53-.09.21c-.07.18-.15.36-.23.54a2,2,0,0,0-.1.21c-.09.18-.17.36-.26.55a2.26,2.26,0,0,1-.11.22c-.08.19-.18.37-.27.56a2.26,2.26,0,0,0-.11.22c-.1.19-.2.39-.31.58a2.12,2.12,0,0,1-.11.21c-.1.2-.21.39-.32.59A9.28,9.28,0,0,1,75,47.94s.87.07,1.79,0l-.48.68a8.37,8.37,0,0,1-3.61,2,17.58,17.58,0,0,0,1.79.32l0,0-.23.27a9.44,9.44,0,0,1-4.71,1.89,17.22,17.22,0,0,0,2.2.74l-.62.58-.32.28-.66.57-.34.29L69,56.2l-.36.27-.74.56-.35.26-.84.58-.3.2c-.36.24-.73.47-1.1.7l-.1.06c-.39.24-.79.48-1.2.71l-.28.15c-.33.19-.66.36-1,.54l-.27.14-.25.12c-.27.14-.55.28-.84.41l-.19.09-.42.19-.9.4h0l-.58.24-.9.36-.62.23-.92.33-.66.22-.95.3-.59.18-.14,0-1,.26-.51.14-.22,0-1.05.25-.56.13-.11,0-1.27.25-.54.11L47.51,65l-.48.07-1.42.18-.55.06-.29,0-1.13.1-.5,0-.51,0-1.07.06-.37,0-.73,0-1.2,0H37l-1,0-1.33,0-.86,0h-.32l-1.23-.08-.69,0-.52,0-1.32-.12-.5,0-.64-.07L27,65l-.3,0L26,64.87l-2.57-.36s-.48.29-1.21.76a22,22,0,0,0-16.7-4.46C-4.92,62.25,8.75,47.43,15.38,42c4.29,3.66,5.26-4,7.1-6.58-2.68,1.63-10.8,2.73-7.59,6.12C-1.38,54.76-1.3,63.32,1.27,62.63c5.23-1.39,14.1-.74,18.93,4-2.51,1.71-5.62,4-6,5.12a2.09,2.09,0,0,0-.13.48c0,.05,0,.11,0,.17s0,.26,0,.41h0A1.48,1.48,0,0,0,14,73h0a3.68,3.68,0,0,0,0,.47h0v.21h0c0,.23,0,.47,0,.71h0v.07L14,75c0,.11,0,.21,0,.32,0,1-.08,2-.13,3,0,.12,0,.24,0,.36l0,.47c0,.16,0,.31,0,.46l0,.41,0,.5c0,.11,0,.23,0,.34-.05.65-.1,1.31-.16,2l0,.27c0,.21,0,.43-.07.65l0,.28c0,.23-.05.46-.08.69a1.1,1.1,0,0,1,0,.18q-.15,1.23-.36,2.58a.5.5,0,0,1,0,.12l0,.2C10.62,98.07,8,105.7,4.23,117.19c.93,4,2.14,16.05,2.61,24.09,0,.49.06,1,.08,1.42v.1c0,.46,0,.9.05,1.32v.19c0,.4,0,.79,0,1.15v.16c0,.37,0,.72,0,1h5.34c0-.36,0-.74,0-1.12a1.27,1.27,0,0,1,0-.2c0-.4,0-.82.06-1.24h0c.05-.92.11-1.89.17-2.89h0c.5-8,1.33-18.08,1.33-18.08s6.72-8.44,10.63-13.38l1.85-.3c-.77,2.44-1.63,5.06-2.63,7.91,1,4,2.58,16,3.27,24h0c.09,1,.16,2,.22,2.87a.91.91,0,0,1,0,.17c0,.39,0,.77.07,1.12a1.09,1.09,0,0,0,0,.18c0,.35,0,.69,0,1h5.24c0-.35,0-.72,0-1.1v-.23c0-.39,0-.78,0-1.18v0l0-1.29v-.1c0-.46,0-.92,0-1.39.27-8,1-18.06,1-18.06l10-13c8.25,1.88,15.26,5.43,23.09,7.51.26,2.9.61,6.15,1,9.8l0,.15a52.29,52.29,0,0,1,4.52,13.7q.52,2.52,1,5.25h5l-.19-5.34h0l-.4-11.68s2.11-5.16,4.37-10.43c1.32-.11,2.66-.28,4.06-.52l.73-.16c-.33,3.8-.83,7.35-.83,7.35a65.79,65.79,0,0,1,5.44,15.35c.2.85.4,1.71.59,2.6s.4,1.86.59,2.83h5.14L96,127.11s2.39-8.82,4.84-15.44c8-7.33,11.12-18.89,12.15-29.92l.08,0a127.2,127.2,0,0,0,.31-14.56c5.61.49,6.62-1.76,7.62-3.34,2.59.48,3.26-.51,4.41-1.37,2.33-1.77.66-6.38-2-10.26-3.27-5.72-3.19-13.28-5.1-18.66a7.6,7.6,0,0,0,1.53.73c1.89.5,9-1.62,9.45-3A.92.92,0,0,0,129.28,31.07Z"/></g></mask><linearGradient id="linear-gradient-2" x1="64.64" y1="44.69" x2="64.64" y2="148.69" gradientUnits="userSpaceOnUse"><stop offset="0.02" stop-color="#ffd995"/><stop offset="1" stop-color="#240043"/></linearGradient></defs><g class="cls-3"><g id="Calque_2" data-name="Calque 2"><g id="Calque_1-2" data-name="Calque 1"><path class="cls-4" d="M80.54,42.27C79.29,44.1,77.46,47,75,47.94A13.52,13.52,0,0,0,78,47.85Z"/><path class="cls-4" d="M79,45.88c-1.5,1.63-3.74,4.24-6.35,4.78a13.14,13.14,0,0,0,3.06.37Z"/><path class="cls-4" d="M76.54,49.53c-1.75,1.35-4.4,3.56-7.07,3.65a13.65,13.65,0,0,0,3,.88Z"/><path class="cls-5" d="M90.1,24.89c-2.31-2-2.32-2.52-1.53-2.83s2.19,1.4,2.19,1.4-1-2.31.06-2.44,1.62,2.14,1.62,2.14.15-2.47,1.24-2.19,1,2.39,1,2.39S95,21,96.25,21.61s-.31,4.05-.31,4.05Z"/><path class="cls-6" d="M108.66,29.68c9.91-.89,17.42-7.21,18.62-12.24S124,3.81,114.67.12c-1.51-.59-1.81,1,1.2,3s12.66,18.9-13.62,21C99.75,25.92,102.55,30.47,108.66,29.68Z"/><path class="cls-7" d="M105.16,27.5c28.71-6.4,15.38-23.65,11.76-25.31A5.72,5.72,0,0,1,114.08,0c-.93,0-.76,1.44,1.79,3.07,3,1.93,12.66,18.9-13.62,21-1.81,1.36-.83,4.11,2.16,5.22A2.42,2.42,0,0,1,105.16,27.5Z"/><path class="cls-5" d="M104.19,25.62c-1.83-2.47-1-3.13-.2-3.27s1.85,1.84,1.85,1.84.33-2.18,1.41-2.07,1.19,2.32,1.19,2.32.62-2.06,1.62-1.57.63,2.44.63,2.44,1.23-1.2,2.37-.37-1.31,2.75-1.31,2.75Z"/><path class="cls-8" d="M110,27.88c.75-1.45,10.84-4.15,13.59-2.05s6.08,4.2,5.63,5.53-7.56,3.45-9.45,3S111,28.5,110,27.88Z"/><path class="cls-5" d="M122.17,30.94c-5.08,0-9.44-1.54-11.31-3.73a2.24,2.24,0,0,0-.84.67c1,.62,7.87,5.92,9.77,6.43s9-1.62,9.45-3c.14-.4-.07-.87-.49-1.38A22.16,22.16,0,0,1,122.17,30.94Z"/><path class="cls-9" d="M113.53,28.75c.47-.76,6.88-2.16,8.63-1.07s3.88,2.21,3.59,2.9-4.8,1.8-6,1.54S114.17,29.07,113.53,28.75Z"/><path class="cls-5" d="M21.89,68.75c-4.09-6.66-14.7-7.7-20.62-6.12-2.68.72-2.66-8.68,16-23,0,0,.7.5.3.74-4.83,2.91-23.83,22-12,20.43a22,22,0,0,1,18.8,6.36Z"/><path class="cls-10" d="M92.74,146.65c-1.69-8.75-3.9-15.66-6.62-20.78,0,0,1.92-13.64.74-16.13s14.42-20.36,17-4.53c-3,3.84-7.85,21.9-7.85,21.9l1.89,19.54Z"/><path class="cls-10" d="M27.47,146.65c-.18-6.37-2.29-24.28-3.62-29.31,9.73-28,8.2-34.93,8.65-45.43,0,0,35.63,5.88,13.85,34.92-2,2.67-12.56,16.43-12.56,16.43s-1.08,15.43-1.08,23.39Z"/><path class="cls-11" d="M112.86,58.59,83.12,32.69s-5,40.25-59.65,31.82c0,0-8.58,5.32-9.32,7.25s.74,7.84.74,7.84c1.58,2,3.52,4.34,5.74,6.8L15,112.16c33.6-11.25,43.94,11.37,71.19,6.52C116.12,113.35,114.05,74.57,112.86,58.59Z"/><path class="cls-5" d="M108.88,57.94,83.12,32.69s-5,40.25-59.65,31.82c0,0-8.58,5.32-9.32,7.25s.74,7.84.74,7.84c1.58,2,3.52,4.34,5.74,6.8l-5.25,21.54c33.59-11.25,41.74,9.35,69,4.5C114.27,107.11,110.06,73.92,108.88,57.94Z"/><path class="cls-4" d="M112.38,63.69,83.49,33.05l-.48.28c-.92,5.11-9,39-59.54,31.18,0,0-8.58,5.32-9.32,7.25a2.09,2.09,0,0,0-.13.48c0,.05,0,.11,0,.17s0,.27,0,.41A1.62,1.62,0,0,0,14,73a3.68,3.68,0,0,0,0,.47v.21c0,.23,0,.47,0,.71a38.5,38.5,0,0,0,.9,5.17c1.58,2,3.52,4.34,5.74,6.8l-5.25,21.54C29.93,103.06,96.38,120.35,112.38,63.69Z"/><path class="cls-12" d="M81.88,38.69c-2.67,16.83,14.33,37.66,31.18,43.08,0,0,1.58-17.76-1.58-27.43Z"/><path class="cls-5" d="M81.34,39.64c-.15,2.66,18.88,26,33.75,23.24,8-1.48,12.57-4.14,8.88-9.62-5.19-7.7-3.09-19.51-8.59-24.28C104.28,19.36,82.38,20.94,81.34,39.64Z"/><path class="cls-8" d="M114.54,60.19c8-1.48,10.4-1,6.71-6.5-5.18-7.7-2.62-19.86-8.12-24.63-6.25-5.41-16.35-7.77-21.25-1.54C87.54,33,99.68,62.94,114.54,60.19Z"/><path class="cls-5" d="M90.88,33.77h25.58S116,44.2,107.63,44.31C97.88,44.44,90.88,33.77,90.88,33.77Z"/><path class="cls-5" d="M7,146.65c0-6.37-1.63-24.42-2.81-29.46,10.51-28,9.18-34.92,9.92-45.43,0,0,35.46,5.88,12.87,34.93-2.07,2.66-13,16.42-13,16.42s-1.29,15.74-1.62,23.54Z"/><path class="cls-5" d="M73.35,146.65c-1.21-7.79-3-14.39-5.48-19,0,0,2.37-13,1.33-15.24s16.22-17.94,17.91-3.85c-2.07,3.26-9.32,21-9.32,21l.59,17Z"/><path class="cls-8" d="M86.51,31.33c-.85-1.73-11.26-4.48-13.91-1.79s-5.88,5.42-5.33,7,7.9,3.79,9.78,3.08S85.52,32.13,86.51,31.33Z"/><path class="cls-5" d="M85.61,30.55c-2.46,2.63-6.81,4.73-12,5.43a25.19,25.19,0,0,1-6.42.07,1.24,1.24,0,0,0,0,.51c.54,1.59,7.9,3.79,9.78,3.08s8.47-7.51,9.46-8.31A2.33,2.33,0,0,0,85.61,30.55Z"/><path class="cls-9" d="M84.25,32.19c-.57-1.07-7.59-2.84-9.39-1.19s-4,3.32-3.64,4.31,5.33,2.4,6.6,2S83.58,32.69,84.25,32.19Z"/><path class="cls-7" d="M86.52,29.68c-9.77-.89-17.17-7.21-18.35-12.24S71.38,3.81,80.6.12c1.48-.59,1.77,1-1.18,3S66.94,22,92.84,24.05C95.3,25.92,92.54,30.47,86.52,29.68Z"/><path class="cls-6" d="M92.84,24.05C66.94,22,76.46,5,79.42,3.08,82.06,1.36,82.1-.12,81,0c-2.56,1.59-24.56,20,9.28,26.92A2.39,2.39,0,0,1,91,29.15C93.72,28,94.56,25.36,92.84,24.05Z"/><path class="cls-9" d="M106.55,65.84c-2.12-.6-1.18-3.55-.44-4.29s16.28.14,14.94,2.22S118.54,69.24,106.55,65.84Z"/><path class="cls-9" d="M101.15,61.27c-3.3-3.8,10.32-15.28,14.91-15.16,4.27.12,13.66,13.12,9.34,16.39-1.51,1.14-2.19,2.51-7.56.39C111.39,60.35,104.31,64.9,101.15,61.27Z"/><path class="cls-13" d="M102.75,60.46c-2.88-3.31,9-13.33,13-13.22,3.72.1,11.91,11.44,8.15,14.29-1.32,1-1.92,2.19-6.6.34C111.68,59.66,105.51,63.63,102.75,60.46Z"/><path class="cls-14" d="M108.13,52.1c1.41-2.08,5.75-4.5,7.5-4.33S120,50.85,120,51.69,104.24,57.81,108.13,52.1Z"/><path class="cls-15" d="M108.11,54.06c-.13-2.05,1.62-3.71,3.26-3.17s3.22,2.67,2.92,3.83-1.25,2.86-2.69,2.43S108.19,55.36,108.11,54.06Z"/><path class="cls-15" d="M121.48,53.23c1.55.06,2.66,1.51,2.12,2.69s-2.26,2.21-3.1,1.89-2-1.17-1.61-2.22S120.5,53.18,121.48,53.23Z"/><path class="cls-16" d="M112.27,51.38c-1.67,2.47-1.23,8.21,3.46,9,5.42.89,6.56-5.08,5.08-7A1.52,1.52,0,0,0,119.38,55s.49,3.95-2.86,3.36-3.26-3.55-2.87-5.72C113.37,51.91,113.06,51.45,112.27,51.38Z"/><path class="cls-17" d="M96.32,33.93c1.27,3.37,3.1,5.84,4.74,0Z"/><path class="cls-17" d="M110,33.78c1.06,3.45,2.91,5.73,4.89,0Z"/><path class="cls-8" d="M76,49.1c-7.47,10-22.51,20-52.48,15.41,0,0-8.58,5.32-9.32,7.25A6.67,6.67,0,0,0,14,74.44C13.6,82.57,13.76,89.8,7.18,109,46,101.78,71.11,78.08,76,49.1Z"/><path class="cls-11" d="M34.52,90.34c-.26,4.4-2.39,9.78-7.5,16.35l-1.12,1.43,7.35-.81C35.14,99.91,35.29,94.45,34.52,90.34Z"/><path class="cls-8" d="M4.23,117.19C11,116.35,32,109.35,34.38,91,35.66,80.9,13,87,13,87,10.75,97.69,8,105.4,4.23,117.19Z"/><path class="cls-4" d="M67.92,127.69C72.42,125.81,93.8,115.1,85,97.81c-3.5-6.87-11.15-7-16.37-.5C65.5,101.19,65.79,109.56,67.92,127.69Z"/><path class="cls-13" d="M106.75,64.44c-.83-1.85,5-2.63,6.69-2.5s4.37,1.56,3.25,2.75S107.31,65.69,106.75,64.44Z"/><path class="cls-18" d="M112.86,52.25c-.35,2-.46,4.54,2,5.47-1.61-1.14-1.49-3.34-1.18-5-.27-.71-.56-1.15-1.24-1.26A2.88,2.88,0,0,1,112.86,52.25Z"/><path class="cls-18" d="M120.81,53.41a2.34,2.34,0,0,0-.49.14c1,2.27-.41,7.21-5.38,6.39a5.42,5.42,0,0,1-1.2-.35,5,5,0,0,0,2,.77C121.15,61.25,122.29,55.28,120.81,53.41Z"/><path class="cls-19" d="M72.38,141.31c.35,1.71.68,3.49,1,5.34h5l-.19-5.34Z"/><path class="cls-20" d="M91.55,141.19c.42,1.73.82,3.54,1.19,5.46h5.14l-.53-5.46Z"/><path class="cls-20" d="M27.12,141.31c.19,2.14.31,4,.35,5.34h5.24c0-1.55,0-3.39.11-5.34Z"/><path class="cls-19" d="M6.84,141.19c.13,2.19.2,4.09.2,5.46h5.34c.06-1.57.17-3.45.29-5.46Z"/><path class="cls-8" d="M15.18,41.81c-4-3.62,4.54-4.73,7.3-6.41C20.61,38.06,19.65,45.89,15.18,41.81Z"/><g class="cls-21"><path class="cls-22" d="M129.28,31.07s0-.06,0-.08a1.29,1.29,0,0,0-.06-.25l0-.08c0-.09-.09-.18-.14-.27l0-.06c-.81-1.27-3.27-2.89-5.39-4.5a4.56,4.56,0,0,0-2.37-.72c3.26-2.32,5.44-5.16,6-7.67,1.2-5-3.26-13.63-12.61-17.32a1.4,1.4,0,0,0-.59-.11h0a.47.47,0,0,0-.5.54v0a1,1,0,0,0,.1.35s0,0,0,0a2.87,2.87,0,0,0,.23.4s0,0,0,0a5,5,0,0,0,.4.46l.09.09a7,7,0,0,0,.55.49l.12.09a8.55,8.55,0,0,0,.77.54c2.66,1.71,10.53,15.23-6,19.73a.66.66,0,0,0-.51.13l-1.13.27c-.17-.53-.46-1-1-1.09-.72-.07-1.1.86-1.28,1.49l-.43.07c-.37-.58-1-1.42-1.55-1.33a.94.94,0,0,0-.9,1.13,24.54,24.54,0,0,0-6.4-.13c.14-.78.1-1.51-.44-1.74C95,21,94.71,23.36,94.71,23.36s.06-2.12-1-2.39-1.24,2.19-1.24,2.19S91.9,20.9,90.82,21s-.06,2.44-.06,2.44-1.41-1.72-2.19-1.4c-.57.22-.71.55.13,1.48C68,20.06,76.63,4.9,79.42,3.08l.49-.34.14-.11.29-.22.14-.12.22-.2L80.83,2,81,1.78l.11-.12a1.09,1.09,0,0,0,.13-.17l.09-.11.1-.16.07-.11L81.56,1l0-.11,0-.1a.67.67,0,0,0,0-.57h0L81.51.11h0A.31.31,0,0,0,81.37,0h0a.41.41,0,0,0-.16,0h0a1.49,1.49,0,0,0-.61.11C71.38,3.81,67,12.41,68.17,17.44c1.12,4.75,7.79,10.65,16.76,12l-.42.54c-3.36-1.4-9.89-2.52-11.91-.47-2.51,2.55-5.54,5.14-5.38,6.76a.8.8,0,0,0,0,.26c.54,1.59,7.9,3.79,9.78,3.08.91-.35,2.93-2.13,4.89-4a20.69,20.69,0,0,0-.55,3.39c0,.14-.1.29-.16.44l-.06.14c-.07.18-.14.37-.22.55l-.07.19-.23.53-.09.21c-.07.18-.15.36-.23.54a2,2,0,0,0-.1.21c-.09.18-.17.36-.26.55a2.26,2.26,0,0,1-.11.22c-.08.19-.18.37-.27.56a2.26,2.26,0,0,0-.11.22c-.1.19-.2.39-.31.58a2.12,2.12,0,0,1-.11.21c-.1.2-.21.39-.32.59A9.28,9.28,0,0,1,75,47.94s.87.07,1.79,0l-.48.68a8.37,8.37,0,0,1-3.61,2,17.58,17.58,0,0,0,1.79.32l0,0-.23.27a9.44,9.44,0,0,1-4.71,1.89,17.22,17.22,0,0,0,2.2.74l-.62.58-.32.28-.66.57-.34.29L69,56.2l-.36.27-.74.56-.35.26-.84.58-.3.2c-.36.24-.73.47-1.1.7l-.1.06c-.39.24-.79.48-1.2.71l-.28.15c-.33.19-.66.36-1,.54l-.27.14-.25.12c-.27.14-.55.28-.84.41l-.19.09-.42.19-.9.4h0l-.58.24-.9.36-.62.23-.92.33-.66.22-.95.3-.59.18-.14,0-1,.26-.51.14-.22,0-1.05.25-.56.13-.11,0-1.27.25-.54.11L47.51,65l-.48.07-1.42.18-.55.06-.29,0-1.13.1-.5,0-.51,0-1.07.06-.37,0-.73,0-1.2,0H37l-1,0-1.33,0-.86,0h-.32l-1.23-.08-.69,0-.52,0-1.32-.12-.5,0-.64-.07L27,65l-.3,0L26,64.87l-2.57-.36s-.48.29-1.21.76a22,22,0,0,0-16.7-4.46C-4.92,62.25,8.75,47.43,15.38,42c4.29,3.66,5.26-4,7.1-6.58-2.68,1.63-10.8,2.73-7.59,6.12C-1.38,54.76-1.3,63.32,1.27,62.63c5.23-1.39,14.1-.74,18.93,4-2.51,1.71-5.62,4-6,5.12a2.09,2.09,0,0,0-.13.48c0,.05,0,.11,0,.17s0,.26,0,.41h0A1.48,1.48,0,0,0,14,73h0a3.68,3.68,0,0,0,0,.47h0v.21h0c0,.23,0,.47,0,.71h0v.07L14,75c0,.11,0,.21,0,.32,0,1-.08,2-.13,3,0,.12,0,.24,0,.36l0,.47c0,.16,0,.31,0,.46l0,.41,0,.5c0,.11,0,.23,0,.34-.05.65-.1,1.31-.16,2l0,.27c0,.21,0,.43-.07.65l0,.28c0,.23-.05.46-.08.69a1.1,1.1,0,0,1,0,.18q-.15,1.23-.36,2.58a.5.5,0,0,1,0,.12l0,.2C10.62,98.07,8,105.7,4.23,117.19c.93,4,2.14,16.05,2.61,24.09,0,.49.06,1,.08,1.42v.1c0,.46,0,.9.05,1.32v.19c0,.4,0,.79,0,1.15v.16c0,.37,0,.72,0,1h5.34c0-.36,0-.74,0-1.12a1.27,1.27,0,0,1,0-.2c0-.4,0-.82.06-1.24h0c.05-.92.11-1.89.17-2.89h0c.5-8,1.33-18.08,1.33-18.08s6.72-8.44,10.63-13.38l1.85-.3c-.77,2.44-1.63,5.06-2.63,7.91,1,4,2.58,16,3.27,24h0c.09,1,.16,2,.22,2.87a.91.91,0,0,1,0,.17c0,.39,0,.77.07,1.12a1.09,1.09,0,0,0,0,.18c0,.35,0,.69,0,1h5.24c0-.35,0-.72,0-1.1v-.23c0-.39,0-.78,0-1.18v0l0-1.29v-.1c0-.46,0-.92,0-1.39.27-8,1-18.06,1-18.06l10-13c8.25,1.88,15.26,5.43,23.09,7.51.26,2.9.61,6.15,1,9.8l0,.15a52.29,52.29,0,0,1,4.52,13.7q.52,2.52,1,5.25h5l-.19-5.34h0l-.4-11.68s2.11-5.16,4.37-10.43c1.32-.11,2.66-.28,4.06-.52l.73-.16c-.33,3.8-.83,7.35-.83,7.35a65.79,65.79,0,0,1,5.44,15.35c.2.85.4,1.71.59,2.6s.4,1.86.59,2.83h5.14L96,127.11s2.39-8.82,4.84-15.44c8-7.33,11.12-18.89,12.15-29.92l.08,0a127.2,127.2,0,0,0,.31-14.56c5.61.49,6.62-1.76,7.62-3.34,2.59.48,3.26-.51,4.41-1.37,2.33-1.77.66-6.38-2-10.26-3.27-5.72-3.19-13.28-5.1-18.66a7.6,7.6,0,0,0,1.53.73c1.89.5,9-1.62,9.45-3A.92.92,0,0,0,129.28,31.07Z"/></g></g></g></g></svg>