<svg xmlns="http://www.w3.org/2000/svg" xmlns:xlink="http://www.w3.org/1999/xlink" viewBox="0 0 156.99 134.38"><defs><style>.cls-1{mask:url(#mask);filter:url(#luminosity-noclip-2);}.cls-2,.cls-23{mix-blend-mode:multiply;}.cls-2{fill:url(#linear-gradient);}.cls-3{isolation:isolate;}.cls-4{fill:#888c2f;}.cls-5{fill:#d3bba1;}.cls-6{fill:#a38567;}.cls-7{fill:#b78862;}.cls-8{fill:#efba95;}.cls-9{fill:#b28e74;}.cls-10{fill:#ff9e88;}.cls-11{fill:#e2765d;}.cls-12{fill:#e5cbb1;}.cls-13{fill:#efd5bd;}.cls-14{fill:#f9e4cd;}.cls-15{fill:#d1b399;}.cls-16{fill:#9ba538;}.cls-17{fill:#aa7248;}.cls-18{fill:#a06c45;}.cls-19{fill:#cc885a;}.cls-20{fill:#89715b;}.cls-21{fill:#c98353;}.cls-22{fill:#7f4e2d;}.cls-23{fill:#9e7e67;opacity:0.8;}.cls-24{mask:url(#mask-2);}.cls-25{opacity:0.6;mix-blend-mode:overlay;fill:url(#linear-gradient-2);}.cls-26{filter:url(#luminosity-noclip);}</style><filter id="luminosity-noclip" x="0" y="-8284.46" width="156.99" height="32766" filterUnits="userSpaceOnUse" color-interpolation-filters="sRGB"><feFlood flood-color="#fff" result="bg"/><feBlend in="SourceGraphic" in2="bg"/></filter><mask id="mask" x="0" y="-8284.46" width="156.99" height="32766" maskUnits="userSpaceOnUse"><g class="cls-26"/></mask><linearGradient id="linear-gradient" x1="78.49" y1="14.95" x2="78.49" y2="117.98" gradientUnits="userSpaceOnUse"><stop offset="0.02" stop-color="#999"/><stop offset="1" stop-color="#fff"/></linearGradient><filter id="luminosity-noclip-2" x="0" y="0" width="156.99" height="134.38" filterUnits="userSpaceOnUse" color-interpolation-filters="sRGB"><feFlood flood-color="#fff" result="bg"/><feBlend in="SourceGraphic" in2="bg"/></filter><mask id="mask-2" x="0" y="0" width="156.99" height="134.38" maskUnits="userSpaceOnUse"><g class="cls-1"><path class="cls-2" d="M147,69.1c7.46-1.66,11.65-13.08,9.33-15.23a3.28,3.28,0,0,0-2.23-.81,47.8,47.8,0,0,1-3.82-4.6h0a82.5,82.5,0,0,1-6.67-10.94l0-.05c-.37-.71-.72-1.41-1.06-2.1,0,0,0-.09-.07-.14-.33-.67-.65-1.34-1-2l-.08-.15-.9-1.92c-2-4.3-3.43-7.83-4.41-9.47v0c-.45-1.58-.83-3-1.19-4.19,4.71-1.51,9.05-3.21,11.55-8.2-4.64-1.35-9.47-.65-12.85,4.87a4.29,4.29,0,0,0-.48-.7c.43-.6.51-1.12,0-1.55-.2-6.45-6-12.74-8.67-11.82,0,0,6,6,4.36,11.38a2.16,2.16,0,0,0-.8.49,1.81,1.81,0,0,0-.55,1.54,15.92,15.92,0,0,1-7,2.07c-4,.26-6-.89-7.83-1.54a1.79,1.79,0,0,0-1.19-1.29,2.21,2.21,0,0,0-.93-.1c-3.79-4.19-.94-12.15-.94-12.15-2.81.31-5.37,8.48-2.78,14.39a.94.94,0,0,0,.42,1.24v0A22.14,22.14,0,0,0,93.6,12.47c3,5,6.52,7.3,12.61,7.17a88.18,88.18,0,0,1-3.65,11.8h0c-.46,1.1-1,2.18-1.53,3.23-.31.33-.62.65-.94,1h0c-.31.31-.64.62-1,.92h0a32.81,32.81,0,0,1-17.53,8.29h0A38.47,38.47,0,0,1,60,41.31c-11.22-5.15-10.08-1.23-14.2-.82-1.5.15-2.89-.79-4.49-1.08h0l-.32,0c-1.37-4.27-2.48-9.41-4-14.18h0a43.93,43.93,0,0,0-2.55-6.27l-.06-.11c-.22-.43-.46-.85-.7-1.26l-.1-.18c-.24-.39-.48-.77-.74-1.13l-.12-.18c-.26-.37-.53-.72-.8-1.06l-.12-.14q-.45-.54-.93-1l-.05-.06h0c-3.43-3.42-8.3-4.95-15.63-2.88C9.71,4.37,2.49,15.24.62,18.34c-.39.52-.62.86-.62.86a35,35,0,0,0,7.75,0c9.15-.68,9.8-4.46,8.22-7.1C23.61,10,34.86,11.4,37.4,40.53c-1.08.89-1.86,2-3.36,2.43-3.71,1-3.81-1.65-7.82,2.88-.09.1-.18.22-.27.34l-.09.14-.19.28-.1.17c-.05.1-.11.2-.16.31s-.07.14-.11.21-.1.22-.16.33l-.1.24c-.05.12-.11.25-.16.38a2.44,2.44,0,0,1-.1.24l-.16.45-.09.24c-.07.21-.14.42-.2.65a.36.36,0,0,0,0,.09c-.07.26-.15.52-.22.79L24,51c0,.18-.1.37-.14.56l-.09.37-.12.52-.09.42c0,.17-.07.35-.1.52l-.09.45c0,.18-.06.36-.1.54s-.05.32-.08.47-.06.38-.08.58-.05.31-.08.47-.05.44-.08.65-.05.41-.08.61-.07.6-.1.91,0,.37-.05.56,0,.39-.05.59l0,.36s0-.1,0-.15c-.8,9.73.42,22.8,6.46,33.82l-6.57,24.67,2,11.45h0l.72,4.2h4.53L29.1,121.2l13.66-13.26a1.25,1.25,0,0,0,.12.08l-2.25,9.89L43,133.56h4l-.54-12.36,2.51-2.78a15.91,15.91,0,0,0,4.2,3.26l.44.29c-2.12,1.55-5.63,1.61-3.94,3.7,2,2.5,4.19-1.15,5.11-3a10.79,10.79,0,0,0,3.12,1c-.43,2.5-1.77,4.61.81,4.54,1.58-.05.85-2.12.38-4.44a9.78,9.78,0,0,0,3.41-.55c.8,1.77,2.54,4.77,4.57,2.9,1.7-1.57-1.38-2-3.32-3.44l.23-.12c3-1.15,5.92-3.54,8.52-7.6a70.9,70.9,0,0,0,21.51-3.64L95,130h0l.26,4.43h4.29l.64-4.43h0l3.34-23.08a48.54,48.54,0,0,0,4.75-3.1L109.69,130h0l.23,4.43h3.93l.49-4.43h0l4-35.84a62.84,62.84,0,0,0,9.31-16.39c0,.06,0,.11,0,.16s1.55-3.93,3-9.18c3.11,2.5,6.9,3,8.06.56,2.75,6.92,4.78,11.43,5.92,11s-2.11-8.13-3.68-11.83l.55.21c2.54,3.89,7.74,11.65,8.52,11.25s-4.26-7.43-6.71-10.74h0l.6.1c2.89,2.72,8.15,7.43,8.74,6.28C153.19,74.56,149.89,71.5,147,69.1Z"/></g></mask><linearGradient id="linear-gradient-2" x1="78.49" y1="14.95" x2="78.49" y2="117.98" gradientUnits="userSpaceOnUse"><stop offset="0.02" stop-color="#ffd995"/><stop offset="1" stop-color="#5c0028"/></linearGradient></defs><g class="cls-3"><g id="Calque_2" data-name="Calque 2"><g id="Calque_1-2" data-name="Calque 1"><path class="cls-4" d="M137.14,65.11c3.58,9.2,6.2,15.67,7.55,15.11s-4.52-13.77-4.52-13.77,8.87,13.94,9.91,13.4-8-12.45-8-12.45,9.8,9.69,10.62,8.09-9.64-9.55-9.64-9.55Z"/><path class="cls-5" d="M93.6,12.47c8.23-.22,12.7,2.6,17.6,6.65C101.87,20.76,97.34,18.69,93.6,12.47Z"/><path class="cls-5" d="M146.47,9.29c-3.07,6.14-8.93,7.3-14.86,9.26C134.85,9,140.8,7.65,146.47,9.29Z"/><path class="cls-6" d="M96,14.58a20.71,20.71,0,0,1,12.67,4.5C101.77,19.54,98.53,18.19,96,14.58Z"/><path class="cls-6" d="M144,11.71A19,19,0,0,1,133.13,17C137.22,12.34,140.12,11.1,144,11.71Z"/><path class="cls-7" d="M112.34,14C106,10.59,109.63.49,109.63.49c-3.88.43-7,16,2.71,19.62Z"/><path class="cls-8" d="M110.81,15.2A11.85,11.85,0,0,1,109.63.49c-3.88.43-7.3,15.87,2.71,19.62Z"/><path class="cls-7" d="M107.88,16.45c-1-.46-1.5-1-.8-2s3-2.29,4.42-1.75a1.89,1.89,0,0,1,1.25,2Z"/><path class="cls-8" d="M127.85,13.48C132.08,7.67,124.49.09,124.49.09c3.69-1.27,13.17,11.45,6,18.89Z"/><path class="cls-7" d="M130.83,13.28C133.56,3.9,124.49.09,124.49.09c3.69-1.27,13.37,11.23,6,18.89Z"/><path class="cls-7" d="M132.9,13.76c.74-.86.91-1.58-.12-2.11s-3.65-.81-4.73.31a1.88,1.88,0,0,0-.27,2.34Z"/><polygon class="cls-9" points="109.92 134.38 107.96 97.32 119.08 87.23 113.85 134.38 109.92 134.38"/><polygon class="cls-9" points="40.63 117.91 49.09 80.64 64.93 100.61 46.39 121.2 46.93 133.56 42.97 133.56 40.63 117.91"/><path class="cls-10" d="M54.36,121.18c-1.79,2.37-6.69,2.09-4.76,4.49,2.65,3.29,5.57-4.06,5.57-4.06Z"/><path class="cls-10" d="M62.76,121.72c1.55,2.22,6.26,2.48,4.24,4.34-2.78,2.56-5-4.06-5-4.06Z"/><path class="cls-10" d="M58.73,121.56c.09,3,2,6.53-.09,6.59-3.37.09,0-3.53-.83-6.9C57.73,120.88,58.73,121.56,58.73,121.56Z"/><path class="cls-11" d="M45.16,108c-1.65,11.32,17.3,25.32,28.41,4.94Z"/><path class="cls-10" d="M47.34,113.09c1.8,8.81,13.79,16.71,22.15,4C63.5,118.45,52.67,116.36,47.34,113.09Z"/><path class="cls-12" d="M26.22,45.84c-6.15,6.94-11.78,67.82,43.2,68.44S132.88,67.67,132.88,51s-22.55-26.56-31.51-16.68S77.24,49.23,60,41.31c-11.22-5.15-10.08-1.23-14.2-.82-2.06.2-3.91-1.65-6.39-1S36.31,42.34,34,43C30.33,44,30.23,41.31,26.22,45.84Z"/><path class="cls-13" d="M43.75,41.28c-13.8,3.84-32.6,20.76-8,45.5s62.92,16.9,78.83-11.67c8-14.41-6.82-34.11-26.5-30.83C57.08,49.45,57.55,37.44,43.75,41.28Z"/><path class="cls-14" d="M47.06,44.32C34.77,47.74,17.1,60.46,39,82.49s57.1,13.42,71.27-12c7.14-12.84-3.46-28.49-17.56-24.38C69,53,59.35,40.9,47.06,44.32Z"/><path class="cls-15" d="M69.42,106.76c-36.12-.41-46-27.1-46.8-47.34-1.66,20.26,5.36,55,46.63,55.5,55,.62,63.63-47.25,63.63-63.93a17.48,17.48,0,0,0-.15-2.18C130.8,68.76,118.79,107.31,69.42,106.76Z"/><path class="cls-12" d="M22.51,117.91,31.62,83.7C38,91.76,43.09,95.84,50.31,100.61L29.1,121.2l.62,12.36H25.19Z"/><polygon class="cls-12" points="95.28 134.38 93.14 97.32 106.31 87.85 99.57 134.38 95.28 134.38"/><path class="cls-12" d="M12.57,13.31c7.26-3.09,22.4-6.8,25,29l3.91-1.54C36.67,27.36,35.74,2.92,12.16,11.87Z"/><path class="cls-9" d="M107.77,47.38c5.22,6.54,18.68,23.73,19.9,30.5,0,0,6-15.25,5.67-25.75Z"/><path class="cls-12" d="M96.43,40.9c9.06-8.65,9.31-25.42,12.15-26.77,3.91-1.85,5.13,1.88,11.94,1.44,6.38-.41,7.83-3.72,11.12-3.09,5.35,1,2,19.25,22.24,41.19,2.47,2.67-10.11,17-34.23,2.42C101.94,45.38,96.43,40.9,96.43,40.9Z"/><path class="cls-14" d="M109.12,23.07c-4.31,4.85-3.58,24.46,29.26,37.13,0,0,14,.11,16.87-6-10.37-10-16.5-28.07-19.13-32.5C132.88,16.2,116.92,14.31,109.12,23.07Z"/><path class="cls-12" d="M126.29,59.84c-.1-4.44,14.41,4.74,12.56,9.27S126.49,68.9,126.29,59.84Z"/><path class="cls-14" d="M127,60.36c-.08-3.49,10.87,3.72,9.47,7.28S127.13,67.48,127,60.36Z"/><path class="cls-16" d="M133.47,62.14c-4.95-6-17-8.86-16-10.35s13.09,5.36,13.09,5.36-12.07-7.71-10.11-8.86c1.8-1.06,9.26,7.17,9.26,7.17s-3.66-5.85-2.54-6.55c.66-.41,3.39,6.9,6.57,9.25Z"/><path class="cls-17" d="M133.49,50.37c3.44-2.5,7.62,2.88,11.95,4.12,3,.85,8.23-3.09,10.91-.62s-3.3,17.3-13,15.24S126.7,55.31,133.49,50.37Z"/><path class="cls-18" d="M15.92,12c2,3.24.73,8.3-15.76,7.12C.16,19.13,9.63,1.92,15.92,12Z"/><path class="cls-19" d="M11.67,14C12.39,18.52,10.08,20,0,19.2,0,19.2,10.17,4.53,11.67,14Z"/><path class="cls-6" d="M111.13,28c3.05,1.11,6.06,1.41,7.68-1.22l1.57,1.83c-4.35,2.85-7.55,1.83-9.52.19A5.8,5.8,0,0,0,111.13,28Z"/><path class="cls-6" d="M136.42,28.05c-3,.77-5.9.74-7.1-2.05l-1.71,1.65c3.76,3.3,6.91,2.64,9,1.23A7.38,7.38,0,0,1,136.42,28.05Z"/><polygon class="cls-20" points="95.02 129.95 95.28 134.38 99.57 134.38 100.21 129.95 95.02 129.95"/><polygon class="cls-20" points="109.69 129.95 109.92 134.38 113.85 134.38 114.34 129.95 109.69 129.95"/><polygon class="cls-20" points="42.34 129.36 42.97 133.56 46.93 133.56 46.74 129.36 42.34 129.36"/><polygon class="cls-20" points="24.47 129.36 25.19 133.56 29.72 133.56 29.51 129.36 24.47 129.36"/><path class="cls-21" d="M133.17,54c1.5-2.67,3-3.75,9.66,1.25s10.29,9.54,2.42,12.42C140.94,69.27,129.54,60.48,133.17,54Z"/><path class="cls-21" d="M154.92,58.61c-.75-3.83-3.53-4.21-11.39-1.45s-4.69,8.28-.61,10.37C147.88,70.07,155.55,61.83,154.92,58.61Z"/><path class="cls-22" d="M138.58,62.28c-3.41-.83-3.66-7.42-2.41-7.92C139.91,52.86,143.47,63.47,138.58,62.28Z"/><path class="cls-22" d="M145.51,62.76c.21-3,5.7-4.16,6.3-3.18C153.61,62.52,145.21,67,145.51,62.76Z"/><path class="cls-23" d="M42.08,65.11c.5-2.5.34-10-6.16-11.33,0,0,10-2,10.33-6.83.21-3.09-1.09-5.7-5-7.54a4.54,4.54,0,0,0-1.9.05c-2.47.62-3.08,2.88-5.35,3.5-3.71,1-3.81-1.65-7.82,2.88-2.7,3-5.29,16.46-2.72,30.62C36,77.31,41.59,67.6,42.08,65.11Z"/><path class="cls-23" d="M30.75,13.77c1.5,3.59,4.92,10.93,6.17,11.42C35.46,20.74,33.6,16.61,30.75,13.77Z"/><path class="cls-23" d="M56.23,95.64C45,89.09,50.84,78.49,55.35,76.4c6-2.8,16.28,2.79,16.28,2.79s.93-13.31,13-10.36c14.65,3.6,3,29.22-1.19,30.92C78.67,101.69,66,101.34,56.23,95.64Z"/><path class="cls-23" d="M90.8,53.63C98.32,51.66,99,43,99,43a5.73,5.73,0,0,0,6.52-5.61c.32-3.46-1.34-5.11-2.93-5.91-.46,1.1-1,2.18-1.53,3.23a32.91,32.91,0,0,1-19.45,10.2C80.85,47.93,83.85,55.46,90.8,53.63Z"/><path class="cls-23" d="M136.38,41.82c2.91,5.36,8.15,6.76,13.92,6.64a99.66,99.66,0,0,1-9.77-17.31C137.35,33.23,133.69,36.89,136.38,41.82Z"/><g class="cls-24"><path class="cls-25" d="M147,69.1c7.46-1.66,11.65-13.08,9.33-15.23a3.28,3.28,0,0,0-2.23-.81,47.8,47.8,0,0,1-3.82-4.6h0a82.5,82.5,0,0,1-6.67-10.94l0-.05c-.37-.71-.72-1.41-1.06-2.1,0,0,0-.09-.07-.14-.33-.67-.65-1.34-1-2l-.08-.15-.9-1.92c-2-4.3-3.43-7.83-4.41-9.47v0c-.45-1.58-.83-3-1.19-4.19,4.71-1.51,9.05-3.21,11.55-8.2-4.64-1.35-9.47-.65-12.85,4.87a4.29,4.29,0,0,0-.48-.7c.43-.6.51-1.12,0-1.55-.2-6.45-6-12.74-8.67-11.82,0,0,6,6,4.36,11.38a2.16,2.16,0,0,0-.8.49,1.81,1.81,0,0,0-.55,1.54,15.92,15.92,0,0,1-7,2.07c-4,.26-6-.89-7.83-1.54a1.79,1.79,0,0,0-1.19-1.29,2.21,2.21,0,0,0-.93-.1c-3.79-4.19-.94-12.15-.94-12.15-2.81.31-5.37,8.48-2.78,14.39a.94.94,0,0,0,.42,1.24v0A22.14,22.14,0,0,0,93.6,12.47c3,5,6.52,7.3,12.61,7.17a88.18,88.18,0,0,1-3.65,11.8h0c-.46,1.1-1,2.18-1.53,3.23-.31.33-.62.65-.94,1h0c-.31.31-.64.62-1,.92h0a32.81,32.81,0,0,1-17.53,8.29h0A38.47,38.47,0,0,1,60,41.31c-11.22-5.15-10.08-1.23-14.2-.82-1.5.15-2.89-.79-4.49-1.08h0l-.32,0c-1.37-4.27-2.48-9.41-4-14.18h0a43.93,43.93,0,0,0-2.55-6.27l-.06-.11c-.22-.43-.46-.85-.7-1.26l-.1-.18c-.24-.39-.48-.77-.74-1.13l-.12-.18c-.26-.37-.53-.72-.8-1.06l-.12-.14q-.45-.54-.93-1l-.05-.06h0c-3.43-3.42-8.3-4.95-15.63-2.88C9.71,4.37,2.49,15.24.62,18.34c-.39.52-.62.86-.62.86a35,35,0,0,0,7.75,0c9.15-.68,9.8-4.46,8.22-7.1C23.61,10,34.86,11.4,37.4,40.53c-1.08.89-1.86,2-3.36,2.43-3.71,1-3.81-1.65-7.82,2.88-.09.1-.18.22-.27.34l-.09.14-.19.28-.1.17c-.05.1-.11.2-.16.31s-.07.14-.11.21-.1.22-.16.33l-.1.24c-.05.12-.11.25-.16.38a2.44,2.44,0,0,1-.1.24l-.16.45-.09.24c-.07.21-.14.42-.2.65a.36.36,0,0,0,0,.09c-.07.26-.15.52-.22.79L24,51c0,.18-.1.37-.14.56l-.09.37-.12.52-.09.42c0,.17-.07.35-.1.52l-.09.45c0,.18-.06.36-.1.54s-.05.32-.08.47-.06.38-.08.58-.05.31-.08.47-.05.44-.08.65-.05.41-.08.61-.07.6-.1.91,0,.37-.05.56,0,.39-.05.59l0,.36s0-.1,0-.15c-.8,9.73.42,22.8,6.46,33.82l-6.57,24.67,2,11.45h0l.72,4.2h4.53L29.1,121.2l13.66-13.26a1.25,1.25,0,0,0,.12.08l-2.25,9.89L43,133.56h4l-.54-12.36,2.51-2.78a15.91,15.91,0,0,0,4.2,3.26l.44.29c-2.12,1.55-5.63,1.61-3.94,3.7,2,2.5,4.19-1.15,5.11-3a10.79,10.79,0,0,0,3.12,1c-.43,2.5-1.77,4.61.81,4.54,1.58-.05.85-2.12.38-4.44a9.78,9.78,0,0,0,3.41-.55c.8,1.77,2.54,4.77,4.57,2.9,1.7-1.57-1.38-2-3.32-3.44l.23-.12c3-1.15,5.92-3.54,8.52-7.6a70.9,70.9,0,0,0,21.51-3.64L95,130h0l.26,4.43h4.29l.64-4.43h0l3.34-23.08a48.54,48.54,0,0,0,4.75-3.1L109.69,130h0l.23,4.43h3.93l.49-4.43h0l4-35.84a62.84,62.84,0,0,0,9.31-16.39c0,.06,0,.11,0,.16s1.55-3.93,3-9.18c3.11,2.5,6.9,3,8.06.56,2.75,6.92,4.78,11.43,5.92,11s-2.11-8.13-3.68-11.83l.55.21c2.54,3.89,7.74,11.65,8.52,11.25s-4.26-7.43-6.71-10.74h0l.6.1c2.89,2.72,8.15,7.43,8.74,6.28C153.19,74.56,149.89,71.5,147,69.1Z"/></g></g></g></g></svg>