<svg xmlns="http://www.w3.org/2000/svg" xmlns:xlink="http://www.w3.org/1999/xlink" viewBox="0 0 172.41 266.15"><defs><style>.cls-1{fill:url(#radial-gradient);}.cls-2{fill:url(#radial-gradient-2);}.cls-3{fill:url(#radial-gradient-3);}.cls-4{fill:url(#radial-gradient-4);}.cls-5{fill:url(#radial-gradient-5);}.cls-6{fill:url(#radial-gradient-6);}.cls-7{fill:url(#radial-gradient-7);}.cls-8{fill:url(#radial-gradient-8);}.cls-9{fill:#efeef3;}.cls-10{fill:url(#radial-gradient-9);}.cls-11,.cls-12{opacity:0.2;}.cls-11{fill:url(#radial-gradient-10);}.cls-12{fill:url(#radial-gradient-11);}.cls-13{fill:url(#radial-gradient-12);}.cls-14{fill:url(#radial-gradient-13);}.cls-15{fill:url(#radial-gradient-14);}.cls-16{fill:url(#radial-gradient-15);}.cls-17{fill:url(#radial-gradient-16);}.cls-18{fill:url(#radial-gradient-17);}</style><radialGradient id="radial-gradient" cx="1642.13" cy="920.89" r="298" gradientTransform="matrix(1.25, 0.22, -0.19, 1.05, -1612.09, -1128.61)" gradientUnits="userSpaceOnUse"><stop offset="0" stop-color="#f1f1f1"/><stop offset="0.53" stop-color="#fff"/><stop offset="1" stop-color="#f1f1f1"/></radialGradient><radialGradient id="radial-gradient-2" cx="977.19" cy="1210.28" r="370.87" gradientTransform="matrix(0.98, 0.17, -0.17, 0.98, -574.4, -1180.25)" xlink:href="#radial-gradient"/><radialGradient id="radial-gradient-3" cx="825.63" cy="1179.99" r="88.96" gradientTransform="matrix(0.98, 0.17, -0.17, 0.98, -574.4, -1180.25)" gradientUnits="userSpaceOnUse"><stop offset="0.1" stop-color="#f9d8dc"/><stop offset="0.77" stop-color="#f6b4ba"/></radialGradient><radialGradient id="radial-gradient-4" cx="907.96" cy="1215.61" r="117.13" xlink:href="#radial-gradient-3"/><radialGradient id="radial-gradient-5" cx="964.69" cy="1189.86" r="239.75" gradientTransform="matrix(0.98, 0.17, -0.17, 0.98, -574.4, -1180.25)" xlink:href="#radial-gradient"/><radialGradient id="radial-gradient-6" cx="940.76" cy="1272.24" r="173.84" gradientTransform="matrix(0.98, 0.17, -0.17, 0.98, -574.4, -1180.25)" gradientUnits="userSpaceOnUse"><stop offset="0" stop-color="#f1f1f1"/><stop offset="0.55" stop-color="#fff"/><stop offset="1" stop-color="#f1f1f1"/></radialGradient><radialGradient id="radial-gradient-7" cx="839.22" cy="1368.44" r="50.4" gradientTransform="matrix(0.98, 0.17, -0.17, 0.98, -574.4, -1180.25)" gradientUnits="userSpaceOnUse"><stop offset="0" stop-color="#d1d2d3"/><stop offset="0.63" stop-color="#f6f7f7"/></radialGradient><radialGradient id="radial-gradient-8" cx="879.36" cy="1230.55" r="79.57" gradientTransform="matrix(0.98, 0.17, -0.17, 0.98, -574.4, -1180.25)" gradientUnits="userSpaceOnUse"><stop offset="0.57" stop-color="#fff"/><stop offset="0.94" stop-color="#f1f1f1"/></radialGradient><radialGradient id="radial-gradient-9" cx="2810.01" cy="1266.15" r="5.86" gradientTransform="matrix(1.79, 0.32, -0.17, 0.98, -4748.95, -1921.73)" gradientUnits="userSpaceOnUse"><stop offset="0.01" stop-color="#fcdbd2"/><stop offset="1" stop-color="#fcdbd2"/></radialGradient><radialGradient id="radial-gradient-10" cx="903.38" cy="1253.55" r="12.98" xlink:href="#radial-gradient-3"/><radialGradient id="radial-gradient-11" cx="841.87" cy="1253.55" r="12.98" xlink:href="#radial-gradient-3"/><radialGradient id="radial-gradient-12" cx="861.5" cy="1271.13" r="13.46" gradientTransform="matrix(0.98, 0.17, -0.17, 0.98, -574.4, -1180.25)" gradientUnits="userSpaceOnUse"><stop offset="0" stop-color="#e6e5e5"/><stop offset="0.66" stop-color="#fff"/><stop offset="0.77" stop-color="#fff"/><stop offset="1" stop-color="#fff"/></radialGradient><radialGradient id="radial-gradient-13" cx="867.98" cy="1270.02" r="12.97" xlink:href="#radial-gradient-12"/><radialGradient id="radial-gradient-14" cx="889.99" cy="1239.85" r="3.27" gradientTransform="matrix(0.98, 0.17, -0.17, 0.98, -574.4, -1180.25)" gradientUnits="userSpaceOnUse"><stop offset="0.02" stop-color="#434243"/><stop offset="0.41" stop-color="#312f30"/><stop offset="0.77" stop-color="#221f1f"/></radialGradient><radialGradient id="radial-gradient-15" cx="857.2" cy="1240.5" r="3.78" gradientTransform="matrix(0.98, 0.17, -0.17, 0.98, -574.4, -1180.25)" gradientUnits="userSpaceOnUse"><stop offset="0.02" stop-color="#434243"/><stop offset="0.77" stop-color="#221f1f"/></radialGradient><radialGradient id="radial-gradient-16" cx="842.2" cy="1266.15" r="41.23" gradientTransform="matrix(0.98, 0.17, -0.17, 0.98, -574.4, -1180.25)" gradientUnits="userSpaceOnUse"><stop offset="0.21" stop-color="#eacbbb"/><stop offset="0.75" stop-color="#dea5a1"/><stop offset="1" stop-color="#f9c8d2"/></radialGradient><radialGradient id="radial-gradient-17" cx="869.04" cy="1249.02" r="3.78" gradientTransform="matrix(0.98, 0.17, -0.17, 0.98, -574.4, -1180.25)" gradientUnits="userSpaceOnUse"><stop offset="0.21" stop-color="#434243"/><stop offset="0.77" stop-color="#221f1f"/></radialGradient></defs><g id="Calque_2" data-name="Calque 2"><g id="Calque_1-2" data-name="Calque 1"><path class="cls-1" d="M85.83,138s53.81-117,74-114.56S184.68,57.88,105,150.06Z"/><path class="cls-2" d="M65.76,130.27S74.55,31.88,39.5,6.13,21.7,42.09,27.61,73s23.12,65.46,23.12,65.46Z"/><path class="cls-3" d="M61.79,133.09c-.59-1.64-7.8-46.59-13.17-68-5.77-23-30.45-80-20.13-26.37,7,36.15,24,102.64,24,102.64C53.18,142.94,62.07,133.85,61.79,133.09Z"/><path class="cls-4" d="M151.67,59.59c14.54-29.05.86-19-11.66-2.72-6.29,8.19-48,75.71-48.74,77.21-1.82,3.76-1.65,19.63,7.26,10.94C113.15,130.76,150.06,62.8,151.67,59.59Z"/><path class="cls-5" d="M103.07,266.15c-2.72-12.93-5.53-24.45-6.52-32.07-1.47-11.37-69.4-23.49-71.4-12.21A265.15,265.15,0,0,0,0,266.15Z"/><path class="cls-6" d="M76,266.15c-3.58-6.71-9.9-16.22-17.46-17.31-12-1.74-27.06,17.09-27.16,17.08l-.21.23Z"/><path class="cls-7" d="M30.33,266.15c-.14-.79-.29-1.59-.47-2.39.42.23-20.93-7.32-21-7A73.23,73.23,0,0,0,8,266.15Z"/><path class="cls-8" d="M116.1,218.78c.85-14.08,3.41-47.3-3.23-64.89-6.17-16.35-16.6-20.95-28.41-27-1.71-.88-1.69-3.07-.44-5.14a14.48,14.48,0,0,1-5.28,2.78,39.47,39.47,0,0,1-1.11-8.69c-1,5.78-1.58,8.83-3.9,8.83-10.22,0-20.4,1.78-28.14,9-13.94,13-32.44,43.06-36.35,67.15s11.55,39.58,46.52,45.79S115.05,236.22,116.1,218.78Z"/><path class="cls-9" d="M43.08,204.89c1.29-7.26,13.36-13.52,25.28-11.4S90.08,206,88.79,213.25s-13.18,8.65-25.11,6.53S41.79,212.15,43.08,204.89Z"/><path class="cls-10" d="M53,216.72c-.11-.07,2.77-.3,5.66-1a56.47,56.47,0,0,0,6.22-1.92s8.57,5.67,9.48,6.25c1.8,1.13-5.48,6.27-12.08,4.78C56.68,223.58,54.82,217.88,53,216.72Z"/><path class="cls-11" d="M82.47,210c1.22-6.86,8.09-11.54,15.93-10.15a12.61,12.61,0,0,1,10.8,14c-1.62,9.11-9,11.58-15.61,10.4S81,218.15,82.47,210Z"/><path class="cls-12" d="M21.91,199.21c1.22-6.86,8.09-11.54,15.93-10.15a12.61,12.61,0,0,1,10.8,14c-1.62,9.11-9,11.58-15.61,10.4S20.45,207.39,21.91,199.21Z"/><path class="cls-13" d="M64.73,214c-.35,2-1.84,10.36-1.84,10.36l-4.58-.81.52-7S65,213.61,64.73,214Z"/><path class="cls-14" d="M64.9,214c-.36,2-1.85,10.36-1.85,10.36l4.58.81,2-6.78S64.8,213.58,64.9,214Z"/><path class="cls-15" d="M89.61,195.26a3.57,3.57,0,0,1-7-1.25c.34-1.94,2.47-4.7,4.4-4.36S90,193.32,89.61,195.26Z"/><path class="cls-16" d="M55.2,189.56a3.57,3.57,0,1,1-7-1.25c.35-1.94,2.47-4.7,4.4-4.36S55.55,187.62,55.2,189.56Z"/><path class="cls-17" d="M86.19,217.06c-.34-.21-.5-.24-.91.12-6.16,5.58-14.71,1.54-19.88-4.62a.62.62,0,0,0-1-.05c-4.34,4.11-13.6,4.5-17.68-.24a.62.62,0,0,0-.81,0c-.44.44,0,.95,0,.95a12.15,12.15,0,0,0,8,3.5,17.71,17.71,0,0,0,6.43-.66c1.47-.39,4.07-2.76,5-1.71,5.51,6.12,14.12,9.21,20.29,4.07C86,218.2,86.83,217.65,86.19,217.06Z"/><path class="cls-18" d="M64,212.22c-3.58-1-8.07-6.87-7.22-11.24.88-4.63,7.94-3.76,11.45-3.12,5.09.92,6.67,3,7.73,5C78.6,207.62,70.37,214.05,64,212.22Z"/></g></g></svg>