<svg xmlns="http://www.w3.org/2000/svg" xmlns:xlink="http://www.w3.org/1999/xlink" viewBox="0 0 113.11 169.62"><defs><style>.cls-1,.cls-3,.cls-4,.cls-6,.cls-8{stroke:#95cdc2;stroke-miterlimit:10;}.cls-1{fill:url(#linear-gradient);}.cls-2{fill:url(#radial-gradient);}.cls-3{fill:url(#linear-gradient-2);}.cls-4{fill:url(#radial-gradient-2);}.cls-5{fill:url(#radial-gradient-3);}.cls-6{fill:url(#radial-gradient-4);}.cls-13,.cls-14,.cls-7{opacity:0.2;}.cls-7{fill:url(#radial-gradient-5);}.cls-8{fill:url(#radial-gradient-6);}.cls-9{fill:url(#radial-gradient-7);}.cls-10{fill:url(#radial-gradient-8);}.cls-11{fill:#efeef3;}.cls-12{fill:url(#radial-gradient-9);}.cls-13{fill:url(#radial-gradient-10);}.cls-14{fill:url(#radial-gradient-11);}.cls-15{fill:url(#radial-gradient-12);}.cls-16{fill:url(#radial-gradient-13);}.cls-17{fill:url(#radial-gradient-14);}.cls-18{fill:url(#radial-gradient-15);}.cls-19{fill:url(#radial-gradient-16);}.cls-20{fill:url(#radial-gradient-17);}</style><linearGradient id="linear-gradient" x1="269.26" y1="235.97" x2="189.14" y2="202.08" gradientTransform="matrix(1, 0.05, -0.05, 1, -157.76, -167.41)" gradientUnits="userSpaceOnUse"><stop offset="0" stop-color="#f1f1f1"/><stop offset="0.53" stop-color="#fff"/><stop offset="1" stop-color="#f1f1f1"/></linearGradient><radialGradient id="radial-gradient" cx="228.6" cy="-175.59" r="53.49" gradientTransform="matrix(1, -0.04, 0.04, 1, -191.96, 261.53)" gradientUnits="userSpaceOnUse"><stop offset="0.1" stop-color="#f9d8dc"/><stop offset="0.77" stop-color="#f6b4ba"/></radialGradient><linearGradient id="linear-gradient-2" x1="174.29" y1="-233.62" x2="235.53" y2="-199.19" gradientTransform="matrix(1, -0.04, 0.04, 1, -191.96, 261.53)" xlink:href="#linear-gradient"/><radialGradient id="radial-gradient-2" cx="936.1" cy="237.87" r="198.41" gradientTransform="matrix(1.27, 0.07, -0.06, 1.06, -984.38, -206.27)" xlink:href="#linear-gradient"/><radialGradient id="radial-gradient-3" cx="252.12" cy="259.83" r="77.99" gradientTransform="matrix(1, 0.05, -0.05, 1, -157.76, -167.41)" xlink:href="#radial-gradient"/><radialGradient id="radial-gradient-4" cx="290.26" cy="272.16" r="76.57" gradientTransform="matrix(1, 0.05, -0.05, 1, -157.76, -167.41)" xlink:href="#linear-gradient"/><radialGradient id="radial-gradient-5" cx="142.11" cy="-504.9" r="11.5" gradientTransform="translate(-16.16 684.29) rotate(-8.23)" xlink:href="#radial-gradient"/><radialGradient id="radial-gradient-6" cx="233.08" cy="269.78" r="52.98" gradientTransform="matrix(1, 0.05, -0.05, 1, -157.76, -167.41)" gradientUnits="userSpaceOnUse"><stop offset="0.57" stop-color="#fff"/><stop offset="0.94" stop-color="#f1f1f1"/></radialGradient><radialGradient id="radial-gradient-7" cx="235.29" cy="604.35" r="2.17" gradientTransform="translate(-87.7 -509.04) rotate(7.43)" gradientUnits="userSpaceOnUse"><stop offset="0.02" stop-color="#434243"/><stop offset="0.41" stop-color="#312f30"/><stop offset="0.77" stop-color="#221f1f"/></radialGradient><radialGradient id="radial-gradient-8" cx="748.04" cy="611.71" r="10.81" gradientTransform="matrix(1.13, 0.06, -0.03, 1.12, -789.45, -603.68)" gradientUnits="userSpaceOnUse"><stop offset="0.77" stop-color="#221f1f"/><stop offset="1" stop-color="#434243"/></radialGradient><radialGradient id="radial-gradient-9" cx="2145.01" cy="293.58" r="3.9" gradientTransform="matrix(1.33, -0.63, 2.13, 1.34, -3424.71, 1102.88)" gradientUnits="userSpaceOnUse"><stop offset="0.01" stop-color="#fcdbd2"/><stop offset="1" stop-color="#fcdbd2"/></radialGradient><radialGradient id="radial-gradient-10" cx="249.07" cy="285.09" r="8.64" gradientTransform="matrix(1, 0.05, -0.05, 1, -157.76, -167.41)" xlink:href="#radial-gradient"/><radialGradient id="radial-gradient-11" cx="208.11" cy="285.09" r="8.64" gradientTransform="matrix(1, 0.05, -0.05, 1, -157.76, -167.41)" xlink:href="#radial-gradient"/><radialGradient id="radial-gradient-12" cx="221.19" cy="296.79" r="8.96" gradientTransform="matrix(1, 0.05, -0.05, 1, -157.76, -167.41)" gradientUnits="userSpaceOnUse"><stop offset="0" stop-color="#e6e5e5"/><stop offset="0.66" stop-color="#fff"/><stop offset="0.77" stop-color="#fff"/><stop offset="1" stop-color="#fff"/></radialGradient><radialGradient id="radial-gradient-13" cx="225.49" cy="296.06" r="8.63" xlink:href="#radial-gradient-12"/><radialGradient id="radial-gradient-14" cx="208.72" cy="293.48" r="26.87" gradientTransform="matrix(1, 0.05, -0.05, 1, -157.76, -167.41)" gradientUnits="userSpaceOnUse"><stop offset="0.21" stop-color="#eacbbb"/><stop offset="0.75" stop-color="#dea5a1"/><stop offset="1" stop-color="#f9c8d2"/></radialGradient><radialGradient id="radial-gradient-15" cx="226.2" cy="282.07" r="2.51" gradientTransform="matrix(1, 0.05, -0.05, 1, -157.76, -167.41)" gradientUnits="userSpaceOnUse"><stop offset="0.21" stop-color="#434243"/><stop offset="0.77" stop-color="#221f1f"/></radialGradient><radialGradient id="radial-gradient-16" cx="208.03" cy="235.33" r="10.17" gradientTransform="matrix(1, 0.05, -0.05, 1, -157.76, -167.41)" gradientUnits="userSpaceOnUse"><stop offset="0" stop-color="#f8a560"/><stop offset="1" stop-color="#f27660"/></radialGradient><radialGradient id="radial-gradient-17" cx="208.55" cy="235.41" r="1.8" gradientTransform="matrix(1, 0.05, -0.05, 1, -157.76, -167.41)" gradientUnits="userSpaceOnUse"><stop offset="0.33" stop-color="#f2dd6a"/><stop offset="1" stop-color="#fdc770"/></radialGradient></defs><g id="Calque_2" data-name="Calque 2"><g id="Calque_1-2" data-name="Calque 1"><path class="cls-1" d="M38.79,32.55c-1.44-3.4-2.63-9.53-8.47-13.28L16.21,48.87s.76,2,2,4.5h0A86.16,86.16,0,0,0,41,84.08l8.6-7.47S44,44.88,38.79,32.55Z"/><path class="cls-2" d="M47.45,79c-.62-1-11.75-29.18-18.31-42.32-1.16-2.32-2.78-5.17-4.62-8.16l-5.85,8.08c7.61,24.66,25.19,46.87,25.19,46.87C44.53,84.41,47.74,79.46,47.45,79Z"/><path class="cls-3" d="M2,65.48C-1.19,60.93.84,48.83,6.93,38.66c0,0,14.33-22.66,23.39-19.39C30.32,19.27,16.05,85.52,2,65.48Z"/><path class="cls-4" d="M63.35,82.26S89.32.55,102.87.5,122.1,21.24,77,88.67Z"/><path class="cls-5" d="M100.43,25.07c7.23-20.38-1-12.65-7.93-.84-3.48,5.93-25.52,54-25.88,55-.89,2.63.52,13.1,5.7,6.63C80.81,75.25,99.63,27.32,100.43,25.07Z"/><path class="cls-6" d="M90.31,169.48c-3.83-13.55-5.48-18-12-24.6-5.38-5.42-47.77-9.84-48.17-2.22a190,190,0,0,0-10.28,23.08"/><path class="cls-7" d="M68,168.3s-5.66-10.39-13.6-10.55c-8.09-.17-16.9,9-17,9"/><path class="cls-8" d="M90,133.17c-.6-9.37-1.62-31.53-7.45-42.61-5.42-10.3-12.69-12.49-21-15.5-1.21-.43-1.37-1.89-.72-3.36A9.55,9.55,0,0,1,57.57,74a25.81,25.81,0,0,1-1.45-5.65c-.21,3.91-.32,6-1.86,6.16-6.75.84-13.33,2.85-17.85,8.27-8.14,9.77-17.9,31.12-18.52,47.35s10.88,25.21,34.49,26.45S90.7,144.78,90,133.17Z"/><path class="cls-9" d="M70.45,119.92a2.37,2.37,0,0,1-4.7-.61c.17-1.3,1.5-3.2,2.79-3S70.62,118.62,70.45,119.92Z"/><path class="cls-10" d="M46.4,118.73c-.08.64-1.72,1-3.68.7s-3.48-1-3.4-1.62,1.81-1.44,3.76-1.19S46.49,118.09,46.4,118.73Z"/><path class="cls-11" d="M40.58,130c.26-4.9,7.72-10,15.77-9.6s15.38,6.48,15.12,11.38-8,6.8-16.06,6.38S40.32,134.88,40.58,130Z"/><path class="cls-12" d="M48.13,137c-.08,0,1.81-.42,3.66-1.11a37.93,37.93,0,0,0,4-1.78s6.13,3,6.78,3.35c1.28.6-3.11,4.59-7.59,4.15C51.1,141.21,49.4,137.6,48.13,137Z"/><path class="cls-13" d="M67,130.1c.24-4.63,4.4-8.29,9.7-8A8.38,8.38,0,0,1,85,130.46c-.32,6.16-5,8.39-9.46,8.15S66.73,135.63,67,130.1Z"/><path class="cls-14" d="M26.12,128c.25-4.63,4.41-8.29,9.7-8a8.4,8.4,0,0,1,8.29,8.37c-.33,6.16-5,8.39-9.47,8.15S25.83,133.48,26.12,128Z"/><path class="cls-15" d="M55.63,134.19c-.07,1.35-.37,7-.37,7L52.17,141l-.24-4.7A38.92,38.92,0,0,1,55.63,134.19Z"/><path class="cls-16" d="M55.74,134.2c-.07,1.34-.37,7-.37,7l3.1.17.72-4.65A40,40,0,0,0,55.74,134.2Z"/><path class="cls-17" d="M70.64,133c-3.35,6.35-10.31,4.34-14.69.26a.4.4,0,0,0-.62,0c-2.9,3.5-10.45,4.36-12.84-.11a.39.39,0,0,0-.7.36c1.4,2.63,4.11,3.47,7,3.41a12.13,12.13,0,0,0,4.2-1c.94-.38,2.46-2.16,3.17-1.55,4.75,4.12,11.87,5.28,15.19-1,.24-.45-.42-.89-.66-.44Z"/><path class="cls-18" d="M55,133.1c-2.45-.38-5.89-3.88-5.69-6.84.2-3.13,4.94-3.13,7.31-3,3.44.2,4.65,1.46,5.52,2.66C64.27,128.87,59.36,133.79,55,133.1Z"/><path class="cls-19" d="M36.65,74.45c-.35-1.52-.9-7.31,3.73-5.92,3.92,1.19,1.36,5.58,1.28,5.9s3.77-2.87,5.48-.24c2.92,4.46-4,4.85-4.45,4.89s6.42,1.47,3.38,5.8c-2.25,3.22-5.8.22-7.18-2,0,0,0,7-4.14,5.67-5.72-1.84-2.29-6-1-7.45,0,0-5.77,3.43-6.26-1.76-.2-2.09,2.52-2.81,5.43-2.24,0,0-5.78-2.72-1.73-6C34.21,68.64,36.65,74.45,36.65,74.45Z"/><path class="cls-20" d="M36.26,78.52a1.9,1.9,0,1,1,1.8,1.79A1.81,1.81,0,0,1,36.26,78.52Z"/></g></g></svg>